<?xml version="1.0" encoding="UTF-8" standalone="no"?>
<svg
   width="100%"
   height="100%"
   viewBox="0 0 996 1988"
   version="1.1"
   xml:space="preserve"
   style="fill-rule:evenodd;clip-rule:evenodd;stroke-linejoin:round;stroke-miterlimit:2;"
   id="svg8"
   xmlns="http://www.w3.org/2000/svg"
   xmlns:svg="http://www.w3.org/2000/svg"><defs
   id="defs12" />
    <g
   transform="matrix(4.16667,0,0,4.16667,0,0)"
   id="body">
        <path
   d="M39.686,0.78L39.686,20.622L19.842,20.622L19.842,40.466L0,40.466L0,219.047L19.842,219.047L19.842,238.889L39.686,238.889L39.686,258.732L59.527,258.732L59.527,278.575L79.371,278.575L79.371,298.417L99.212,298.417L99.212,318.259L79.371,318.259L79.371,338.102L59.527,338.102L59.527,357.945L39.686,357.945L39.686,477L59.527,477L59.527,417.472L79.371,417.472L79.371,477L158.741,477L158.741,417.472L178.583,417.472L178.583,477L198.425,477L198.425,357.945L178.583,357.945L178.583,338.102L158.741,338.102L158.741,318.259L138.898,318.259L138.898,298.417L158.741,298.417L158.741,278.575L178.583,278.575L178.583,258.732L198.425,258.732L198.425,238.889L218.268,238.889L218.268,219.047L238.111,219.047L238.111,40.466L218.268,40.466L218.268,20.622L198.425,20.622L198.425,0.78L39.686,0.78Z"
   style="fill:rgb(0,170,229);fill-rule:nonzero;"
   id="eyes" />
        <path
   d="M208.347,179.362L208.347,169.441L198.426,169.441L198.426,159.52L168.662,159.52L168.662,169.441L158.741,169.441L158.741,189.283L148.819,189.283L148.819,199.205L188.504,199.205L188.504,189.283L198.426,189.283L198.426,179.362L208.347,179.362ZM148.819,258.732L89.292,258.732L89.292,268.653L148.819,268.653L148.819,258.732ZM128.977,238.89L138.898,238.89L138.898,228.969L128.977,228.969L128.977,238.89ZM99.212,238.89L109.134,238.89L109.134,228.969L99.212,228.969L99.212,238.89ZM49.606,199.205L89.292,199.205L89.292,189.283L79.371,189.283L79.371,169.441L69.449,169.441L69.449,159.52L39.686,159.52L39.686,169.441L29.764,169.441L29.764,179.362L39.686,179.362L39.686,189.283L49.606,189.283L49.606,199.205Z"
   style="fill:rgb(4,6,12);fill-rule:nonzero;"
   id="path4" />
    </g>
</svg>
