<?xml version="1.0" encoding="UTF-8" standalone="no"?>
<svg
   width="100%"
   height="100%"
   viewBox="0 0 10792 2855"
   version="1.1"
   xml:space="preserve"
   style="fill-rule:evenodd;clip-rule:evenodd;stroke-linejoin:round;stroke-miterlimit:2;"
   id="svg136"
   sodipodi:docname="bus_left.svg"
   inkscape:version="1.1.2 (b8e25be833, 2022-02-05)"
   xmlns:inkscape="http://www.inkscape.org/namespaces/inkscape"
   xmlns:sodipodi="http://sodipodi.sourceforge.net/DTD/sodipodi-0.dtd"
   xmlns="http://www.w3.org/2000/svg"
   xmlns:svg="http://www.w3.org/2000/svg"><defs
   id="defs140" /><sodipodi:namedview
   id="namedview138"
   pagecolor="#ffffff"
   bordercolor="#666666"
   borderopacity="1.0"
   inkscape:pageshadow="2"
   inkscape:pageopacity="0.0"
   inkscape:pagecheckerboard="0"
   showgrid="false"
   inkscape:zoom="0.13852854"
   inkscape:cx="6565.4341"
   inkscape:cy="1429.3084"
   inkscape:window-width="2256"
   inkscape:window-height="1398"
   inkscape:window-x="-11"
   inkscape:window-y="-11"
   inkscape:window-maximized="1"
   inkscape:current-layer="svg136" />
    <g
   transform="matrix(4.16667,0,0,4.16667,0,0)"
   id="g134">
        <path
   d="M0.011,516.339L0.011,565.944L2589.46,565.944L2589.46,526.26L2490.25,526.26L2490.25,486.574L2520.01,486.574L2520.01,456.811L2589.46,456.811L2589.46,417.126L2391.04,417.126L2391.04,377.441L2361.27,377.441L2361.27,337.756L2331.51,337.756L2331.51,298.07L178.594,298.07L178.594,268.307L138.909,268.307L138.909,238.543L109.145,238.543L109.145,198.858L79.381,198.858L79.381,169.094L0.011,169.094L0.011,446.89L29.775,446.89L29.775,516.339L0.011,516.339Z"
   style="fill:rgb(5,180,141);fill-rule:nonzero;"
   id="body" />
        <path
   d="M32.782,79.519L0.001,79.519L0.001,112.341L0,112.341L0,118.906L0.001,118.906L0.011,169.094L109.145,169.094L109.177,119.466L426.626,119.488L2549.78,119.488L2549.78,79.803L32.782,79.519Z"
   style="fill:rgb(35,31,32);fill-rule:nonzero;"
   id="path4" />
        <path
   d="M19.761,565.944L19.936,605.63L2539.94,605.63L2539.94,565.944L19.761,565.944Z"
   style="fill:rgb(255,207,39);fill-rule:nonzero;"
   id="path6" />
        <rect
   x="79.381"
   y="169.094"
   width="29.764"
   height="39.685"
   style="fill:rgb(35,31,32);fill-rule:nonzero;"
   id="rect8" />
        <rect
   x="109.145"
   y="208.779"
   width="29.764"
   height="29.764"
   style="fill:rgb(35,31,32);fill-rule:nonzero;"
   id="rect10" />
        
        <rect
   x="138.909"
   y="238.543"
   width="29.764"
   height="29.764"
   style="fill:rgb(35,31,32);fill-rule:nonzero;"
   id="rect14" />
        <path
   d="M168.673,268.307L168.673,307.992L2331.51,307.992L2331.51,268.307L168.673,268.307Z"
   style="fill:rgb(35,31,32);fill-rule:nonzero;"
   id="path16" />
        <rect
   x="426.626"
   y="118.906"
   width="39.685"
   height="149.401"
   style="fill:rgb(35,31,32);fill-rule:nonzero;"
   id="rect18" />
        
        <path
   d="M892.925,118.906L892.925,268.307L932.61,268.307L932.61,119.488L892.925,118.906Z"
   style="fill:rgb(35,31,32);fill-rule:nonzero;"
   id="path22" />
        
        <rect
   x="1359.22"
   y="119.488"
   width="39.69"
   height="148.819"
   style="fill:rgb(35,31,32);fill-rule:nonzero;"
   id="rect26" />
        
        <rect
   x="1825.52"
   y="119.488"
   width="29.77"
   height="148.819"
   style="fill:rgb(35,31,32);fill-rule:nonzero;"
   id="rect30" />
        
        <rect
   x="2291.82"
   y="119.488"
   width="39.69"
   height="148.819"
   style="fill:rgb(35,31,32);fill-rule:nonzero;"
   id="rect34" />
        
        <rect
   x="2361.27"
   y="337.756"
   width="29.77"
   height="39.685"
   style="fill:rgb(35,31,32);fill-rule:nonzero;"
   id="rect38" />
        <rect
   x="2425.67"
   y="388.054"
   width="32.83"
   height="13.129"
   style="fill-rule:nonzero;"
   id="rect40" />
        
        <path
   d="M2420.8,367.52L2420.8,377.441L2391.04,377.441L2391.04,417.126L2589.46,417.126L2589.46,367.52L2420.8,367.52Z"
   style="fill:rgb(35,31,32);fill-rule:nonzero;"
   id="path44" />
        <path
   d="M2043.79,40.118L2043.79,0.433L2510.09,0.433L2510.09,40.131L2549.78,40.131L2549.78,79.803L29.599,79.519L29.599,40.131L2043.79,40.118Z"
   style="fill:white;fill-rule:nonzero;"
   id="path46" />
        <rect
   x="2549.78"
   y="79.803"
   width="39.68"
   height="39.685"
   style="fill:rgb(197,206,212);fill-rule:nonzero;"
   id="rect48" />
        <path
   d="M2589.46,526.26L2589.46,456.811L2520.01,456.811L2520.01,486.574L2490.25,486.574L2490.25,526.26L2589.46,526.26Z"
   style="fill:rgb(197,206,212);fill-rule:nonzero;"
   id="path50" />
        <path
   id="windows"
   style="fill:#00aae5;fill-rule:nonzero"
   d="m 2569.6201,119.488 h 19.84 v 257.953 h -19.84 z m -109.1401,0 h 69.45 V 367.52 h -69.45 z m -128.97,0 V 298.07 h 29.76 v 39.686 h 29.77 v 39.685 h 29.76 V 119.488 Z m -476.22,-0.582 v 149.401 h 436.53 V 119.488 Z m -456.38,0.582 v 149.401 l 426.61,-0.582 V 119.488 Z m -466.30001,0 H 1359.22 V 268.307 H 932.60999 Z m -466.29899,0 H 892.92502 V 268.307 H 466.311 Z m -357.14,0.03 v 89.261 h 29.738 v 29.764 h 29.764 v 29.764 H 426.626 V 119.518 Z" />
        <path
   d="M2478.19,302.714L2478.19,322.408L2504.45,322.408L2504.45,355.232L2550.4,355.232L2550.4,377.441L2445.37,377.441L2445.37,302.714L2478.19,302.714Z"
   style="fill:rgb(0,170,229);fill-rule:nonzero;"
   id="path54" />
        <rect
   x="2460.48"
   y="258.386"
   width="49.61"
   height="49.606"
   style="fill:rgb(255,207,39);fill-rule:nonzero;"
   id="rect56" />
        <rect
   x="2420.8"
   y="119.488"
   width="39.68"
   height="257.953"
   style="fill:rgb(35,31,32);fill-rule:nonzero;"
   id="rect58" />
        <path
   d="M2529.93,119.488L2529.93,377.441L2569.62,377.441L2569.62,119.488L2529.93,119.488Z"
   style="fill:rgb(35,31,32);fill-rule:nonzero;"
   id="path60" />
        <rect
   x="2529.93"
   y="198.858"
   width="29.77"
   height="99.212"
   style="fill:rgb(255,207,39);fill-rule:nonzero;"
   id="rect62" />
        <rect
   x="185.255"
   y="571.862"
   width="23.103"
   height="32.824"
   style="fill:rgb(253,212,41);fill-rule:nonzero;"
   id="rect64" />
        <rect
   x="208.358"
   y="565.944"
   width="39.685"
   height="39.686"
   style="fill:rgb(35,31,32);fill-rule:nonzero;"
   id="rect66" />
        <path
   d="M248.043,565.944L248.043,605.63L208.358,605.63L208.358,565.944L248.043,565.944ZM277.807,565.944L277.807,536.181L248.043,536.181L248.043,516.339L208.358,516.339L208.358,536.181L178.594,536.181L178.594,565.944L158.752,565.944L158.752,605.63L178.594,605.63L178.594,635.394L208.358,635.394L208.358,655.236L248.043,655.236L248.043,635.394L277.807,635.394L277.807,605.63L297.649,605.63L297.649,565.944L277.807,565.944Z"
   style="fill:rgb(255,207,39);fill-rule:nonzero;"
   id="path68" />
        <path
   d="M297.649,605.63L277.807,605.63L277.807,635.394L248.043,635.394L248.043,655.236L208.358,655.236L208.358,635.394L178.594,635.394L178.594,605.63L158.752,605.63L158.752,565.944L178.594,565.944L178.594,536.181L208.358,536.181L208.358,516.339L248.043,516.339L248.043,536.181L277.807,536.181L277.807,565.944L297.649,565.944L297.649,605.63ZM297.649,536.181L297.649,516.339L277.807,516.339L277.807,486.574L178.594,486.574L178.594,516.339L158.752,516.339L158.752,536.181L128.988,536.181L128.988,635.394L158.752,635.394L158.752,655.236L178.594,655.236L178.594,685L277.807,685L277.807,655.236L297.649,655.236L297.649,635.394L327.413,635.394L327.413,536.181L297.649,536.181Z"
   style="fill:rgb(35,31,32);fill-rule:nonzero;"
   id="path70" />
        <rect
   x="466.311"
   y="565.944"
   width="39.685"
   height="39.686"
   style="fill:rgb(35,31,32);fill-rule:nonzero;"
   id="rect72" />
        <path
   d="M505.996,565.944L505.996,605.63L466.311,605.63L466.311,565.944L505.996,565.944ZM535.76,565.944L535.76,536.181L505.996,536.181L505.996,516.339L466.311,516.339L466.311,536.181L436.547,536.181L436.547,565.944L416.704,565.944L416.704,605.63L436.547,605.63L436.547,635.394L466.311,635.394L466.311,655.236L505.996,655.236L505.996,635.394L535.76,635.394L535.76,605.63L555.602,605.63L555.602,565.944L535.76,565.944Z"
   style="fill:rgb(255,207,39);fill-rule:nonzero;"
   id="path74" />
        <path
   d="M555.602,605.63L535.76,605.63L535.76,635.394L505.996,635.394L505.996,655.236L466.311,655.236L466.311,635.394L436.547,635.394L436.547,605.63L416.704,605.63L416.704,565.944L436.547,565.944L436.547,536.181L466.311,536.181L466.311,516.339L505.996,516.339L505.996,536.181L535.76,536.181L535.76,565.944L555.602,565.944L555.602,605.63ZM555.602,536.181L555.602,516.339L535.76,516.339L535.76,486.574L436.547,486.574L436.547,516.339L416.704,516.339L416.704,536.181L386.941,536.181L386.941,635.394L416.704,635.394L416.704,655.236L436.547,655.236L436.547,685L535.76,685L535.76,655.236L555.602,655.236L555.602,635.394L585.365,635.394L585.365,536.181L555.602,536.181Z"
   style="fill:rgb(35,31,32);fill-rule:nonzero;"
   id="path76" />
        <rect
   x="2192.61"
   y="565.944"
   width="39.69"
   height="39.686"
   style="fill:rgb(35,31,32);fill-rule:nonzero;"
   id="rect78" />
        <path
   d="M2232.3,565.944L2232.3,605.63L2192.61,605.63L2192.61,565.944L2232.3,565.944ZM2262.06,565.944L2262.06,536.181L2232.3,536.181L2232.3,516.339L2192.61,516.339L2192.61,536.181L2162.85,536.181L2162.85,565.944L2143,565.944L2143,605.63L2162.85,605.63L2162.85,635.394L2192.61,635.394L2192.61,655.236L2232.3,655.236L2232.3,635.394L2262.06,635.394L2262.06,605.63L2281.9,605.63L2281.9,565.944L2262.06,565.944Z"
   style="fill:rgb(255,207,39);fill-rule:nonzero;"
   id="path80" />
        <path
   d="M2281.9,605.63L2262.06,605.63L2262.06,635.394L2232.3,635.394L2232.3,655.236L2192.61,655.236L2192.61,635.394L2162.85,635.394L2162.85,605.63L2143,605.63L2143,565.944L2162.85,565.944L2162.85,536.181L2192.61,536.181L2192.61,516.339L2232.3,516.339L2232.3,536.181L2262.06,536.181L2262.06,565.944L2281.9,565.944L2281.9,605.63ZM2281.9,536.181L2281.9,516.339L2262.06,516.339L2262.06,486.574L2162.85,486.574L2162.85,516.339L2143,516.339L2143,536.181L2113.24,536.181L2113.24,635.394L2143,635.394L2143,655.236L2162.85,655.236L2162.85,685L2262.06,685L2262.06,655.236L2281.9,655.236L2281.9,635.394L2311.67,635.394L2311.67,536.181L2281.9,536.181Z"
   style="fill:rgb(35,31,32);fill-rule:nonzero;"
   id="path82" />
        <rect
   x="2331.59"
   y="298.07"
   width="29.76"
   height="39.686"
   style="fill:rgb(35,31,32);fill-rule:nonzero;"
   id="rect84" />
        <path
   d="M201.092,418.596L213.217,418.596L213.217,430.722L201.092,430.722L201.092,418.596ZM201.092,353.925L213.217,353.925L213.217,366.05L201.092,366.05L201.092,353.925ZM184.924,402.428L197.049,402.428L197.049,414.554L184.924,414.554L184.924,402.428ZM184.924,370.092L197.049,370.092L197.049,382.218L184.924,382.218L184.924,370.092ZM168.756,386.26L180.882,386.26L180.882,398.386L168.756,398.386L168.756,386.26Z"
   style="fill:rgb(35,31,32);fill-rule:nonzero;"
   id="path86" />
        <path
   d="M281.931,434.764L294.056,434.764L294.056,446.89L281.931,446.89L281.931,434.764ZM281.931,418.596L294.056,418.596L294.056,430.722L281.931,430.722L281.931,418.596ZM281.931,402.428L294.056,402.428L294.056,414.554L281.931,414.554L281.931,402.428ZM281.931,386.26L294.056,386.26L294.056,398.386L281.931,398.386L281.931,386.26ZM265.762,370.092L277.888,370.092L277.888,382.218L265.762,382.218L265.762,370.092ZM249.594,370.092L261.721,370.092L261.721,382.218L249.594,382.218L249.594,370.092ZM233.426,434.764L245.553,434.764L245.553,446.89L233.426,446.89L233.426,434.764ZM233.426,418.596L245.553,418.596L245.553,430.722L233.426,430.722L233.426,418.596ZM233.426,402.428L245.553,402.428L245.553,414.554L233.426,414.554L233.426,402.428ZM233.426,386.26L245.553,386.26L245.553,398.386L233.426,398.386L233.426,386.26ZM233.426,370.092L245.553,370.092L245.553,382.218L233.426,382.218L233.426,370.092ZM233.426,353.925L245.553,353.925L245.553,366.05L233.426,366.05L233.426,353.925ZM233.426,337.756L245.553,337.756L245.553,349.882L233.426,349.882L233.426,337.756Z"
   style="fill:rgb(35,31,32);fill-rule:nonzero;"
   id="path88" />
        <path
   d="M378.938,434.764L391.064,434.764L391.064,446.89L378.938,446.89L378.938,434.764ZM378.938,378.176L391.064,378.176L391.064,390.302L378.938,390.302L378.938,378.176ZM378.938,362.008L391.064,362.008L391.064,374.135L378.938,374.135L378.938,362.008ZM378.938,345.84L391.064,345.84L391.064,357.966L378.938,357.966L378.938,345.84ZM362.771,434.764L374.896,434.764L374.896,446.89L362.771,446.89L362.771,434.764ZM362.771,386.26L374.896,386.26L374.896,398.386L362.771,398.386L362.771,386.26ZM362.771,337.756L374.896,337.756L374.896,349.882L362.771,349.882L362.771,337.756ZM346.602,434.764L358.728,434.764L358.728,446.89L346.602,446.89L346.602,434.764ZM346.602,386.26L358.728,386.26L358.728,398.386L346.602,398.386L346.602,386.26ZM346.602,337.756L358.728,337.756L358.728,349.882L346.602,349.882L346.602,337.756ZM330.434,434.764L342.561,434.764L342.561,446.89L330.434,446.89L330.434,434.764ZM330.434,386.26L342.561,386.26L342.561,398.386L330.434,398.386L330.434,386.26ZM330.434,337.756L342.561,337.756L342.561,349.882L330.434,349.882L330.434,337.756ZM314.266,434.764L326.392,434.764L326.392,446.89L314.266,446.89L314.266,434.764ZM314.266,418.596L326.392,418.596L326.392,430.722L314.266,430.722L314.266,418.596ZM314.266,402.428L326.392,402.428L326.392,414.554L314.266,414.554L314.266,402.428ZM314.266,345.84L326.392,345.84L326.392,357.966L314.266,357.966L314.266,345.84Z"
   style="fill:rgb(35,31,32);fill-rule:nonzero;"
   id="path90" />
        <path
   d="M443.609,386.26L455.736,386.26L455.736,398.386L443.609,398.386L443.609,386.26ZM427.442,402.428L439.568,402.428L439.568,414.554L427.442,414.554L427.442,402.428ZM427.442,370.092L439.568,370.092L439.568,382.218L427.442,382.218L427.442,370.092ZM411.274,418.596L423.399,418.596L423.399,430.722L411.274,430.722L411.274,418.596ZM411.274,353.925L423.399,353.925L423.399,366.05L411.274,366.05L411.274,353.925Z"
   style="fill:rgb(35,31,32);fill-rule:nonzero;"
   id="path92" />
        <path
   d="M598.205,426.845L610.353,426.845L610.353,438.993L598.205,438.993L598.205,426.845ZM598.205,410.648L610.353,410.648L610.353,422.795L598.205,422.795L598.205,410.648ZM598.205,394.449L610.353,394.449L610.353,406.598L598.205,406.598L598.205,394.449ZM598.205,378.251L610.353,378.251L610.353,390.4L598.205,390.4L598.205,378.251ZM598.205,362.053L610.353,362.053L610.353,374.202L598.205,374.202L598.205,362.053ZM598.205,345.856L610.353,345.856L610.353,358.003L598.205,358.003L598.205,345.856ZM582.007,434.945L594.155,434.945L594.155,447.093L582.007,447.093L582.007,434.945ZM582.007,337.756L594.155,337.756L594.155,349.905L582.007,349.905L582.007,337.756ZM565.809,434.945L577.957,434.945L577.957,447.093L565.809,447.093L565.809,434.945ZM565.809,337.756L577.957,337.756L577.957,349.905L565.809,349.905L565.809,337.756ZM549.611,434.945L561.76,434.945L561.76,447.093L549.611,447.093L549.611,434.945ZM549.611,337.756L561.76,337.756L561.76,349.905L549.611,349.905L549.611,337.756ZM533.413,426.845L545.561,426.845L545.561,438.993L533.413,438.993L533.413,426.845ZM533.413,410.648L545.561,410.648L545.561,422.795L533.413,422.795L533.413,410.648ZM533.413,394.449L545.561,394.449L545.561,406.598L533.413,406.598L533.413,394.449ZM533.413,378.251L545.561,378.251L545.561,390.4L533.413,390.4L533.413,378.251ZM533.413,362.053L545.561,362.053L545.561,374.202L533.413,374.202L533.413,362.053ZM533.413,345.856L545.561,345.856L545.561,358.003L533.413,358.003L533.413,345.856Z"
   style="fill:rgb(35,31,32);fill-rule:nonzero;"
   id="path94" />
        <path
   d="M679.195,426.845L691.343,426.845L691.343,438.993L679.195,438.993L679.195,426.845ZM679.195,410.648L691.343,410.648L691.343,422.795L679.195,422.795L679.195,410.648ZM679.195,394.449L691.343,394.449L691.343,406.598L679.195,406.598L679.195,394.449ZM679.195,378.251L691.343,378.251L691.343,390.4L679.195,390.4L679.195,378.251ZM662.996,434.945L675.145,434.945L675.145,447.093L662.996,447.093L662.996,434.945ZM662.996,370.153L675.145,370.153L675.145,382.301L662.996,382.301L662.996,370.153ZM646.798,434.945L658.947,434.945L658.947,447.093L646.798,447.093L646.798,434.945ZM646.798,370.153L658.947,370.153L658.947,382.301L646.798,382.301L646.798,370.153ZM630.601,467.34L642.748,467.34L642.748,479.488L630.601,479.488L630.601,467.34ZM630.601,451.143L642.748,451.143L642.748,463.29L630.601,463.29L630.601,451.143ZM630.601,434.945L642.748,434.945L642.748,447.093L630.601,447.093L630.601,434.945ZM630.601,418.745L642.748,418.745L642.748,430.895L630.601,430.895L630.601,418.745ZM630.601,402.548L642.748,402.548L642.748,414.697L630.601,414.697L630.601,402.548ZM630.601,386.35L642.748,386.35L642.748,398.498L630.601,398.498L630.601,386.35ZM630.601,370.153L642.748,370.153L642.748,382.301L630.601,382.301L630.601,370.153Z"
   style="fill:rgb(35,31,32);fill-rule:nonzero;"
   id="path96" />
        <path
   d="M760.185,426.845L772.333,426.845L772.333,438.993L760.185,438.993L760.185,426.845ZM760.185,394.449L772.333,394.449L772.333,406.598L760.185,406.598L760.185,394.449ZM760.185,378.251L772.333,378.251L772.333,390.4L760.185,390.4L760.185,378.251ZM743.986,434.945L756.135,434.945L756.135,447.093L743.986,447.093L743.986,434.945ZM743.986,402.548L756.135,402.548L756.135,414.697L743.986,414.697L743.986,402.548ZM743.986,370.153L756.135,370.153L756.135,382.301L743.986,382.301L743.986,370.153ZM727.788,434.945L739.937,434.945L739.937,447.093L727.788,447.093L727.788,434.945ZM727.788,402.548L739.937,402.548L739.937,414.697L727.788,414.697L727.788,402.548ZM727.788,370.153L739.937,370.153L739.937,382.301L727.788,382.301L727.788,370.153ZM711.59,426.845L723.738,426.845L723.738,438.993L711.59,438.993L711.59,426.845ZM711.59,410.648L723.738,410.648L723.738,422.795L711.59,422.795L711.59,410.648ZM711.59,394.449L723.738,394.449L723.738,406.598L711.59,406.598L711.59,394.449ZM711.59,378.251L723.738,378.251L723.738,390.4L711.59,390.4L711.59,378.251Z"
   style="fill:rgb(35,31,32);fill-rule:nonzero;"
   id="path98" />
        <path
   d="M841.175,434.945L853.322,434.945L853.322,447.093L841.175,447.093L841.175,434.945ZM841.175,418.745L853.322,418.745L853.322,430.895L841.175,430.895L841.175,418.745ZM841.175,402.548L853.322,402.548L853.322,414.697L841.175,414.697L841.175,402.548ZM841.175,386.35L853.322,386.35L853.322,398.498L841.175,398.498L841.175,386.35ZM824.976,370.153L837.125,370.153L837.125,382.301L824.976,382.301L824.976,370.153ZM808.778,378.251L820.927,378.251L820.927,390.4L808.778,390.4L808.778,378.251ZM792.58,434.945L804.729,434.945L804.729,447.093L792.58,447.093L792.58,434.945ZM792.58,418.745L804.729,418.745L804.729,430.895L792.58,430.895L792.58,418.745ZM792.58,402.548L804.729,402.548L804.729,414.697L792.58,414.697L792.58,402.548ZM792.58,386.35L804.729,386.35L804.729,398.498L792.58,398.498L792.58,386.35ZM792.58,370.153L804.729,370.153L804.729,382.301L792.58,382.301L792.58,370.153Z"
   style="fill:rgb(35,31,32);fill-rule:nonzero;"
   id="path100" />
        <path
   d="M1015.37,426.68L1027.5,426.68L1027.5,438.806L1015.37,438.806L1015.37,426.68ZM1015.37,410.512L1027.5,410.512L1027.5,422.638L1015.37,422.638L1015.37,410.512ZM1015.37,394.344L1027.5,394.344L1027.5,406.47L1015.37,406.47L1015.37,394.344ZM1015.37,378.176L1027.5,378.176L1027.5,390.302L1015.37,390.302L1015.37,378.176ZM1015.37,362.008L1027.5,362.008L1027.5,374.135L1015.37,374.135L1015.37,362.008ZM1015.37,345.84L1027.5,345.84L1027.5,357.966L1015.37,357.966L1015.37,345.84ZM999.203,434.764L1011.33,434.764L1011.33,446.89L999.203,446.89L999.203,434.764ZM999.203,337.756L1011.33,337.756L1011.33,349.882L999.203,349.882L999.203,337.756ZM983.034,434.764L995.161,434.764L995.161,446.89L983.034,446.89L983.034,434.764ZM983.034,337.756L995.161,337.756L995.161,349.882L983.034,349.882L983.034,337.756ZM966.867,434.764L978.993,434.764L978.993,446.89L966.867,446.89L966.867,434.764ZM966.867,337.756L978.993,337.756L978.993,349.882L966.867,349.882L966.867,337.756ZM950.699,434.764L962.824,434.764L962.824,446.89L950.699,446.89L950.699,434.764ZM950.699,418.596L962.824,418.596L962.824,430.722L950.699,430.722L950.699,418.596ZM950.699,402.428L962.824,402.428L962.824,414.554L950.699,414.554L950.699,402.428ZM950.699,386.26L962.824,386.26L962.824,398.386L950.699,398.386L950.699,386.26ZM950.699,370.092L962.824,370.092L962.824,382.218L950.699,382.218L950.699,370.092ZM950.699,353.925L962.824,353.925L962.824,366.05L950.699,366.05L950.699,353.925ZM950.699,337.756L962.824,337.756L962.824,349.882L950.699,349.882L950.699,337.756Z"
   style="fill:rgb(35,31,32);fill-rule:nonzero;"
   id="path102" />
        <path
   d="M1096.21,426.68L1108.34,426.68L1108.34,438.806L1096.21,438.806L1096.21,426.68ZM1096.21,410.512L1108.34,410.512L1108.34,422.638L1096.21,422.638L1096.21,410.512ZM1096.21,394.344L1108.34,394.344L1108.34,406.47L1096.21,406.47L1096.21,394.344ZM1096.21,378.176L1108.34,378.176L1108.34,390.302L1096.21,390.302L1096.21,378.176ZM1080.04,434.764L1092.17,434.764L1092.17,446.89L1080.04,446.89L1080.04,434.764ZM1080.04,402.428L1092.17,402.428L1092.17,414.554L1080.04,414.554L1080.04,402.428ZM1080.04,370.092L1092.17,370.092L1092.17,382.218L1080.04,382.218L1080.04,370.092ZM1063.87,434.764L1076,434.764L1076,446.89L1063.87,446.89L1063.87,434.764ZM1063.87,402.428L1076,402.428L1076,414.554L1063.87,414.554L1063.87,402.428ZM1063.87,370.092L1076,370.092L1076,382.218L1063.87,382.218L1063.87,370.092ZM1047.71,426.68L1059.83,426.68L1059.83,438.806L1047.71,438.806L1047.71,426.68ZM1047.71,410.512L1059.83,410.512L1059.83,422.638L1047.71,422.638L1047.71,410.512ZM1047.71,378.176L1059.83,378.176L1059.83,390.302L1047.71,390.302L1047.71,378.176Z"
   style="fill:rgb(35,31,32);fill-rule:nonzero;"
   id="path104" />
        <path
   d="M1177.05,426.68L1189.18,426.68L1189.18,438.806L1177.05,438.806L1177.05,426.68ZM1160.88,434.764L1173.01,434.764L1173.01,446.89L1160.88,446.89L1160.88,434.764ZM1160.88,370.092L1173.01,370.092L1173.01,382.218L1160.88,382.218L1160.88,370.092ZM1144.71,418.596L1156.84,418.596L1156.84,430.722L1144.71,430.722L1144.71,418.596ZM1144.71,402.428L1156.84,402.428L1156.84,414.554L1144.71,414.554L1144.71,402.428ZM1144.71,386.26L1156.84,386.26L1156.84,398.386L1144.71,398.386L1144.71,386.26ZM1144.71,370.092L1156.84,370.092L1156.84,382.218L1144.71,382.218L1144.71,370.092ZM1144.71,353.925L1156.84,353.925L1156.84,366.05L1144.71,366.05L1144.71,353.925ZM1144.71,337.756L1156.84,337.756L1156.84,349.882L1144.71,349.882L1144.71,337.756ZM1128.55,370.092L1140.67,370.092L1140.67,382.218L1128.55,382.218L1128.55,370.092Z"
   style="fill:rgb(35,31,32);fill-rule:nonzero;"
   id="path106" />
        <path
   d="M1257.89,426.68L1270.02,426.68L1270.02,438.806L1257.89,438.806L1257.89,426.68ZM1257.89,410.512L1270.02,410.512L1270.02,422.638L1257.89,422.638L1257.89,410.512ZM1257.89,394.344L1270.02,394.344L1270.02,406.47L1257.89,406.47L1257.89,394.344ZM1257.89,378.176L1270.02,378.176L1270.02,390.302L1257.89,390.302L1257.89,378.176ZM1241.72,434.764L1253.85,434.764L1253.85,446.89L1241.72,446.89L1241.72,434.764ZM1241.72,402.428L1253.85,402.428L1253.85,414.554L1241.72,414.554L1241.72,402.428ZM1241.72,370.092L1253.85,370.092L1253.85,382.218L1241.72,382.218L1241.72,370.092ZM1225.55,434.764L1237.68,434.764L1237.68,446.89L1225.55,446.89L1225.55,434.764ZM1225.55,402.428L1237.68,402.428L1237.68,414.554L1225.55,414.554L1225.55,402.428ZM1225.55,370.092L1237.68,370.092L1237.68,382.218L1225.55,382.218L1225.55,370.092ZM1209.39,426.68L1221.51,426.68L1221.51,438.806L1209.39,438.806L1209.39,426.68ZM1209.39,410.512L1221.51,410.512L1221.51,422.638L1209.39,422.638L1209.39,410.512ZM1209.39,378.176L1221.51,378.176L1221.51,390.302L1209.39,390.302L1209.39,378.176Z"
   style="fill:rgb(35,31,32);fill-rule:nonzero;"
   id="path108" />
        <path
   d="M1402.23,426.845L1414.38,426.845L1414.38,438.993L1402.23,438.993L1402.23,426.845ZM1402.23,410.648L1414.38,410.648L1414.38,422.795L1402.23,422.795L1402.23,410.648ZM1402.23,394.449L1414.38,394.449L1414.38,406.598L1402.23,406.598L1402.23,394.449ZM1402.23,378.251L1414.38,378.251L1414.38,390.4L1402.23,390.4L1402.23,378.251ZM1386.03,434.945L1398.18,434.945L1398.18,447.093L1386.03,447.093L1386.03,434.945ZM1386.03,370.153L1398.18,370.153L1398.18,382.301L1386.03,382.301L1386.03,370.153ZM1369.84,434.945L1381.98,434.945L1381.98,447.093L1369.84,447.093L1369.84,434.945ZM1369.84,370.153L1381.98,370.153L1381.98,382.301L1369.84,382.301L1369.84,370.153ZM1353.64,434.945L1365.79,434.945L1365.79,447.093L1353.64,447.093L1353.64,434.945ZM1353.64,418.745L1365.79,418.745L1365.79,430.895L1353.64,430.895L1353.64,418.745ZM1353.64,402.548L1365.79,402.548L1365.79,414.697L1353.64,414.697L1353.64,402.548ZM1353.64,386.35L1365.79,386.35L1365.79,398.498L1353.64,398.498L1353.64,386.35ZM1353.64,370.153L1365.79,370.153L1365.79,382.301L1353.64,382.301L1353.64,370.153ZM1353.64,353.954L1365.79,353.954L1365.79,366.103L1353.64,366.103L1353.64,353.954ZM1353.64,337.756L1365.79,337.756L1365.79,349.905L1353.64,349.905L1353.64,337.756Z"
   style="fill:rgb(35,31,32);fill-rule:nonzero;"
   id="path110" />
        <path
   d="M1483.22,426.845L1495.37,426.845L1495.37,438.993L1483.22,438.993L1483.22,426.845ZM1483.22,394.449L1495.37,394.449L1495.37,406.598L1483.22,406.598L1483.22,394.449ZM1483.22,378.251L1495.37,378.251L1495.37,390.4L1483.22,390.4L1483.22,378.251ZM1467.02,434.945L1479.17,434.945L1479.17,447.093L1467.02,447.093L1467.02,434.945ZM1467.02,402.548L1479.17,402.548L1479.17,414.697L1467.02,414.697L1467.02,402.548ZM1467.02,370.153L1479.17,370.153L1479.17,382.301L1467.02,382.301L1467.02,370.153ZM1450.83,434.945L1462.97,434.945L1462.97,447.093L1450.83,447.093L1450.83,434.945ZM1450.83,402.548L1462.97,402.548L1462.97,414.697L1450.83,414.697L1450.83,402.548ZM1450.83,370.153L1462.97,370.153L1462.97,382.301L1450.83,382.301L1450.83,370.153ZM1434.63,426.845L1446.78,426.845L1446.78,438.993L1434.63,438.993L1434.63,426.845ZM1434.63,410.648L1446.78,410.648L1446.78,422.795L1434.63,422.795L1434.63,410.648ZM1434.63,394.449L1446.78,394.449L1446.78,406.598L1434.63,406.598L1434.63,394.449ZM1434.63,378.251L1446.78,378.251L1446.78,390.4L1434.63,390.4L1434.63,378.251Z"
   style="fill:rgb(35,31,32);fill-rule:nonzero;"
   id="path112" />
        <path
   d="M1580.41,418.745L1592.56,418.745L1592.56,430.895L1580.41,430.895L1580.41,418.745ZM1580.41,402.548L1592.56,402.548L1592.56,414.697L1580.41,414.697L1580.41,402.548ZM1580.41,386.35L1592.56,386.35L1592.56,398.498L1580.41,398.498L1580.41,386.35ZM1580.41,370.153L1592.56,370.153L1592.56,382.301L1580.41,382.301L1580.41,370.153ZM1564.21,434.945L1576.36,434.945L1576.36,447.093L1564.21,447.093L1564.21,434.945ZM1548.01,426.845L1560.16,426.845L1560.16,438.993L1548.01,438.993L1548.01,426.845ZM1548.01,410.648L1560.16,410.648L1560.16,422.795L1548.01,422.795L1548.01,410.648ZM1548.01,394.449L1560.16,394.449L1560.16,406.598L1548.01,406.598L1548.01,394.449ZM1531.82,434.945L1543.96,434.945L1543.96,447.093L1531.82,447.093L1531.82,434.945ZM1515.62,418.745L1527.77,418.745L1527.77,430.895L1515.62,430.895L1515.62,418.745ZM1515.62,402.548L1527.77,402.548L1527.77,414.697L1515.62,414.697L1515.62,402.548ZM1515.62,386.35L1527.77,386.35L1527.77,398.498L1515.62,398.498L1515.62,386.35ZM1515.62,370.153L1527.77,370.153L1527.77,382.301L1515.62,382.301L1515.62,370.153Z"
   style="fill:rgb(35,31,32);fill-rule:nonzero;"
   id="path114" />
        <path
   d="M1661.4,426.845L1673.55,426.845L1673.55,438.993L1661.4,438.993L1661.4,426.845ZM1661.4,394.449L1673.55,394.449L1673.55,406.598L1661.4,406.598L1661.4,394.449ZM1661.4,378.251L1673.55,378.251L1673.55,390.4L1661.4,390.4L1661.4,378.251ZM1645.2,434.945L1657.35,434.945L1657.35,447.093L1645.2,447.093L1645.2,434.945ZM1645.2,402.548L1657.35,402.548L1657.35,414.697L1645.2,414.697L1645.2,402.548ZM1645.2,370.153L1657.35,370.153L1657.35,382.301L1645.2,382.301L1645.2,370.153ZM1629,434.945L1641.15,434.945L1641.15,447.093L1629,447.093L1629,434.945ZM1629,402.548L1641.15,402.548L1641.15,414.697L1629,414.697L1629,402.548ZM1629,370.153L1641.15,370.153L1641.15,382.301L1629,382.301L1629,370.153ZM1612.8,426.845L1624.95,426.845L1624.95,438.993L1612.8,438.993L1612.8,426.845ZM1612.8,410.648L1624.95,410.648L1624.95,422.795L1612.8,422.795L1612.8,410.648ZM1612.8,394.449L1624.95,394.449L1624.95,406.598L1612.8,406.598L1612.8,394.449ZM1612.8,378.251L1624.95,378.251L1624.95,390.4L1612.8,390.4L1612.8,378.251Z"
   style="fill:rgb(35,31,32);fill-rule:nonzero;"
   id="path116" />
        <path
   d="M1742.39,451.143L1754.54,451.143L1754.54,463.29L1742.39,463.29L1742.39,451.143ZM1742.39,434.945L1754.54,434.945L1754.54,447.093L1742.39,447.093L1742.39,434.945ZM1742.39,418.745L1754.54,418.745L1754.54,430.895L1742.39,430.895L1742.39,418.745ZM1742.39,402.548L1754.54,402.548L1754.54,414.697L1742.39,414.697L1742.39,402.548ZM1742.39,386.35L1754.54,386.35L1754.54,398.498L1742.39,398.498L1742.39,386.35ZM1742.39,370.153L1754.54,370.153L1754.54,382.301L1742.39,382.301L1742.39,370.153ZM1726.19,467.34L1738.34,467.34L1738.34,479.488L1726.19,479.488L1726.19,467.34ZM1726.19,434.945L1738.34,434.945L1738.34,447.093L1726.19,447.093L1726.19,434.945ZM1726.19,370.153L1738.34,370.153L1738.34,382.301L1726.19,382.301L1726.19,370.153ZM1709.99,467.34L1722.14,467.34L1722.14,479.488L1709.99,479.488L1709.99,467.34ZM1709.99,434.945L1722.14,434.945L1722.14,447.093L1709.99,447.093L1709.99,434.945ZM1709.99,370.153L1722.14,370.153L1722.14,382.301L1709.99,382.301L1709.99,370.153ZM1693.8,426.845L1705.94,426.845L1705.94,438.993L1693.8,438.993L1693.8,426.845ZM1693.8,410.648L1705.94,410.648L1705.94,422.795L1693.8,422.795L1693.8,410.648ZM1693.8,394.449L1705.94,394.449L1705.94,406.598L1693.8,406.598L1693.8,394.449ZM1693.8,378.251L1705.94,378.251L1705.94,390.4L1693.8,390.4L1693.8,378.251Z"
   style="fill:rgb(35,31,32);fill-rule:nonzero;"
   id="path118" />
        <path
   d="M1823.38,426.845L1835.53,426.845L1835.53,438.993L1823.38,438.993L1823.38,426.845ZM1807.18,434.945L1819.33,434.945L1819.33,447.093L1807.18,447.093L1807.18,434.945ZM1807.18,370.153L1819.33,370.153L1819.33,382.301L1807.18,382.301L1807.18,370.153ZM1790.98,418.745L1803.13,418.745L1803.13,430.895L1790.98,430.895L1790.98,418.745ZM1790.98,402.548L1803.13,402.548L1803.13,414.697L1790.98,414.697L1790.98,402.548ZM1790.98,386.35L1803.13,386.35L1803.13,398.498L1790.98,398.498L1790.98,386.35ZM1790.98,370.153L1803.13,370.153L1803.13,382.301L1790.98,382.301L1790.98,370.153ZM1790.98,353.954L1803.13,353.954L1803.13,366.103L1790.98,366.103L1790.98,353.954ZM1790.98,337.756L1803.13,337.756L1803.13,349.905L1790.98,349.905L1790.98,337.756ZM1774.79,370.153L1786.93,370.153L1786.93,382.301L1774.79,382.301L1774.79,370.153Z"
   style="fill:rgb(35,31,32);fill-rule:nonzero;"
   id="path120" />
        <path
   d="M1933.19,418.596L1945.32,418.596L1945.32,430.722L1933.19,430.722L1933.19,418.596ZM1933.19,353.925L1945.32,353.925L1945.32,366.05L1933.19,366.05L1933.19,353.925ZM1917.02,402.428L1929.15,402.428L1929.15,414.554L1917.02,414.554L1917.02,402.428ZM1917.02,370.092L1929.15,370.092L1929.15,382.218L1917.02,382.218L1917.02,370.092ZM1900.86,386.26L1912.98,386.26L1912.98,398.386L1900.86,398.386L1900.86,386.26Z"
   style="fill:rgb(35,31,32);fill-rule:nonzero;"
   id="path122" />
        <path
   d="M2046.37,353.925L2058.49,353.925L2058.49,366.05L2046.37,366.05L2046.37,353.925ZM2030.2,370.092L2042.32,370.092L2042.32,382.218L2030.2,382.218L2030.2,370.092ZM2014.03,386.26L2026.16,386.26L2026.16,398.386L2014.03,398.386L2014.03,386.26ZM1997.86,402.428L2009.99,402.428L2009.99,414.554L1997.86,414.554L1997.86,402.428ZM1981.7,418.596L1993.82,418.596L1993.82,430.722L1981.7,430.722L1981.7,418.596ZM1965.53,434.764L1977.65,434.764L1977.65,446.89L1965.53,446.89L1965.53,434.764Z"
   style="fill:rgb(35,31,32);fill-rule:nonzero;"
   id="path124" />
        <path
   d="M2127.21,434.764L2139.33,434.764L2139.33,446.89L2127.21,446.89L2127.21,434.764ZM2127.21,418.596L2139.33,418.596L2139.33,430.722L2127.21,430.722L2127.21,418.596ZM2127.21,402.428L2139.33,402.428L2139.33,414.554L2127.21,414.554L2127.21,402.428ZM2127.21,386.26L2139.33,386.26L2139.33,398.386L2127.21,398.386L2127.21,386.26ZM2111.04,370.092L2123.16,370.092L2123.16,382.218L2111.04,382.218L2111.04,370.092ZM2094.87,370.092L2107,370.092L2107,382.218L2094.87,382.218L2094.87,370.092ZM2078.7,434.764L2090.83,434.764L2090.83,446.89L2078.7,446.89L2078.7,434.764ZM2078.7,418.596L2090.83,418.596L2090.83,430.722L2078.7,430.722L2078.7,418.596ZM2078.7,402.428L2090.83,402.428L2090.83,414.554L2078.7,414.554L2078.7,402.428ZM2078.7,386.26L2090.83,386.26L2090.83,398.386L2078.7,398.386L2078.7,386.26ZM2078.7,370.092L2090.83,370.092L2090.83,382.218L2078.7,382.218L2078.7,370.092ZM2078.7,353.925L2090.83,353.925L2090.83,366.05L2078.7,366.05L2078.7,353.925ZM2078.7,337.756L2090.83,337.756L2090.83,349.882L2078.7,349.882L2078.7,337.756Z"
   style="fill:rgb(35,31,32);fill-rule:nonzero;"
   id="path126" />
        <path
   d="M2224.21,434.764L2236.34,434.764L2236.34,446.89L2224.21,446.89L2224.21,434.764ZM2224.21,378.176L2236.34,378.176L2236.34,390.302L2224.21,390.302L2224.21,378.176ZM2224.21,362.008L2236.34,362.008L2236.34,374.135L2224.21,374.135L2224.21,362.008ZM2224.21,345.84L2236.34,345.84L2236.34,357.966L2224.21,357.966L2224.21,345.84ZM2208.05,434.764L2220.17,434.764L2220.17,446.89L2208.05,446.89L2208.05,434.764ZM2208.05,386.26L2220.17,386.26L2220.17,398.386L2208.05,398.386L2208.05,386.26ZM2208.05,337.756L2220.17,337.756L2220.17,349.882L2208.05,349.882L2208.05,337.756ZM2191.88,434.764L2204,434.764L2204,446.89L2191.88,446.89L2191.88,434.764ZM2191.88,386.26L2204,386.26L2204,398.386L2191.88,398.386L2191.88,386.26ZM2191.88,337.756L2204,337.756L2204,349.882L2191.88,349.882L2191.88,337.756ZM2175.71,434.764L2187.84,434.764L2187.84,446.89L2175.71,446.89L2175.71,434.764ZM2175.71,386.26L2187.84,386.26L2187.84,398.386L2175.71,398.386L2175.71,386.26ZM2175.71,337.756L2187.84,337.756L2187.84,349.882L2175.71,349.882L2175.71,337.756ZM2159.54,434.764L2171.67,434.764L2171.67,446.89L2159.54,446.89L2159.54,434.764ZM2159.54,418.596L2171.67,418.596L2171.67,430.722L2159.54,430.722L2159.54,418.596ZM2159.54,402.428L2171.67,402.428L2171.67,414.554L2159.54,414.554L2159.54,402.428ZM2159.54,345.84L2171.67,345.84L2171.67,357.966L2159.54,357.966L2159.54,345.84Z"
   style="fill:rgb(35,31,32);fill-rule:nonzero;"
   id="path128" />
        <path
   d="M2288.89,386.26L2301.01,386.26L2301.01,398.386L2288.89,398.386L2288.89,386.26ZM2272.72,402.428L2284.84,402.428L2284.84,414.554L2272.72,414.554L2272.72,402.428ZM2272.72,370.092L2284.84,370.092L2284.84,382.218L2272.72,382.218L2272.72,370.092ZM2256.55,418.596L2268.68,418.596L2268.68,430.722L2256.55,430.722L2256.55,418.596ZM2256.55,353.925L2268.68,353.925L2268.68,366.05L2256.55,366.05L2256.55,353.925Z"
   style="fill:rgb(35,31,32);fill-rule:nonzero;"
   id="path130" />
        <rect
   x="0.094"
   y="446.89"
   width="29.764"
   height="69.463"
   style="fill:rgb(35,31,32);fill-rule:nonzero;"
   id="rect132" />
    </g>
</svg>
