<?xml version="1.0" encoding="UTF-8" standalone="no"?>
<svg
   width="100%"
   height="100%"
   viewBox="0 0 10792 2855"
   version="1.1"
   xml:space="preserve"
   style="fill-rule:evenodd;clip-rule:evenodd;stroke-linejoin:round;stroke-miterlimit:2;"
   id="svg128"
   xmlns="http://www.w3.org/2000/svg"
   xmlns:svg="http://www.w3.org/2000/svg"><defs
   id="defs132" />
    <g
   transform="matrix(4.16667,0,0,4.16667,0,0)"
   id="g126">
        <path
   d="M2589.45,516.339L2589.45,565.944L0,565.944L0,526.26L99.212,526.26L99.212,486.574L69.448,486.574L69.448,456.811L0,456.811L0,397.283L198.425,397.283L198.425,367.52L228.189,367.52L228.189,337.756L257.953,337.756L257.953,307.992L2420.7,307.992L2420.7,268.307L2450.55,268.307L2450.55,238.543L2480.31,238.543L2480.31,208.779L2510.08,208.779L2510.08,169.094L2589.45,169.094L2589.45,451.371L2559.68,451.371L2559.68,516.339L2589.45,516.339Z"
   style="fill:rgb(5,180,141);fill-rule:nonzero;"
   id="body" />
        <rect
   x="2559.68"
   y="476.653"
   width="29.77"
   height="39.686"
   style="fill:rgb(35,31,32);fill-rule:nonzero;"
   id="rect4" />
        <rect
   x="2559.68"
   y="446.89"
   width="29.77"
   height="29.763"
   style="fill:rgb(35,31,32);fill-rule:nonzero;"
   id="rect6" />
        <path
   d="M2569.7,565.944L2569.52,605.63L49.523,605.63L49.523,565.944L2569.7,565.944Z"
   style="fill:rgb(255,207,39);fill-rule:nonzero;"
   id="path8" />
        <rect
   x="2480.31"
   y="169.094"
   width="29.77"
   height="39.685"
   style="fill:rgb(35,31,32);fill-rule:nonzero;"
   id="rect10" />
        <rect
   x="2450.55"
   y="208.779"
   width="29.76"
   height="29.764"
   style="fill:rgb(35,31,32);fill-rule:nonzero;"
   id="rect12" />
        
        <rect
   x="2420.79"
   y="238.543"
   width="29.76"
   height="29.764"
   style="fill:rgb(35,31,32);fill-rule:nonzero;"
   id="rect16" />
        
        
        <rect
   x="1190.47"
   y="119.488"
   width="39.77"
   height="148.819"
   style="fill:rgb(35,31,32);fill-rule:nonzero;"
   id="rect22" />
        
        <rect
   x="724.169"
   y="119.488"
   width="39.768"
   height="148.819"
   style="fill:rgb(35,31,32);fill-rule:nonzero;"
   id="rect26" />
        
        <path
   d="M297.638,119.488L1656.85,119.488L1656.85,268.307L297.638,268.307L297.638,119.488ZM1696.54,268.307L1696.54,119.488L2123.15,119.488L2123.15,268.307L1696.54,268.307ZM39.685,79.803L39.685,119.488L257.953,119.488L257.953,307.992L2420.79,307.992L2420.79,268.307L2162.84,268.307L2162.84,119.488L2480.28,119.466L2480.31,169.094L2589.45,169.094L2589.46,118.906L2589.46,79.519L2556.68,79.519L39.685,79.803Z"
   style="fill:rgb(35,31,32);fill-rule:nonzero;"
   id="path30" />
        
        <rect
   x="198.425"
   y="337.756"
   width="29.764"
   height="29.764"
   style="fill:rgb(35,31,32);fill-rule:nonzero;"
   id="rect34" />
        
        <path
   d="M0,367.52L198.425,367.52L198.425,397.283L0,397.283L0,367.52Z"
   style="fill:rgb(35,31,32);fill-rule:nonzero;"
   id="path38" />
        <path
   d="M545.669,40.118L545.669,0.433L79.37,0.433L79.37,40.131L39.685,40.131L39.685,79.803L2559.86,79.519L2559.86,40.131L545.669,40.118Z"
   style="fill:white;fill-rule:nonzero;"
   id="roof" />
        <rect
   x="0"
   y="79.803"
   width="39.685"
   height="39.685"
   style="fill:rgb(197,206,212);fill-rule:nonzero;"
   id="rect42" />
        <path
   d="M0,526.26L0,456.811L69.448,456.811L69.448,486.574L99.212,486.574L99.212,526.26L0,526.26Z"
   style="fill:rgb(197,206,212);fill-rule:nonzero;"
   id="path44" />
        <path
   id="windows"
   style="fill:#00aae5;fill-rule:nonzero"
   d="M 0,119.488 H 19.841999 V 367.52 H 0 Z m 59.527,0 h 69.449 V 367.52 H 59.527 Z m 198.426,0 v 188.504 h -29.764 v 29.764 h -29.764 v 39.685 H 168.661 V 119.488 Z m 466.216,-0.582 V 268.307 H 297.638 V 119.488 Z m 466.301,0.582 V 268.889 L 763.937,268.307 V 119.488 Z m 39.77,0 h 426.61 v 148.819 h -426.61 z m 466.3,0 h 426.61 v 148.819 h -426.61 z m 783.75,0.03 v 89.261 h -29.74 v 29.764 h -29.76 v 29.764 H 2162.84 V 119.518 Z" />
        <rect
   x="79.37"
   y="258.386"
   width="49.606"
   height="49.606"
   style="fill:rgb(255,207,39);fill-rule:nonzero;"
   id="rect48" />
        <path
   d="M168.661,119.488L168.661,377.441L128.976,367.52L128.976,119.488L168.661,119.488Z"
   style="fill:rgb(35,31,32);fill-rule:nonzero;"
   id="path50" />
        <path
   d="M59.527,119.488L59.527,367.52L19.842,367.52L19.842,119.488L59.527,119.488Z"
   style="fill:rgb(35,31,32);fill-rule:nonzero;"
   id="path52" />
        <rect
   x="29.763"
   y="198.858"
   width="29.764"
   height="99.212"
   style="fill:rgb(255,207,39);fill-rule:nonzero;"
   id="rect54" />
        <rect
   x="2381.1"
   y="571.862"
   width="23.11"
   height="32.824"
   style="fill:rgb(253,212,41);fill-rule:nonzero;"
   id="rect56" />
        <rect
   x="2341.42"
   y="565.944"
   width="39.68"
   height="39.686"
   style="fill:rgb(35,31,32);fill-rule:nonzero;"
   id="rect58" />
        <path
   d="M2341.42,565.944L2381.1,565.944L2381.1,605.63L2341.42,605.63L2341.42,565.944ZM2291.81,565.944L2291.81,605.63L2311.65,605.63L2311.65,635.394L2341.42,635.394L2341.42,655.236L2381.1,655.236L2381.1,635.394L2410.87,635.394L2410.87,605.63L2430.71,605.63L2430.71,565.944L2410.87,565.944L2410.87,536.181L2381.1,536.181L2381.1,516.339L2341.42,516.339L2341.42,536.181L2311.65,536.181L2311.65,565.944L2291.81,565.944Z"
   style="fill:rgb(255,207,39);fill-rule:nonzero;"
   id="path60" />
        <path
   d="M2291.81,565.944L2311.65,565.944L2311.65,536.181L2341.42,536.181L2341.42,516.339L2381.1,516.339L2381.1,536.181L2410.87,536.181L2410.87,565.944L2430.71,565.944L2430.71,605.63L2410.87,605.63L2410.87,635.394L2381.1,635.394L2381.1,655.236L2341.42,655.236L2341.42,635.394L2311.65,635.394L2311.65,605.63L2291.81,605.63L2291.81,565.944ZM2262.05,536.181L2262.05,635.394L2291.81,635.394L2291.81,655.236L2311.65,655.236L2311.65,685L2410.87,685L2410.87,655.236L2430.71,655.236L2430.71,635.394L2460.47,635.394L2460.47,536.181L2430.71,536.181L2430.71,516.339L2410.87,516.339L2410.87,486.574L2311.65,486.574L2311.65,516.339L2291.81,516.339L2291.81,536.181L2262.05,536.181Z"
   style="fill:rgb(35,31,32);fill-rule:nonzero;"
   id="path62" />
        <rect
   x="2083.47"
   y="565.944"
   width="39.68"
   height="39.686"
   style="fill:rgb(35,31,32);fill-rule:nonzero;"
   id="rect64" />
        <path
   d="M2083.47,565.944L2123.15,565.944L2123.15,605.63L2083.47,605.63L2083.47,565.944ZM2033.86,565.944L2033.86,605.63L2053.7,605.63L2053.7,635.394L2083.47,635.394L2083.47,655.236L2123.15,655.236L2123.15,635.394L2152.91,635.394L2152.91,605.63L2172.76,605.63L2172.76,565.944L2152.91,565.944L2152.91,536.181L2123.15,536.181L2123.15,516.339L2083.47,516.339L2083.47,536.181L2053.7,536.181L2053.7,565.944L2033.86,565.944Z"
   style="fill:rgb(255,207,39);fill-rule:nonzero;"
   id="path66" />
        <path
   d="M2033.86,565.944L2053.7,565.944L2053.7,536.181L2083.47,536.181L2083.47,516.339L2123.15,516.339L2123.15,536.181L2152.91,536.181L2152.91,565.944L2172.76,565.944L2172.76,605.63L2152.91,605.63L2152.91,635.394L2123.15,635.394L2123.15,655.236L2083.47,655.236L2083.47,635.394L2053.7,635.394L2053.7,605.63L2033.86,605.63L2033.86,565.944ZM2004.09,536.181L2004.09,635.394L2033.86,635.394L2033.86,655.236L2053.7,655.236L2053.7,685L2152.91,685L2152.91,655.236L2172.76,655.236L2172.76,635.394L2202.52,635.394L2202.52,536.181L2172.76,536.181L2172.76,516.339L2152.91,516.339L2152.91,486.574L2053.7,486.574L2053.7,516.339L2033.86,516.339L2033.86,536.181L2004.09,536.181Z"
   style="fill:rgb(35,31,32);fill-rule:nonzero;"
   id="path68" />
        <rect
   x="357.165"
   y="565.944"
   width="39.686"
   height="39.686"
   style="fill:rgb(35,31,32);fill-rule:nonzero;"
   id="rect70" />
        <path
   d="M357.165,565.944L396.851,565.944L396.851,605.63L357.165,605.63L357.165,565.944ZM307.559,565.944L307.559,605.63L327.402,605.63L327.402,635.394L357.165,635.394L357.165,655.236L396.851,655.236L396.851,635.394L426.614,635.394L426.614,605.63L446.457,605.63L446.457,565.944L426.614,565.944L426.614,536.181L396.851,536.181L396.851,516.339L357.165,516.339L357.165,536.181L327.402,536.181L327.402,565.944L307.559,565.944Z"
   style="fill:rgb(255,207,39);fill-rule:nonzero;"
   id="path72" />
        <path
   d="M307.559,565.944L327.402,565.944L327.402,536.181L357.165,536.181L357.165,516.339L396.851,516.339L396.851,536.181L426.614,536.181L426.614,565.944L446.457,565.944L446.457,605.63L426.614,605.63L426.614,635.394L396.851,635.394L396.851,655.236L357.165,655.236L357.165,635.394L327.402,635.394L327.402,605.63L307.559,605.63L307.559,565.944ZM277.796,536.181L277.796,635.394L307.559,635.394L307.559,655.236L327.402,655.236L327.402,685L426.614,685L426.614,655.236L446.457,655.236L446.457,635.394L476.221,635.394L476.221,536.181L446.457,536.181L446.457,516.339L426.614,516.339L426.614,486.574L327.402,486.574L327.402,516.339L307.559,516.339L307.559,536.181L277.796,536.181Z"
   style="fill:rgb(35,31,32);fill-rule:nonzero;"
   id="path74" />
        <rect
   x="1924.64"
   y="466.733"
   width="9.92"
   height="9.92"
   style="fill:rgb(35,31,32);fill-rule:nonzero;"
   id="rect76" />
        <rect
   x="228.106"
   y="307.992"
   width="29.764"
   height="29.764"
   style="fill:rgb(35,31,32);fill-rule:nonzero;"
   id="rect78" />
        <path
   d="M320.962,418.596L333.088,418.596L333.088,430.722L320.962,430.722L320.962,418.596ZM320.962,353.925L333.088,353.925L333.088,366.05L320.962,366.05L320.962,353.925ZM304.794,402.428L316.92,402.428L316.92,414.554L304.794,414.554L304.794,402.428ZM304.794,370.092L316.92,370.092L316.92,382.218L304.794,382.218L304.794,370.092ZM288.626,386.26L300.752,386.26L300.752,398.386L288.626,398.386L288.626,386.26Z"
   style="fill:rgb(35,31,32);fill-rule:nonzero;"
   id="path80" />
        <path
   d="M401.801,434.764L413.927,434.764L413.927,446.89L401.801,446.89L401.801,434.764ZM401.801,418.596L413.927,418.596L413.927,430.722L401.801,430.722L401.801,418.596ZM401.801,402.428L413.927,402.428L413.927,414.554L401.801,414.554L401.801,402.428ZM401.801,386.26L413.927,386.26L413.927,398.386L401.801,398.386L401.801,386.26ZM385.632,370.092L397.759,370.092L397.759,382.218L385.632,382.218L385.632,370.092ZM369.465,370.092L381.591,370.092L381.591,382.218L369.465,382.218L369.465,370.092ZM353.297,434.764L365.423,434.764L365.423,446.89L353.297,446.89L353.297,434.764ZM353.297,418.596L365.423,418.596L365.423,430.722L353.297,430.722L353.297,418.596ZM353.297,402.428L365.423,402.428L365.423,414.554L353.297,414.554L353.297,402.428ZM353.297,386.26L365.423,386.26L365.423,398.386L353.297,398.386L353.297,386.26ZM353.297,370.092L365.423,370.092L365.423,382.218L353.297,382.218L353.297,370.092ZM353.297,353.925L365.423,353.925L365.423,366.05L353.297,366.05L353.297,353.925ZM353.297,337.756L365.423,337.756L365.423,349.882L353.297,349.882L353.297,337.756Z"
   style="fill:rgb(35,31,32);fill-rule:nonzero;"
   id="path82" />
        <path
   d="M498.809,434.764L510.934,434.764L510.934,446.89L498.809,446.89L498.809,434.764ZM498.809,378.176L510.934,378.176L510.934,390.302L498.809,390.302L498.809,378.176ZM498.809,362.008L510.934,362.008L510.934,374.135L498.809,374.135L498.809,362.008ZM498.809,345.84L510.934,345.84L510.934,357.966L498.809,357.966L498.809,345.84ZM482.641,434.764L494.766,434.764L494.766,446.89L482.641,446.89L482.641,434.764ZM482.641,386.26L494.766,386.26L494.766,398.386L482.641,398.386L482.641,386.26ZM482.641,337.756L494.766,337.756L494.766,349.882L482.641,349.882L482.641,337.756ZM466.472,434.764L478.599,434.764L478.599,446.89L466.472,446.89L466.472,434.764ZM466.472,386.26L478.599,386.26L478.599,398.386L466.472,398.386L466.472,386.26ZM466.472,337.756L478.599,337.756L478.599,349.882L466.472,349.882L466.472,337.756ZM450.304,434.764L462.431,434.764L462.431,446.89L450.304,446.89L450.304,434.764ZM450.304,386.26L462.431,386.26L462.431,398.386L450.304,398.386L450.304,386.26ZM450.304,337.756L462.431,337.756L462.431,349.882L450.304,349.882L450.304,337.756ZM434.137,434.764L446.262,434.764L446.262,446.89L434.137,446.89L434.137,434.764ZM434.137,418.596L446.262,418.596L446.262,430.722L434.137,430.722L434.137,418.596ZM434.137,402.428L446.262,402.428L446.262,414.554L434.137,414.554L434.137,402.428ZM434.137,345.84L446.262,345.84L446.262,357.966L434.137,357.966L434.137,345.84Z"
   style="fill:rgb(35,31,32);fill-rule:nonzero;"
   id="path84" />
        <path
   d="M563.48,386.26L575.606,386.26L575.606,398.386L563.48,398.386L563.48,386.26ZM547.312,402.428L559.438,402.428L559.438,414.554L547.312,414.554L547.312,402.428ZM547.312,370.092L559.438,370.092L559.438,382.218L547.312,382.218L547.312,370.092ZM531.144,418.596L543.27,418.596L543.27,430.722L531.144,430.722L531.144,418.596ZM531.144,353.925L543.27,353.925L543.27,366.05L531.144,366.05L531.144,353.925Z"
   style="fill:rgb(35,31,32);fill-rule:nonzero;"
   id="path86" />
        <path
   d="M718.075,426.845L730.224,426.845L730.224,438.993L718.075,438.993L718.075,426.845ZM718.075,410.648L730.224,410.648L730.224,422.795L718.075,422.795L718.075,410.648ZM718.075,394.449L730.224,394.449L730.224,406.598L718.075,406.598L718.075,394.449ZM718.075,378.251L730.224,378.251L730.224,390.4L718.075,390.4L718.075,378.251ZM718.075,362.053L730.224,362.053L730.224,374.202L718.075,374.202L718.075,362.053ZM718.075,345.856L730.224,345.856L730.224,358.003L718.075,358.003L718.075,345.856ZM701.877,434.945L714.026,434.945L714.026,447.093L701.877,447.093L701.877,434.945ZM701.877,337.756L714.026,337.756L714.026,349.905L701.877,349.905L701.877,337.756ZM685.679,434.945L697.828,434.945L697.828,447.093L685.679,447.093L685.679,434.945ZM685.679,337.756L697.828,337.756L697.828,349.905L685.679,349.905L685.679,337.756ZM669.481,434.945L681.63,434.945L681.63,447.093L669.481,447.093L669.481,434.945ZM669.481,337.756L681.63,337.756L681.63,349.905L669.481,349.905L669.481,337.756ZM653.283,426.845L665.431,426.845L665.431,438.993L653.283,438.993L653.283,426.845ZM653.283,410.648L665.431,410.648L665.431,422.795L653.283,422.795L653.283,410.648ZM653.283,394.449L665.431,394.449L665.431,406.598L653.283,406.598L653.283,394.449ZM653.283,378.251L665.431,378.251L665.431,390.4L653.283,390.4L653.283,378.251ZM653.283,362.053L665.431,362.053L665.431,374.202L653.283,374.202L653.283,362.053ZM653.283,345.856L665.431,345.856L665.431,358.003L653.283,358.003L653.283,345.856Z"
   style="fill:rgb(35,31,32);fill-rule:nonzero;"
   id="path88" />
        <path
   d="M799.066,426.845L811.213,426.845L811.213,438.993L799.066,438.993L799.066,426.845ZM799.066,410.648L811.213,410.648L811.213,422.795L799.066,422.795L799.066,410.648ZM799.066,394.449L811.213,394.449L811.213,406.598L799.066,406.598L799.066,394.449ZM799.066,378.251L811.213,378.251L811.213,390.4L799.066,390.4L799.066,378.251ZM782.866,434.945L795.016,434.945L795.016,447.093L782.866,447.093L782.866,434.945ZM782.866,370.153L795.016,370.153L795.016,382.301L782.866,382.301L782.866,370.153ZM766.668,434.945L778.818,434.945L778.818,447.093L766.668,447.093L766.668,434.945ZM766.668,370.153L778.818,370.153L778.818,382.301L766.668,382.301L766.668,370.153ZM750.471,467.34L762.619,467.34L762.619,479.488L750.471,479.488L750.471,467.34ZM750.471,451.143L762.619,451.143L762.619,463.29L750.471,463.29L750.471,451.143ZM750.471,434.945L762.619,434.945L762.619,447.093L750.471,447.093L750.471,434.945ZM750.471,418.745L762.619,418.745L762.619,430.895L750.471,430.895L750.471,418.745ZM750.471,402.548L762.619,402.548L762.619,414.697L750.471,414.697L750.471,402.548ZM750.471,386.35L762.619,386.35L762.619,398.498L750.471,398.498L750.471,386.35ZM750.471,370.153L762.619,370.153L762.619,382.301L750.471,382.301L750.471,370.153Z"
   style="fill:rgb(35,31,32);fill-rule:nonzero;"
   id="path90" />
        <path
   d="M880.055,426.845L892.203,426.845L892.203,438.993L880.055,438.993L880.055,426.845ZM880.055,394.449L892.203,394.449L892.203,406.598L880.055,406.598L880.055,394.449ZM880.055,378.251L892.203,378.251L892.203,390.4L880.055,390.4L880.055,378.251ZM863.857,434.945L876.005,434.945L876.005,447.093L863.857,447.093L863.857,434.945ZM863.857,402.548L876.005,402.548L876.005,414.697L863.857,414.697L863.857,402.548ZM863.857,370.153L876.005,370.153L876.005,382.301L863.857,382.301L863.857,370.153ZM847.658,434.945L859.808,434.945L859.808,447.093L847.658,447.093L847.658,434.945ZM847.658,402.548L859.808,402.548L859.808,414.697L847.658,414.697L847.658,402.548ZM847.658,370.153L859.808,370.153L859.808,382.301L847.658,382.301L847.658,370.153ZM831.461,426.845L843.609,426.845L843.609,438.993L831.461,438.993L831.461,426.845ZM831.461,410.648L843.609,410.648L843.609,422.795L831.461,422.795L831.461,410.648ZM831.461,394.449L843.609,394.449L843.609,406.598L831.461,406.598L831.461,394.449ZM831.461,378.251L843.609,378.251L843.609,390.4L831.461,390.4L831.461,378.251Z"
   style="fill:rgb(35,31,32);fill-rule:nonzero;"
   id="path92" />
        <path
   d="M961.045,434.945L973.193,434.945L973.193,447.093L961.045,447.093L961.045,434.945ZM961.045,418.745L973.193,418.745L973.193,430.895L961.045,430.895L961.045,418.745ZM961.045,402.548L973.193,402.548L973.193,414.697L961.045,414.697L961.045,402.548ZM961.045,386.35L973.193,386.35L973.193,398.498L961.045,398.498L961.045,386.35ZM944.846,370.153L956.995,370.153L956.995,382.301L944.846,382.301L944.846,370.153ZM928.649,378.251L940.797,378.251L940.797,390.4L928.649,390.4L928.649,378.251ZM912.45,434.945L924.599,434.945L924.599,447.093L912.45,447.093L912.45,434.945ZM912.45,418.745L924.599,418.745L924.599,430.895L912.45,430.895L912.45,418.745ZM912.45,402.548L924.599,402.548L924.599,414.697L912.45,414.697L912.45,402.548ZM912.45,386.35L924.599,386.35L924.599,398.498L912.45,398.498L912.45,386.35ZM912.45,370.153L924.599,370.153L924.599,382.301L912.45,382.301L912.45,370.153Z"
   style="fill:rgb(35,31,32);fill-rule:nonzero;"
   id="path94" />
        <path
   d="M1135.24,426.68L1147.37,426.68L1147.37,438.806L1135.24,438.806L1135.24,426.68ZM1135.24,410.512L1147.37,410.512L1147.37,422.638L1135.24,422.638L1135.24,410.512ZM1135.24,394.344L1147.37,394.344L1147.37,406.47L1135.24,406.47L1135.24,394.344ZM1135.24,378.176L1147.37,378.176L1147.37,390.302L1135.24,390.302L1135.24,378.176ZM1135.24,362.008L1147.37,362.008L1147.37,374.135L1135.24,374.135L1135.24,362.008ZM1135.24,345.84L1147.37,345.84L1147.37,357.966L1135.24,357.966L1135.24,345.84ZM1119.07,434.764L1131.2,434.764L1131.2,446.89L1119.07,446.89L1119.07,434.764ZM1119.07,337.756L1131.2,337.756L1131.2,349.882L1119.07,349.882L1119.07,337.756ZM1102.91,434.764L1115.03,434.764L1115.03,446.89L1102.91,446.89L1102.91,434.764ZM1102.91,337.756L1115.03,337.756L1115.03,349.882L1102.91,349.882L1102.91,337.756ZM1086.74,434.764L1098.86,434.764L1098.86,446.89L1086.74,446.89L1086.74,434.764ZM1086.74,337.756L1098.86,337.756L1098.86,349.882L1086.74,349.882L1086.74,337.756ZM1070.57,434.764L1082.7,434.764L1082.7,446.89L1070.57,446.89L1070.57,434.764ZM1070.57,418.596L1082.7,418.596L1082.7,430.722L1070.57,430.722L1070.57,418.596ZM1070.57,402.428L1082.7,402.428L1082.7,414.554L1070.57,414.554L1070.57,402.428ZM1070.57,386.26L1082.7,386.26L1082.7,398.386L1070.57,398.386L1070.57,386.26ZM1070.57,370.092L1082.7,370.092L1082.7,382.218L1070.57,382.218L1070.57,370.092ZM1070.57,353.925L1082.7,353.925L1082.7,366.05L1070.57,366.05L1070.57,353.925ZM1070.57,337.756L1082.7,337.756L1082.7,349.882L1070.57,349.882L1070.57,337.756Z"
   style="fill:rgb(35,31,32);fill-rule:nonzero;"
   id="path96" />
        <path
   d="M1216.08,426.68L1228.21,426.68L1228.21,438.806L1216.08,438.806L1216.08,426.68ZM1216.08,410.512L1228.21,410.512L1228.21,422.638L1216.08,422.638L1216.08,410.512ZM1216.08,394.344L1228.21,394.344L1228.21,406.47L1216.08,406.47L1216.08,394.344ZM1216.08,378.176L1228.21,378.176L1228.21,390.302L1216.08,390.302L1216.08,378.176ZM1199.91,434.764L1212.04,434.764L1212.04,446.89L1199.91,446.89L1199.91,434.764ZM1199.91,402.428L1212.04,402.428L1212.04,414.554L1199.91,414.554L1199.91,402.428ZM1199.91,370.092L1212.04,370.092L1212.04,382.218L1199.91,382.218L1199.91,370.092ZM1183.74,434.764L1195.87,434.764L1195.87,446.89L1183.74,446.89L1183.74,434.764ZM1183.74,402.428L1195.87,402.428L1195.87,414.554L1183.74,414.554L1183.74,402.428ZM1183.74,370.092L1195.87,370.092L1195.87,382.218L1183.74,382.218L1183.74,370.092ZM1167.58,426.68L1179.7,426.68L1179.7,438.806L1167.58,438.806L1167.58,426.68ZM1167.58,410.512L1179.7,410.512L1179.7,422.638L1167.58,422.638L1167.58,410.512ZM1167.58,378.176L1179.7,378.176L1179.7,390.302L1167.58,390.302L1167.58,378.176Z"
   style="fill:rgb(35,31,32);fill-rule:nonzero;"
   id="path98" />
        <path
   d="M1296.92,426.68L1309.05,426.68L1309.05,438.806L1296.92,438.806L1296.92,426.68ZM1280.75,434.764L1292.88,434.764L1292.88,446.89L1280.75,446.89L1280.75,434.764ZM1280.75,370.092L1292.88,370.092L1292.88,382.218L1280.75,382.218L1280.75,370.092ZM1264.58,418.596L1276.71,418.596L1276.71,430.722L1264.58,430.722L1264.58,418.596ZM1264.58,402.428L1276.71,402.428L1276.71,414.554L1264.58,414.554L1264.58,402.428ZM1264.58,386.26L1276.71,386.26L1276.71,398.386L1264.58,398.386L1264.58,386.26ZM1264.58,370.092L1276.71,370.092L1276.71,382.218L1264.58,382.218L1264.58,370.092ZM1264.58,353.925L1276.71,353.925L1276.71,366.05L1264.58,366.05L1264.58,353.925ZM1264.58,337.756L1276.71,337.756L1276.71,349.882L1264.58,349.882L1264.58,337.756ZM1248.42,370.092L1260.54,370.092L1260.54,382.218L1248.42,382.218L1248.42,370.092Z"
   style="fill:rgb(35,31,32);fill-rule:nonzero;"
   id="path100" />
        <path
   d="M1377.76,426.68L1389.89,426.68L1389.89,438.806L1377.76,438.806L1377.76,426.68ZM1377.76,410.512L1389.89,410.512L1389.89,422.638L1377.76,422.638L1377.76,410.512ZM1377.76,394.344L1389.89,394.344L1389.89,406.47L1377.76,406.47L1377.76,394.344ZM1377.76,378.176L1389.89,378.176L1389.89,390.302L1377.76,390.302L1377.76,378.176ZM1361.59,434.764L1373.72,434.764L1373.72,446.89L1361.59,446.89L1361.59,434.764ZM1361.59,402.428L1373.72,402.428L1373.72,414.554L1361.59,414.554L1361.59,402.428ZM1361.59,370.092L1373.72,370.092L1373.72,382.218L1361.59,382.218L1361.59,370.092ZM1345.42,434.764L1357.55,434.764L1357.55,446.89L1345.42,446.89L1345.42,434.764ZM1345.42,402.428L1357.55,402.428L1357.55,414.554L1345.42,414.554L1345.42,402.428ZM1345.42,370.092L1357.55,370.092L1357.55,382.218L1345.42,382.218L1345.42,370.092ZM1329.26,426.68L1341.38,426.68L1341.38,438.806L1329.26,438.806L1329.26,426.68ZM1329.26,410.512L1341.38,410.512L1341.38,422.638L1329.26,422.638L1329.26,410.512ZM1329.26,378.176L1341.38,378.176L1341.38,390.302L1329.26,390.302L1329.26,378.176Z"
   style="fill:rgb(35,31,32);fill-rule:nonzero;"
   id="path102" />
        <path
   d="M1522.1,426.845L1534.25,426.845L1534.25,438.993L1522.1,438.993L1522.1,426.845ZM1522.1,410.648L1534.25,410.648L1534.25,422.795L1522.1,422.795L1522.1,410.648ZM1522.1,394.449L1534.25,394.449L1534.25,406.598L1522.1,406.598L1522.1,394.449ZM1522.1,378.251L1534.25,378.251L1534.25,390.4L1522.1,390.4L1522.1,378.251ZM1505.9,434.945L1518.05,434.945L1518.05,447.093L1505.9,447.093L1505.9,434.945ZM1505.9,370.153L1518.05,370.153L1518.05,382.301L1505.9,382.301L1505.9,370.153ZM1489.71,434.945L1501.85,434.945L1501.85,447.093L1489.71,447.093L1489.71,434.945ZM1489.71,370.153L1501.85,370.153L1501.85,382.301L1489.71,382.301L1489.71,370.153ZM1473.51,434.945L1485.66,434.945L1485.66,447.093L1473.51,447.093L1473.51,434.945ZM1473.51,418.745L1485.66,418.745L1485.66,430.895L1473.51,430.895L1473.51,418.745ZM1473.51,402.548L1485.66,402.548L1485.66,414.697L1473.51,414.697L1473.51,402.548ZM1473.51,386.35L1485.66,386.35L1485.66,398.498L1473.51,398.498L1473.51,386.35ZM1473.51,370.153L1485.66,370.153L1485.66,382.301L1473.51,382.301L1473.51,370.153ZM1473.51,353.954L1485.66,353.954L1485.66,366.103L1473.51,366.103L1473.51,353.954ZM1473.51,337.756L1485.66,337.756L1485.66,349.905L1473.51,349.905L1473.51,337.756Z"
   style="fill:rgb(35,31,32);fill-rule:nonzero;"
   id="path104" />
        <path
   d="M1603.09,426.845L1615.24,426.845L1615.24,438.993L1603.09,438.993L1603.09,426.845ZM1603.09,394.449L1615.24,394.449L1615.24,406.598L1603.09,406.598L1603.09,394.449ZM1603.09,378.251L1615.24,378.251L1615.24,390.4L1603.09,390.4L1603.09,378.251ZM1586.89,434.945L1599.04,434.945L1599.04,447.093L1586.89,447.093L1586.89,434.945ZM1586.89,402.548L1599.04,402.548L1599.04,414.697L1586.89,414.697L1586.89,402.548ZM1586.89,370.153L1599.04,370.153L1599.04,382.301L1586.89,382.301L1586.89,370.153ZM1570.7,434.945L1582.84,434.945L1582.84,447.093L1570.7,447.093L1570.7,434.945ZM1570.7,402.548L1582.84,402.548L1582.84,414.697L1570.7,414.697L1570.7,402.548ZM1570.7,370.153L1582.84,370.153L1582.84,382.301L1570.7,382.301L1570.7,370.153ZM1554.5,426.845L1566.65,426.845L1566.65,438.993L1554.5,438.993L1554.5,426.845ZM1554.5,410.648L1566.65,410.648L1566.65,422.795L1554.5,422.795L1554.5,410.648ZM1554.5,394.449L1566.65,394.449L1566.65,406.598L1554.5,406.598L1554.5,394.449ZM1554.5,378.251L1566.65,378.251L1566.65,390.4L1554.5,390.4L1554.5,378.251Z"
   style="fill:rgb(35,31,32);fill-rule:nonzero;"
   id="path106" />
        <path
   d="M1700.28,418.745L1712.43,418.745L1712.43,430.895L1700.28,430.895L1700.28,418.745ZM1700.28,402.548L1712.43,402.548L1712.43,414.697L1700.28,414.697L1700.28,402.548ZM1700.28,386.35L1712.43,386.35L1712.43,398.498L1700.28,398.498L1700.28,386.35ZM1700.28,370.153L1712.43,370.153L1712.43,382.301L1700.28,382.301L1700.28,370.153ZM1684.08,434.945L1696.23,434.945L1696.23,447.093L1684.08,447.093L1684.08,434.945ZM1667.88,426.845L1680.03,426.845L1680.03,438.993L1667.88,438.993L1667.88,426.845ZM1667.88,410.648L1680.03,410.648L1680.03,422.795L1667.88,422.795L1667.88,410.648ZM1667.88,394.449L1680.03,394.449L1680.03,406.598L1667.88,406.598L1667.88,394.449ZM1651.69,434.945L1663.84,434.945L1663.84,447.093L1651.69,447.093L1651.69,434.945ZM1635.49,418.745L1647.64,418.745L1647.64,430.895L1635.49,430.895L1635.49,418.745ZM1635.49,402.548L1647.64,402.548L1647.64,414.697L1635.49,414.697L1635.49,402.548ZM1635.49,386.35L1647.64,386.35L1647.64,398.498L1635.49,398.498L1635.49,386.35ZM1635.49,370.153L1647.64,370.153L1647.64,382.301L1635.49,382.301L1635.49,370.153Z"
   style="fill:rgb(35,31,32);fill-rule:nonzero;"
   id="path108" />
        <path
   d="M1781.27,426.845L1793.42,426.845L1793.42,438.993L1781.27,438.993L1781.27,426.845ZM1781.27,394.449L1793.42,394.449L1793.42,406.598L1781.27,406.598L1781.27,394.449ZM1781.27,378.251L1793.42,378.251L1793.42,390.4L1781.27,390.4L1781.27,378.251ZM1765.07,434.945L1777.22,434.945L1777.22,447.093L1765.07,447.093L1765.07,434.945ZM1765.07,402.548L1777.22,402.548L1777.22,414.697L1765.07,414.697L1765.07,402.548ZM1765.07,370.153L1777.22,370.153L1777.22,382.301L1765.07,382.301L1765.07,370.153ZM1748.87,434.945L1761.02,434.945L1761.02,447.093L1748.87,447.093L1748.87,434.945ZM1748.87,402.548L1761.02,402.548L1761.02,414.697L1748.87,414.697L1748.87,402.548ZM1748.87,370.153L1761.02,370.153L1761.02,382.301L1748.87,382.301L1748.87,370.153ZM1732.68,426.845L1744.82,426.845L1744.82,438.993L1732.68,438.993L1732.68,426.845ZM1732.68,410.648L1744.82,410.648L1744.82,422.795L1732.68,422.795L1732.68,410.648ZM1732.68,394.449L1744.82,394.449L1744.82,406.598L1732.68,406.598L1732.68,394.449ZM1732.68,378.251L1744.82,378.251L1744.82,390.4L1732.68,390.4L1732.68,378.251Z"
   style="fill:rgb(35,31,32);fill-rule:nonzero;"
   id="path110" />
        <path
   d="M1862.26,451.143L1874.41,451.143L1874.41,463.29L1862.26,463.29L1862.26,451.143ZM1862.26,434.945L1874.41,434.945L1874.41,447.093L1862.26,447.093L1862.26,434.945ZM1862.26,418.745L1874.41,418.745L1874.41,430.895L1862.26,430.895L1862.26,418.745ZM1862.26,402.548L1874.41,402.548L1874.41,414.697L1862.26,414.697L1862.26,402.548ZM1862.26,386.35L1874.41,386.35L1874.41,398.498L1862.26,398.498L1862.26,386.35ZM1862.26,370.153L1874.41,370.153L1874.41,382.301L1862.26,382.301L1862.26,370.153ZM1846.06,467.34L1858.21,467.34L1858.21,479.488L1846.06,479.488L1846.06,467.34ZM1846.06,434.945L1858.21,434.945L1858.21,447.093L1846.06,447.093L1846.06,434.945ZM1846.06,370.153L1858.21,370.153L1858.21,382.301L1846.06,382.301L1846.06,370.153ZM1829.86,467.34L1842.01,467.34L1842.01,479.488L1829.86,479.488L1829.86,467.34ZM1829.86,434.945L1842.01,434.945L1842.01,447.093L1829.86,447.093L1829.86,434.945ZM1829.86,370.153L1842.01,370.153L1842.01,382.301L1829.86,382.301L1829.86,370.153ZM1813.67,426.845L1825.81,426.845L1825.81,438.993L1813.67,438.993L1813.67,426.845ZM1813.67,410.648L1825.81,410.648L1825.81,422.795L1813.67,422.795L1813.67,410.648ZM1813.67,394.449L1825.81,394.449L1825.81,406.598L1813.67,406.598L1813.67,394.449ZM1813.67,378.251L1825.81,378.251L1825.81,390.4L1813.67,390.4L1813.67,378.251Z"
   style="fill:rgb(35,31,32);fill-rule:nonzero;"
   id="path112" />
        <path
   d="M1943.25,426.845L1955.4,426.845L1955.4,438.993L1943.25,438.993L1943.25,426.845ZM1927.05,434.945L1939.2,434.945L1939.2,447.093L1927.05,447.093L1927.05,434.945ZM1927.05,370.153L1939.2,370.153L1939.2,382.301L1927.05,382.301L1927.05,370.153ZM1910.85,418.745L1923,418.745L1923,430.895L1910.85,430.895L1910.85,418.745ZM1910.85,402.548L1923,402.548L1923,414.697L1910.85,414.697L1910.85,402.548ZM1910.85,386.35L1923,386.35L1923,398.498L1910.85,398.498L1910.85,386.35ZM1910.85,370.153L1923,370.153L1923,382.301L1910.85,382.301L1910.85,370.153ZM1910.85,353.954L1923,353.954L1923,366.103L1910.85,366.103L1910.85,353.954ZM1910.85,337.756L1923,337.756L1923,349.905L1910.85,349.905L1910.85,337.756ZM1894.66,370.153L1906.8,370.153L1906.8,382.301L1894.66,382.301L1894.66,370.153Z"
   style="fill:rgb(35,31,32);fill-rule:nonzero;"
   id="path114" />
        <path
   d="M2053.06,418.596L2065.19,418.596L2065.19,430.722L2053.06,430.722L2053.06,418.596ZM2053.06,353.925L2065.19,353.925L2065.19,366.05L2053.06,366.05L2053.06,353.925ZM2036.89,402.428L2049.02,402.428L2049.02,414.554L2036.89,414.554L2036.89,402.428ZM2036.89,370.092L2049.02,370.092L2049.02,382.218L2036.89,382.218L2036.89,370.092ZM2020.73,386.26L2032.85,386.26L2032.85,398.386L2020.73,398.386L2020.73,386.26Z"
   style="fill:rgb(35,31,32);fill-rule:nonzero;"
   id="path116" />
        <path
   d="M2166.24,353.925L2178.36,353.925L2178.36,366.05L2166.24,366.05L2166.24,353.925ZM2150.07,370.092L2162.2,370.092L2162.2,382.218L2150.07,382.218L2150.07,370.092ZM2133.9,386.26L2146.03,386.26L2146.03,398.386L2133.9,398.386L2133.9,386.26ZM2117.73,402.428L2129.86,402.428L2129.86,414.554L2117.73,414.554L2117.73,402.428ZM2101.57,418.596L2113.69,418.596L2113.69,430.722L2101.57,430.722L2101.57,418.596ZM2085.4,434.764L2097.52,434.764L2097.52,446.89L2085.4,446.89L2085.4,434.764Z"
   style="fill:rgb(35,31,32);fill-rule:nonzero;"
   id="path118" />
        <path
   d="M2247.08,434.764L2259.2,434.764L2259.2,446.89L2247.08,446.89L2247.08,434.764ZM2247.08,418.596L2259.2,418.596L2259.2,430.722L2247.08,430.722L2247.08,418.596ZM2247.08,402.428L2259.2,402.428L2259.2,414.554L2247.08,414.554L2247.08,402.428ZM2247.08,386.26L2259.2,386.26L2259.2,398.386L2247.08,398.386L2247.08,386.26ZM2230.91,370.092L2243.03,370.092L2243.03,382.218L2230.91,382.218L2230.91,370.092ZM2214.74,370.092L2226.87,370.092L2226.87,382.218L2214.74,382.218L2214.74,370.092ZM2198.57,434.764L2210.7,434.764L2210.7,446.89L2198.57,446.89L2198.57,434.764ZM2198.57,418.596L2210.7,418.596L2210.7,430.722L2198.57,430.722L2198.57,418.596ZM2198.57,402.428L2210.7,402.428L2210.7,414.554L2198.57,414.554L2198.57,402.428ZM2198.57,386.26L2210.7,386.26L2210.7,398.386L2198.57,398.386L2198.57,386.26ZM2198.57,370.092L2210.7,370.092L2210.7,382.218L2198.57,382.218L2198.57,370.092ZM2198.57,353.925L2210.7,353.925L2210.7,366.05L2198.57,366.05L2198.57,353.925ZM2198.57,337.756L2210.7,337.756L2210.7,349.882L2198.57,349.882L2198.57,337.756Z"
   style="fill:rgb(35,31,32);fill-rule:nonzero;"
   id="path120" />
        <path
   d="M2344.08,434.764L2356.21,434.764L2356.21,446.89L2344.08,446.89L2344.08,434.764ZM2344.08,378.176L2356.21,378.176L2356.21,390.302L2344.08,390.302L2344.08,378.176ZM2344.08,362.008L2356.21,362.008L2356.21,374.135L2344.08,374.135L2344.08,362.008ZM2344.08,345.84L2356.21,345.84L2356.21,357.966L2344.08,357.966L2344.08,345.84ZM2327.92,434.764L2340.04,434.764L2340.04,446.89L2327.92,446.89L2327.92,434.764ZM2327.92,386.26L2340.04,386.26L2340.04,398.386L2327.92,398.386L2327.92,386.26ZM2327.92,337.756L2340.04,337.756L2340.04,349.882L2327.92,349.882L2327.92,337.756ZM2311.75,434.764L2323.87,434.764L2323.87,446.89L2311.75,446.89L2311.75,434.764ZM2311.75,386.26L2323.87,386.26L2323.87,398.386L2311.75,398.386L2311.75,386.26ZM2311.75,337.756L2323.87,337.756L2323.87,349.882L2311.75,349.882L2311.75,337.756ZM2295.58,434.764L2307.71,434.764L2307.71,446.89L2295.58,446.89L2295.58,434.764ZM2295.58,386.26L2307.71,386.26L2307.71,398.386L2295.58,398.386L2295.58,386.26ZM2295.58,337.756L2307.71,337.756L2307.71,349.882L2295.58,349.882L2295.58,337.756ZM2279.41,434.764L2291.54,434.764L2291.54,446.89L2279.41,446.89L2279.41,434.764ZM2279.41,418.596L2291.54,418.596L2291.54,430.722L2279.41,430.722L2279.41,418.596ZM2279.41,402.428L2291.54,402.428L2291.54,414.554L2279.41,414.554L2279.41,402.428ZM2279.41,345.84L2291.54,345.84L2291.54,357.966L2279.41,357.966L2279.41,345.84Z"
   style="fill:rgb(35,31,32);fill-rule:nonzero;"
   id="path122" />
        <path
   d="M2408.76,386.26L2420.88,386.26L2420.88,398.386L2408.76,398.386L2408.76,386.26ZM2392.59,402.428L2404.71,402.428L2404.71,414.554L2392.59,414.554L2392.59,402.428ZM2392.59,370.092L2404.71,370.092L2404.71,382.218L2392.59,382.218L2392.59,370.092ZM2376.42,418.596L2388.55,418.596L2388.55,430.722L2376.42,430.722L2376.42,418.596ZM2376.42,353.925L2388.55,353.925L2388.55,366.05L2376.42,366.05L2376.42,353.925Z"
   style="fill:rgb(35,31,32);fill-rule:nonzero;"
   id="path124" />
    </g>
</svg>
