<?xml version="1.0" encoding="UTF-8" standalone="no"?>
<!-- Created with Inkscape (http://www.inkscape.org/) -->

<svg
   width="40mm"
   height="22mm"
   viewBox="0 0 40 22"
   version="1.1"
   id="svg366"
   xmlns="http://www.w3.org/2000/svg"
   xmlns:svg="http://www.w3.org/2000/svg">
  <defs
     id="defs363" />
  <g
     id="layer1">
    <polygon
       class="st1"
       points="222.25,10.5 217,10.5 217,15.75 197.75,15.75 197.75,10.5 192.5,10.5 192.5,5.25 187.25,5.25 187.25,10.5 182,10.5 182,15.75 176.75,15.75 176.75,42 182,42 182,47.25 187.25,47.25 187.25,52.5 192.5,52.5 192.5,57.75 213.5,57.75 213.5,75.25 221.38,75.25 221.38,64.75 238.88,64.75 238.88,75.25 246.75,75.25 246.75,64.75 275.62,64.75 275.62,75.25 283.5,75.25 283.5,64.75 294,64.75 294,56 283.5,56 283.5,33.25 296.62,33.25 296.62,28 301.88,28 301.88,22.75 307.12,22.75 307.12,17.5 312.38,17.5 312.38,5.25 301.88,5.25 301.88,10.5 296.62,10.5 296.62,15.75 291.38,15.75 291.38,21 238,21 238,15.75 232.75,15.75 232.75,10.5 227.5,10.5 227.5,5.25 222.25,5.25 "
       id="polygon40"
       style="fill:#ffd003"
       transform="matrix(0.27329187,0,0,0.27329187,-46.869556,-2.0158407e-6)" />
    <rect
       x="4.6459541"
       y="7.3105526"
       width="1.0931674"
       height="1.3664594"
       id="rect42"
       style="stroke-width:0.273292" />
    <rect
       x="4.6459541"
       y="8.6770163"
       width="1.0931674"
       height="1.0931674"
       id="rect44"
       style="stroke-width:0.273292" />
    <rect
       x="13.937895"
       y="8.6770163"
       class="st2"
       width="1.3664594"
       height="1.0931674"
       id="rect46"
       style="fill:#5dea48;stroke-width:0.273292" />
    <rect
       x="1.4347723"
       y="2.8695543"
       width="1.4347824"
       height="1.4347824"
       id="rect48"
       style="stroke-width:0.273292" />
    <rect
       x="5.7391396"
       y="1.4347808"
       width="1.4347824"
       height="1.4347824"
       id="rect50"
       style="stroke-width:0.273292" />
    <rect
       x="2.86956"
       y="1.4347808"
       width="1.4347824"
       height="1.4347824"
       id="rect52"
       style="stroke-width:0.273292" />
    <rect
       x="7.1739278"
       y="2.8695543"
       width="5.2608685"
       height="1.4347824"
       id="rect54"
       style="stroke-width:0.273292" />
    <rect
       x="4.3043499"
       width="1.4347824"
       height="1.4347824"
       id="rect56"
       y="0"
       style="stroke-width:0.273292" />
    <polyline
       points="171.5,42 176.75,42 176.75,34.75 176.75,15.75 171.5,15.75 "
       id="polyline58"
       transform="matrix(0.27329187,0,0,0.27329187,-46.869556,-2.0158407e-6)" />
    <rect
       x="1.4347723"
       y="11.478262"
       width="1.4347824"
       height="1.4347824"
       id="rect60"
       style="stroke-width:0.273292" />
    <rect
       x="2.86956"
       y="12.913034"
       width="1.4347824"
       height="1.4347824"
       id="rect62"
       style="stroke-width:0.273292" />
    <rect
       x="8.8491974"
       y="13.869555"
       class="st3"
       width="1.4347824"
       height="1.4347824"
       id="rect64"
       style="fill:#00b48d;stroke-width:0.273292" />
    <rect
       x="16.976904"
       y="17.695654"
       width="1.4347824"
       height="4.3043466"
       id="rect68"
       style="stroke-width:0.273292" />
    <g
       id="g74"
       transform="matrix(0.27329187,0,0,0.27329187,-46.869556,-2.0158407e-6)">
      <polygon
         points="208.25,75.25 208.25,80.5 221.38,80.5 226.62,80.5 226.62,75.25 226.62,70 238.88,70 238.88,64.75 226.62,64.75 221.38,64.75 221.38,70 221.38,75.25 213.5,75.25 213.5,63 213.5,57.75 192.5,57.75 192.5,52.5 187.25,52.5 187.25,57.75 187.25,63 208.25,63 "
         id="polygon70" />
      <path
         d="M 289.62,50.75 V 38.5 h 7 V 33.25 H 283.5 V 35 38.5 64.75 70 75.25 h -7.88 V 70 v -5.25 0 h -28.88 v 0 5.25 5.25 H 233.62 V 80.5 H 246.74 252 V 75.25 70 h 18.38 v 5.25 5.25 h 5.25 7.88 5.25 0.88 V 70 h 4.36 1.75 3.5 v -14 -1.75 -3.5 z m 4.38,14 h -4.38 V 56 H 294 Z"
         id="path72" />
    </g>
    <rect
       x="34.194271"
       y="7.6521645"
       width="1.4347824"
       height="1.4347824"
       id="rect76"
       style="stroke-width:0.273292" />
    <rect
       x="35.631805"
       y="6.2173839"
       width="1.4347824"
       height="1.4347824"
       id="rect78"
       style="stroke-width:0.273292" />
    <rect
       x="37.06385"
       y="4.7826109"
       width="1.4347824"
       height="1.4347824"
       id="rect80"
       style="stroke-width:0.273292" />
    <rect
       x="38.50135"
       y="1.4347808"
       width="1.4347824"
       height="3.3478255"
       id="rect82"
       style="stroke-width:0.273292" />
    <rect
       x="35.560753"
       width="2.9406207"
       height="1.4347824"
       id="rect84"
       y="0"
       style="stroke-width:0.273292" />
    <rect
       x="34.194271"
       y="1.4347808"
       width="1.4347824"
       height="1.4347824"
       id="rect86"
       style="stroke-width:0.273292" />
    <rect
       x="32.762226"
       y="2.8695543"
       width="1.4347824"
       height="1.4347824"
       id="rect88"
       style="stroke-width:0.273292" />
    <rect
       x="12.434767"
       y="1.4347808"
       width="1.4347824"
       height="1.4347824"
       id="rect90"
       style="stroke-width:0.273292" />
    <rect
       x="13.869555"
       y="0"
       width="1.4347824"
       height="1.4347824"
       id="rect92"
       style="stroke-width:0.273292" />
    <rect
       x="15.304344"
       y="1.4347808"
       width="1.4347824"
       height="1.4347824"
       id="rect94"
       style="stroke-width:0.273292" />
    <rect
       x="16.739132"
       y="2.8695543"
       width="1.4347824"
       height="1.4347824"
       id="rect96"
       style="stroke-width:0.273292" />
    <polygon
       points="243.25,42 243.25,21 291.38,21 291.38,15.75 243.25,15.75 241.5,15.75 238,15.75 238,42 "
       id="polygon98"
       transform="matrix(0.27329187,0,0,0.27329187,-46.869556,-2.0158407e-6)" />
    <polygon
       points="227.5,31.5 222.25,31.5 222.25,26.25 217,26.25 217,31.5 217,36.75 227.5,36.75 "
       id="polygon100"
       transform="matrix(0.27329187,0,0,0.27329187,-46.869556,-2.0158407e-6)" />
    <rect
       x="13.869555"
       y="7.1739044"
       class="st4"
       width="1.4347824"
       height="1.4347824"
       id="rect102"
       style="fill:#ffffff;stroke-width:0.273292" />
    <rect
       x="4.3043499"
       y="7.1739044"
       width="1.4347824"
       height="1.4347824"
       id="rect104"
       style="stroke-width:0.273292" />
    <rect
       x="4.3043499"
       y="8.6087008"
       width="2.8695648"
       height="1.4347824"
       id="rect106"
       style="stroke-width:0.273292" />
    <rect
       x="5.7391396"
       y="7.1739044"
       class="st4"
       width="1.4347824"
       height="1.4347824"
       id="rect108"
       style="fill:#ffffff;stroke-width:0.273292" />
    <rect
       x="16.976904"
       y="11.478262"
       width="1.1970184"
       height="1.1970184"
       id="rect110"
       style="stroke-width:0.273292" />
    <rect
       x="15.782597"
       y="12.67528"
       width="1.1970184"
       height="1.4347824"
       id="rect112"
       style="stroke-width:0.273292" />
    <rect
       x="14.588321"
       y="14.107327"
       width="1.1970184"
       height="1.4347824"
       id="rect114"
       style="stroke-width:0.273292" />
    <rect
       x="8.8491974"
       y="10.762239"
       width="1.4347824"
       height="1.4347824"
       id="rect116"
       style="stroke-width:0.273292" />
    <rect
       x="9.324708"
       y="12.194285"
       width="0.47826079"
       height="0.47826079"
       id="rect118"
       style="stroke-width:0.273292" />
    <rect
       x="8.6086845"
       y="12.67528"
       width="0.71602464"
       height="1.1970184"
       id="rect120"
       style="stroke-width:0.273292" />
    <rect
       x="7.892662"
       y="13.869555"
       width="0.71602464"
       height="0.6121738"
       id="rect122"
       style="stroke-width:0.273292" />
    <rect
       x="9.8057022"
       y="12.67528"
       width="0.71602464"
       height="1.1970184"
       id="rect124"
       style="stroke-width:0.273292" />
    <rect
       x="10.521726"
       y="13.869555"
       width="0.71602464"
       height="0.6121738"
       id="rect126"
       style="stroke-width:0.273292" />
    <rect
       x="21.521751"
       y="6.4551544"
       width="1.1970184"
       height="3.5855894"
       id="rect288"
       style="stroke-width:0.273292" />
    <rect
       x="23.913044"
       y="6.4551544"
       width="1.1970184"
       height="3.5855894"
       id="rect290"
       style="stroke-width:0.273292" />
    <rect
       x="26.066566"
       y="6.4551544"
       width="1.1970184"
       height="3.5855894"
       id="rect292"
       style="stroke-width:0.273292" />
  </g>
</svg>
