<?xml version="1.0" encoding="UTF-8" standalone="no"?>
<svg
   width="100%"
   height="100%"
   viewBox="0 0 1334 500"
   version="1.1"
   xml:space="preserve"
   style="fill-rule:evenodd;clip-rule:evenodd;stroke-linejoin:round;stroke-miterlimit:2;"
   id="svg226"
   xmlns="http://www.w3.org/2000/svg"
   xmlns:svg="http://www.w3.org/2000/svg"><defs
   id="defs230" />
    <g
   transform="matrix(4.16667,0,0,4.16667,0,0)"
   id="g224">
        <rect
   x="286.1"
   y="43.9"
   width="5.2"
   height="5.201"
   style="fill:rgb(10,167,224);fill-rule:nonzero;"
   id="rect2" />
        <rect
   x="296.6"
   y="39.5"
   width="5.2"
   height="5.201"
   style="fill:rgb(10,167,224);fill-rule:nonzero;"
   id="rect4" />
        <rect
   x="301"
   y="48.201"
   width="5.2"
   height="5.199"
   style="fill:rgb(10,167,224);fill-rule:nonzero;"
   id="rect6" />
        <rect
   x="312.4"
   y="46.5"
   width="5.2"
   height="5.201"
   style="fill:rgb(10,167,224);fill-rule:nonzero;"
   id="rect8" />
        <rect
   x="311.5"
   y="58.701"
   width="5.2"
   height="5.199"
   style="fill:rgb(10,167,224);fill-rule:nonzero;"
   id="rect10" />
        <rect
   x="294.9"
   y="57"
   width="5.2"
   height="5.2"
   style="fill:rgb(10,167,224);fill-rule:nonzero;"
   id="rect12" />
        <rect
   x="295.8"
   y="69.2"
   width="5.2"
   height="5.2"
   style="fill:rgb(10,167,224);fill-rule:nonzero;"
   id="rect14" />
        <rect
   x="305.4"
   y="67.501"
   width="5.2"
   height="5.199"
   style="fill:rgb(10,167,224);fill-rule:nonzero;"
   id="rect16" />
        <rect
   x="314.1"
   y="71.001"
   width="5.2"
   height="5.199"
   style="fill:rgb(10,167,224);fill-rule:nonzero;"
   id="rect18" />
        <rect
   x="310.6"
   y="81.501"
   width="5.2"
   height="5.199"
   style="fill:rgb(10,167,224);fill-rule:nonzero;"
   id="rect20" />
        <rect
   x="301"
   y="78.9"
   width="5.2"
   height="5.201"
   style="fill:rgb(10,167,224);fill-rule:nonzero;"
   id="rect22" />
        <rect
   x="290.5"
   y="84.101"
   width="5.2"
   height="5.2"
   style="fill:rgb(10,167,224);fill-rule:nonzero;"
   id="rect24" />
        <rect
   x="300.1"
   y="92.001"
   width="5.2"
   height="5.199"
   style="fill:rgb(10,167,224);fill-rule:nonzero;"
   id="rect26" />
        <rect
   x="288.8"
   y="96.301"
   width="5.2"
   height="5.199"
   style="fill:rgb(10,167,224);fill-rule:nonzero;"
   id="rect28" />
        <rect
   x="281.8"
   y="107.7"
   width="3.5"
   height="3.5"
   style="fill:rgb(10,167,224);fill-rule:nonzero;"
   id="rect30" />
        <rect
   x="278.2"
   y="96.301"
   width="3.5"
   height="3.5"
   style="fill:rgb(10,167,224);fill-rule:nonzero;"
   id="rect32" />
        <path
   d="M294.9,5.4L294.9,10.601L289.6,10.601L289.6,15.9L284.4,15.9L284.4,21.101L231,21.101L231,15.9L225.8,15.9L225.8,10.601L220.5,10.601L220.5,5.4L215.2,5.4L215.2,10.601L210,10.601L210,15.9L190.8,15.9L190.8,10.601L185.5,10.601L185.5,5.4L180.2,5.4L180.2,10.601L175,10.601L175,15.9L169.8,15.9L169.8,42.101L175,42.101L175,47.3L180.2,47.3L180.2,52.601L185.5,52.601L185.5,57.9L206.5,57.9L206.5,75.301L214.4,75.301L214.4,64.9L231.9,64.9L231.9,75.301L239.8,75.301L239.8,64.9L268.6,64.9L268.6,75.301L276.5,75.301L276.5,64.9L287,64.9L287,56.101L276.5,56.101L276.5,33.3L289.6,33.3L289.6,28.101L294.9,28.101L294.9,22.9L300.1,22.9L300.1,17.601L305.4,17.601L305.4,5.4L294.9,5.4Z"
   style="fill:rgb(255,208,40);fill-rule:nonzero;"
   id="cat" />
        <rect
   x="181.5"
   y="26.9"
   width="4"
   height="5"
   style="fill-rule:nonzero;"
   id="rect36" />
        <rect
   x="181.5"
   y="31.9"
   width="4"
   height="4"
   style="fill-rule:nonzero;"
   id="rect38" />
        <rect
   x="215.5"
   y="31.9"
   width="5"
   height="4"
   style="fill:rgb(114,192,80);fill-rule:nonzero;"
   id="rect40" />
        <rect
   x="196.9"
   y="50.9"
   width="5.2"
   height="5.201"
   style="fill:rgb(18,178,140);fill-rule:nonzero;"
   id="rect42" />
        <path
   d="M150.5,15.9L150.5,10.601L140,10.601L140,5.4L93.6,5.4L93.6,10.601L83.1,10.601L83.1,15.9L77.899,15.9L77.899,21.101L33.2,21.101L33.2,15.9L28,15.9L28,10.601L18.399,10.601L18.399,18.5L23.6,18.5L23.6,27.201L28.899,27.201L28.899,32.5L43.799,32.5L43.799,56.101L33.2,56.101L33.2,63.101L43.799,63.101L43.799,72.7L50.799,72.7L50.799,63.101L82.2,63.101L82.2,72.7L89.2,72.7L89.2,63.101L105,63.101L105,72.7L112,72.7L112,52.601L128.6,52.601L128.6,47.3L133.9,47.3L133.9,42.101L139.1,42.101L139.1,36.9L144.4,36.9L144.4,49.101L150.5,49.101L150.5,43.9L155.8,43.9L155.8,15.9L150.5,15.9Z"
   style="fill:rgb(237,90,161);fill-rule:nonzero;"
   id="dog" />
        <path
   d="M215.2,31.601L215.2,26.3L210,26.3L210,36.9L220.5,36.9L220.5,31.601L215.2,31.601Z"
   style="fill:rgb(16,20,22);fill-rule:nonzero;"
   id="path46" />
        <rect
   x="215.2"
   y="26.3"
   width="5.2"
   height="5.2"
   style="fill:white;fill-rule:nonzero;"
   id="rect48" />
        <rect
   x="180.2"
   y="26.3"
   width="5.2"
   height="5.2"
   style="fill-rule:nonzero;"
   id="rect50" />
        <rect
   x="180.2"
   y="31.601"
   width="10.5"
   height="5.199"
   style="fill-rule:nonzero;"
   id="rect52" />
        <rect
   x="185.5"
   y="26.3"
   width="5.2"
   height="5.2"
   style="fill:white;fill-rule:nonzero;"
   id="rect54" />
        <path
   d="M202.1,44.701L202.1,39.5L196.9,39.5L196.9,44.701L198.6,44.701L198.6,46.5L200.4,46.5L200.4,44.701L202.1,44.701Z"
   style="fill-rule:nonzero;"
   id="path56" />
        <path
   d="M196,50.8L193.4,50.8L193.4,53.101L196,53.101L196,50.9L198.6,50.9L198.6,46.5L196,46.5L196,50.8Z"
   style="fill-rule:nonzero;"
   id="path58" />
        <path
   d="M203,50.8L203,46.5L200.4,46.5L200.4,50.9L203,50.9L203,53.101L205.6,53.101L205.6,50.8L203,50.8Z"
   style="fill-rule:nonzero;"
   id="path60" />
        <path
   d="M126.9,23.701L126.9,18.5L121.6,18.5L121.6,29L132.1,29L132.1,23.701L126.9,23.701Z"
   style="fill:white;fill-rule:nonzero;"
   id="path62" />
        <rect
   x="126.9"
   y="18.5"
   width="5.2"
   height="5.201"
   style="fill:rgb(16,20,22);fill-rule:nonzero;"
   id="rect64" />
        <path
   d="M102.4,23.701L102.4,18.5L97.1,18.5L97.1,29L107.6,29L107.6,23.701L102.4,23.701Z"
   style="fill:white;fill-rule:nonzero;"
   id="path66" />
        <rect
   x="102.4"
   y="18.5"
   width="5.2"
   height="5.201"
   style="fill:rgb(16,20,22);fill-rule:nonzero;"
   id="rect68" />
        <path
   d="M117.2,38.101L117.2,32.9L112,32.9L112,38.101L113.8,38.101L113.8,39.9L115.5,39.9L115.5,38.101L117.2,38.101Z"
   style="fill:rgb(16,20,22);fill-rule:nonzero;"
   id="path70" />
        <rect
   x="111.1"
   y="39.9"
   width="2.6"
   height="4.4"
   style="fill-rule:nonzero;"
   id="rect72" />
        <rect
   x="108.5"
   y="44.201"
   width="2.6"
   height="2.199"
   style="fill:rgb(16,20,22);fill-rule:nonzero;"
   id="rect74" />
        <rect
   x="115.5"
   y="39.9"
   width="2.6"
   height="4.4"
   style="fill:rgb(16,20,22);fill-rule:nonzero;"
   id="rect76" />
        <rect
   x="118.1"
   y="44.201"
   width="2.6"
   height="2.199"
   style="fill-rule:nonzero;"
   id="rect78" />
        <path
   d="M68.7,113.9L70.399,113.9L70.399,115.6L68.7,115.6L68.7,113.9ZM68.7,100.7L70.399,100.7L70.399,102.4L68.7,102.4L68.7,100.7ZM66.5,113.9L68.2,113.9L68.2,115.6L66.5,115.6L66.5,113.9ZM66.5,100.7L68.2,100.7L68.2,102.4L66.5,102.4L66.5,100.7ZM64.299,112.8L66,112.8L66,114.5L64.299,114.5L64.299,112.8ZM64.299,110.6L66,110.6L66,112.3L64.299,112.3L64.299,110.6ZM64.299,108.4L66,108.4L66,110.1L64.299,110.1L64.299,108.4ZM64.299,106.2L66,106.2L66,107.9L64.299,107.9L64.299,106.2ZM64.299,104L66,104L66,105.7L64.299,105.7L64.299,104ZM64.299,101.8L66,101.8L66,103.5L64.299,103.5L64.299,101.8ZM62.1,107.3L63.799,107.3L63.799,109L62.1,109L62.1,107.3Z"
   style="fill:rgb(10,167,224);fill-rule:nonzero;"
   id="path80" />
        <path
   d="M81.899,100.7L83.6,100.7L83.6,102.4L81.899,102.4L81.899,100.7ZM79.7,100.7L81.399,100.7L81.399,102.4L79.7,102.4L79.7,100.7ZM77.5,113.9L79.2,113.9L79.2,115.6L77.5,115.6L77.5,113.9ZM77.5,111.7L79.2,111.7L79.2,113.4L77.5,113.4L77.5,111.7ZM77.5,109.5L79.2,109.5L79.2,111.2L77.5,111.2L77.5,109.5ZM77.5,107.3L79.2,107.3L79.2,109L77.5,109L77.5,107.3ZM77.5,105.1L79.2,105.1L79.2,106.8L77.5,106.8L77.5,105.1ZM77.5,102.9L79.2,102.9L79.2,104.6L77.5,104.6L77.5,102.9ZM77.5,100.7L79.2,100.7L79.2,102.4L77.5,102.4L77.5,100.7ZM75.299,100.7L77,100.7L77,102.4L75.299,102.4L75.299,100.7ZM73.1,100.7L74.799,100.7L74.799,102.4L73.1,102.4L73.1,100.7Z"
   style="fill:rgb(10,167,224);fill-rule:nonzero;"
   id="path82" />
        <path
   d="M95.1,100.7L96.799,100.7L96.799,102.4L95.1,102.4L95.1,100.7ZM92.899,100.7L94.6,100.7L94.6,102.4L92.899,102.4L92.899,100.7ZM90.7,113.9L92.399,113.9L92.399,115.6L90.7,115.6L90.7,113.9ZM90.7,111.7L92.399,111.7L92.399,113.4L90.7,113.4L90.7,111.7ZM90.7,109.5L92.399,109.5L92.399,111.2L90.7,111.2L90.7,109.5ZM90.7,107.3L92.399,107.3L92.399,109L90.7,109L90.7,107.3ZM90.7,105.1L92.399,105.1L92.399,106.8L90.7,106.8L90.7,105.1ZM90.7,102.9L92.399,102.9L92.399,104.6L90.7,104.6L90.7,102.9ZM90.7,100.7L92.399,100.7L92.399,102.4L90.7,102.4L90.7,100.7ZM88.5,100.7L90.2,100.7L90.2,102.4L88.5,102.4L88.5,100.7ZM86.299,100.7L88,100.7L88,102.4L86.299,102.4L86.299,100.7Z"
   style="fill:rgb(10,167,224);fill-rule:nonzero;"
   id="path84" />
        <path
   d="M103.9,116.1L105.6,116.1L105.6,117.8L103.9,117.8L103.9,116.1ZM103.9,113.9L105.6,113.9L105.6,115.6L103.9,115.6L103.9,113.9ZM103.9,111.7L105.6,111.7L105.6,113.4L103.9,113.4L103.9,111.7ZM103.9,109.5L105.6,109.5L105.6,111.2L103.9,111.2L103.9,109.5ZM103.9,107.3L105.6,107.3L105.6,109L103.9,109L103.9,107.3ZM103.9,105.1L105.6,105.1L105.6,106.8L103.9,106.8L103.9,105.1ZM101.7,118.3L103.4,118.3L103.4,120L101.7,120L101.7,118.3ZM101.7,105.1L103.4,105.1L103.4,106.8L101.7,106.8L101.7,105.1ZM101.7,100.7L103.4,100.7L103.4,102.4L101.7,102.4L101.7,100.7ZM99.5,118.3L101.2,118.3L101.2,120L99.5,120L99.5,118.3ZM99.5,105.1L101.2,105.1L101.2,106.8L99.5,106.8L99.5,105.1Z"
   style="fill:rgb(10,167,224);fill-rule:nonzero;"
   id="path86" />
        <path
   d="M114.9,118.3L116.6,118.3L116.6,120L114.9,120L114.9,118.3ZM114.9,116.1L116.6,116.1L116.6,117.8L114.9,117.8L114.9,116.1ZM114.9,113.9L116.6,113.9L116.6,115.6L114.9,115.6L114.9,113.9ZM114.9,111.7L116.6,111.7L116.6,113.4L114.9,113.4L114.9,111.7ZM114.9,109.5L116.6,109.5L116.6,111.2L114.9,111.2L114.9,109.5ZM114.9,107.3L116.6,107.3L116.6,109L114.9,109L114.9,107.3ZM114.9,105.1L116.6,105.1L116.6,106.8L114.9,106.8L114.9,105.1ZM112.7,113.9L114.4,113.9L114.4,115.6L112.7,115.6L112.7,113.9ZM112.7,105.1L114.4,105.1L114.4,106.8L112.7,106.8L112.7,105.1ZM110.5,113.9L112.2,113.9L112.2,115.6L110.5,115.6L110.5,113.9ZM110.5,105.1L112.2,105.1L112.2,106.8L110.5,106.8L110.5,105.1ZM108.3,112.8L110,112.8L110,114.5L108.3,114.5L108.3,112.8ZM108.3,110.6L110,110.6L110,112.3L108.3,112.3L108.3,110.6ZM108.3,108.4L110,108.4L110,110.1L108.3,110.1L108.3,108.4ZM108.3,106.2L110,106.2L110,107.9L108.3,107.9L108.3,106.2Z"
   style="fill:rgb(10,167,224);fill-rule:nonzero;"
   id="path88" />
        <path
   d="M125.9,111.7L127.5,111.7L127.5,113.4L125.9,113.4L125.9,111.7ZM125.9,109.5L127.5,109.5L127.5,111.2L125.9,111.2L125.9,109.5ZM125.9,107.3L127.5,107.3L127.5,109L125.9,109L125.9,107.3ZM125.9,105.1L127.5,105.1L127.5,106.8L125.9,106.8L125.9,105.1ZM123.7,113.9L125.3,113.9L125.3,115.6L123.7,115.6L123.7,113.9ZM121.5,113.9L123.1,113.9L123.1,115.6L121.5,115.6L121.5,113.9ZM119.3,111.7L121,111.7L121,113.4L119.3,113.4L119.3,111.7ZM119.3,109.5L121,109.5L121,111.2L119.3,111.2L119.3,109.5ZM119.3,107.3L121,107.3L121,109L119.3,109L119.3,107.3ZM119.3,105.1L121,105.1L121,106.8L119.3,106.8L119.3,105.1Z"
   style="fill:rgb(10,167,224);fill-rule:nonzero;"
   id="path90" />
        <path
   d="M136.9,112.8L138.5,112.8L138.5,114.5L136.9,114.5L136.9,112.8ZM136.9,108.4L138.5,108.4L138.5,110.1L136.9,110.1L136.9,108.4ZM136.9,106.2L138.5,106.2L138.5,107.9L136.9,107.9L136.9,106.2ZM134.7,113.9L136.3,113.9L136.3,115.6L134.7,115.6L134.7,113.9ZM134.7,109.5L136.3,109.5L136.3,111.2L134.7,111.2L134.7,109.5ZM134.7,105.1L136.3,105.1L136.3,106.8L134.7,106.8L134.7,105.1ZM132.5,113.9L134.1,113.9L134.1,115.6L132.5,115.6L132.5,113.9ZM132.5,109.5L134.1,109.5L134.1,111.2L132.5,111.2L132.5,109.5ZM132.5,105.1L134.1,105.1L134.1,106.8L132.5,106.8L132.5,105.1ZM130.3,112.8L131.9,112.8L131.9,114.5L130.3,114.5L130.3,112.8ZM130.3,110.6L131.9,110.6L131.9,112.3L130.3,112.3L130.3,110.6ZM130.3,108.4L131.9,108.4L131.9,110.1L130.3,110.1L130.3,108.4ZM130.3,106.2L131.9,106.2L131.9,107.9L130.3,107.9L130.3,106.2Z"
   style="fill:rgb(10,167,224);fill-rule:nonzero;"
   id="path92" />
        <path
   d="M147.9,106.2L149.5,106.2L149.5,107.9L147.9,107.9L147.9,106.2ZM145.7,105.1L147.3,105.1L147.3,106.8L145.7,106.8L145.7,105.1ZM143.5,106.2L145.1,106.2L145.1,107.9L143.5,107.9L143.5,106.2ZM141.3,113.9L142.9,113.9L142.9,115.6L141.3,115.6L141.3,113.9ZM141.3,111.7L142.9,111.7L142.9,113.4L141.3,113.4L141.3,111.7ZM141.3,109.5L142.9,109.5L142.9,111.2L141.3,111.2L141.3,109.5ZM141.3,107.3L142.9,107.3L142.9,109L141.3,109L141.3,107.3ZM141.3,105.1L142.9,105.1L142.9,106.8L141.3,106.8L141.3,105.1Z"
   style="fill:rgb(10,167,224);fill-rule:nonzero;"
   id="path94" />
        <path
   d="M158.9,116.1L160.5,116.1L160.5,117.8L158.9,117.8L158.9,116.1ZM158.9,113.9L160.5,113.9L160.5,115.6L158.9,115.6L158.9,113.9ZM158.9,111.7L160.5,111.7L160.5,113.4L158.9,113.4L158.9,111.7ZM158.9,109.5L160.5,109.5L160.5,111.2L158.9,111.2L158.9,109.5ZM158.9,107.3L160.5,107.3L160.5,109L158.9,109L158.9,107.3ZM158.9,105.1L160.5,105.1L160.5,106.8L158.9,106.8L158.9,105.1ZM156.7,118.3L158.3,118.3L158.3,120L156.7,120L156.7,118.3ZM156.7,113.9L158.3,113.9L158.3,115.6L156.7,115.6L156.7,113.9ZM154.5,118.3L156.1,118.3L156.1,120L154.5,120L154.5,118.3ZM154.5,113.9L156.1,113.9L156.1,115.6L154.5,115.6L154.5,113.9ZM152.3,111.7L153.9,111.7L153.9,113.4L152.3,113.4L152.3,111.7ZM152.3,109.5L153.9,109.5L153.9,111.2L152.3,111.2L152.3,109.5ZM152.3,107.3L153.9,107.3L153.9,109L152.3,109L152.3,107.3ZM152.3,105.1L153.9,105.1L153.9,106.8L152.3,106.8L152.3,105.1Z"
   style="fill:rgb(10,167,224);fill-rule:nonzero;"
   id="path96" />
        <path
   d="M180.9,113.9L182.5,113.9L182.5,115.6L180.9,115.6L180.9,113.9ZM180.9,100.7L182.5,100.7L182.5,102.4L180.9,102.4L180.9,100.7ZM178.7,113.9L180.3,113.9L180.3,115.6L178.7,115.6L178.7,113.9ZM178.7,100.7L180.3,100.7L180.3,102.4L178.7,102.4L178.7,100.7ZM176.5,112.8L178.1,112.8L178.1,114.5L176.5,114.5L176.5,112.8ZM176.5,110.6L178.1,110.6L178.1,112.3L176.5,112.3L176.5,110.6ZM176.5,108.4L178.1,108.4L178.1,110.1L176.5,110.1L176.5,108.4ZM176.5,106.2L178.1,106.2L178.1,107.9L176.5,107.9L176.5,106.2ZM176.5,104L178.1,104L178.1,105.7L176.5,105.7L176.5,104ZM176.5,101.8L178.1,101.8L178.1,103.5L176.5,103.5L176.5,101.8Z"
   style="fill:rgb(10,167,224);fill-rule:nonzero;"
   id="path98" />
        <path
   d="M194.1,111.7L195.7,111.7L195.7,113.4L194.1,113.4L194.1,111.7ZM194.1,109.5L195.7,109.5L195.7,111.2L194.1,111.2L194.1,109.5ZM194.1,107.3L195.7,107.3L195.7,109L194.1,109L194.1,107.3ZM194.1,105.1L195.7,105.1L195.7,106.8L194.1,106.8L194.1,105.1ZM191.9,113.9L193.5,113.9L193.5,115.6L191.9,115.6L191.9,113.9ZM189.7,112.8L191.3,112.8L191.3,114.5L189.7,114.5L189.7,112.8ZM189.7,110.6L191.3,110.6L191.3,112.3L189.7,112.3L189.7,110.6ZM189.7,108.4L191.3,108.4L191.3,110.1L189.7,110.1L189.7,108.4ZM187.5,113.9L189.1,113.9L189.1,115.6L187.5,115.6L187.5,113.9ZM185.3,111.7L186.9,111.7L186.9,113.4L185.3,113.4L185.3,111.7ZM185.3,109.5L186.9,109.5L186.9,111.2L185.3,111.2L185.3,109.5ZM185.3,107.3L186.9,107.3L186.9,109L185.3,109L185.3,107.3ZM185.3,105.1L186.9,105.1L186.9,106.8L185.3,106.8L185.3,105.1Z"
   style="fill:rgb(10,167,224);fill-rule:nonzero;"
   id="path100" />
        <path
   d="M202.9,113.9L204.5,113.9L204.5,115.6L202.9,115.6L202.9,113.9ZM200.7,113.9L202.3,113.9L202.3,115.6L200.7,115.6L200.7,113.9ZM200.7,111.7L202.3,111.7L202.3,113.4L200.7,113.4L200.7,111.7ZM200.7,109.5L202.3,109.5L202.3,111.2L200.7,111.2L200.7,109.5ZM200.7,107.3L202.3,107.3L202.3,109L200.7,109L200.7,107.3ZM200.7,105.1L202.3,105.1L202.3,106.8L200.7,106.8L200.7,105.1ZM200.7,100.7L202.3,100.7L202.3,102.4L200.7,102.4L200.7,100.7ZM198.5,113.9L200.1,113.9L200.1,115.6L198.5,115.6L198.5,113.9ZM198.5,105.1L200.1,105.1L200.1,106.8L198.5,106.8L198.5,105.1Z"
   style="fill:rgb(10,167,224);fill-rule:nonzero;"
   id="path102" />
        <path
   d="M213.9,113.9L215.5,113.9L215.5,115.6L213.9,115.6L213.9,113.9ZM213.9,111.7L215.5,111.7L215.5,113.4L213.9,113.4L213.9,111.7ZM213.9,109.5L215.5,109.5L215.5,111.2L213.9,111.2L213.9,109.5ZM213.9,107.3L215.5,107.3L215.5,109L213.9,109L213.9,107.3ZM211.7,105.1L213.3,105.1L213.3,106.8L211.7,106.8L211.7,105.1ZM209.5,106.2L211.1,106.2L211.1,107.9L209.5,107.9L209.5,106.2ZM207.3,113.9L208.9,113.9L208.9,115.6L207.3,115.6L207.3,113.9ZM207.3,111.7L208.9,111.7L208.9,113.4L207.3,113.4L207.3,111.7ZM207.3,109.5L208.9,109.5L208.9,111.2L207.3,111.2L207.3,109.5ZM207.3,107.3L208.9,107.3L208.9,109L207.3,109L207.3,107.3ZM207.3,105.1L208.9,105.1L208.9,106.8L207.3,106.8L207.3,105.1Z"
   style="fill:rgb(10,167,224);fill-rule:nonzero;"
   id="path104" />
        <path
   d="M224.9,113.9L226.5,113.9L226.5,115.6L224.9,115.6L224.9,113.9ZM224.9,111.7L226.5,111.7L226.5,113.4L224.9,113.4L224.9,111.7ZM224.9,109.5L226.5,109.5L226.5,111.2L224.9,111.2L224.9,109.5ZM224.9,107.3L226.5,107.3L226.5,109L224.9,109L224.9,107.3ZM224.9,105.1L226.5,105.1L226.5,106.8L224.9,106.8L224.9,105.1ZM224.9,102.9L226.5,102.9L226.5,104.6L224.9,104.6L224.9,102.9ZM224.9,100.7L226.5,100.7L226.5,102.4L224.9,102.4L224.9,100.7ZM222.7,113.9L224.3,113.9L224.3,115.6L222.7,115.6L222.7,113.9ZM222.7,105.1L224.3,105.1L224.3,106.8L222.7,106.8L222.7,105.1ZM220.5,113.9L222.1,113.9L222.1,115.6L220.5,115.6L220.5,113.9ZM220.5,105.1L222.1,105.1L222.1,106.8L220.5,106.8L220.5,105.1ZM218.3,112.8L219.9,112.8L219.9,114.5L218.3,114.5L218.3,112.8ZM218.3,110.6L219.9,110.6L219.9,112.3L218.3,112.3L218.3,110.6ZM218.3,108.4L219.9,108.4L219.9,110.1L218.3,110.1L218.3,108.4ZM218.3,106.2L219.9,106.2L219.9,107.9L218.3,107.9L218.3,106.2Z"
   style="fill:rgb(10,167,224);fill-rule:nonzero;"
   id="path106" />
        <path
   d="M235.9,112.8L237.5,112.8L237.5,114.5L235.9,114.5L235.9,112.8ZM235.9,110.6L237.5,110.6L237.5,112.3L235.9,112.3L235.9,110.6ZM235.9,108.4L237.5,108.4L237.5,110.1L235.9,110.1L235.9,108.4ZM235.9,106.2L237.5,106.2L237.5,107.9L235.9,107.9L235.9,106.2ZM233.7,113.9L235.3,113.9L235.3,115.6L233.7,115.6L233.7,113.9ZM233.7,105.1L235.3,105.1L235.3,106.8L233.7,106.8L233.7,105.1ZM231.5,113.9L233.1,113.9L233.1,115.6L231.5,115.6L231.5,113.9ZM231.5,105.1L233.1,105.1L233.1,106.8L231.5,106.8L231.5,105.1ZM229.3,112.8L230.9,112.8L230.9,114.5L229.3,114.5L229.3,112.8ZM229.3,110.6L230.9,110.6L230.9,112.3L229.3,112.3L229.3,110.6ZM229.3,108.4L230.9,108.4L230.9,110.1L229.3,110.1L229.3,108.4ZM229.3,106.2L230.9,106.2L230.9,107.9L229.3,107.9L229.3,106.2Z"
   style="fill:rgb(10,167,224);fill-rule:nonzero;"
   id="path108" />
        <path
   d="M249.1,111.7L250.7,111.7L250.7,113.4L249.1,113.4L249.1,111.7ZM249.1,109.5L250.7,109.5L250.7,111.2L249.1,111.2L249.1,109.5ZM249.1,107.3L250.7,107.3L250.7,109L249.1,109L249.1,107.3ZM249.1,105.1L250.7,105.1L250.7,106.8L249.1,106.8L249.1,105.1ZM246.9,113.9L248.5,113.9L248.5,115.6L246.9,115.6L246.9,113.9ZM244.7,112.8L246.3,112.8L246.3,114.5L244.7,114.5L244.7,112.8ZM244.7,110.6L246.3,110.6L246.3,112.3L244.7,112.3L244.7,110.6ZM244.7,108.4L246.3,108.4L246.3,110.1L244.7,110.1L244.7,108.4ZM242.5,113.9L244.1,113.9L244.1,115.6L242.5,115.6L242.5,113.9ZM240.3,111.7L241.9,111.7L241.9,113.4L240.3,113.4L240.3,111.7ZM240.3,109.5L241.9,109.5L241.9,111.2L240.3,111.2L240.3,109.5ZM240.3,107.3L241.9,107.3L241.9,109L240.3,109L240.3,107.3ZM240.3,105.1L241.9,105.1L241.9,106.8L240.3,106.8L240.3,105.1Z"
   style="fill:rgb(10,167,224);fill-rule:nonzero;"
   id="path110" />
        <path
   d="M257.9,112.8L259.5,112.8L259.5,114.5L257.9,114.5L257.9,112.8ZM257.9,110.6L259.5,110.6L259.5,112.3L257.9,112.3L257.9,110.6ZM257.9,108.4L259.5,108.4L259.5,110.1L257.9,110.1L257.9,108.4ZM257.9,106.2L259.5,106.2L259.5,107.9L257.9,107.9L257.9,106.2ZM257.9,104L259.5,104L259.5,105.7L257.9,105.7L257.9,104ZM257.9,101.8L259.5,101.8L259.5,103.5L257.9,103.5L257.9,101.8ZM255.7,113.9L257.299,113.9L257.299,115.6L255.7,115.6L255.7,113.9ZM255.7,100.7L257.299,100.7L257.299,102.4L255.7,102.4L255.7,100.7ZM253.5,113.9L255.1,113.9L255.1,115.6L253.5,115.6L253.5,113.9ZM253.5,100.7L255.1,100.7L255.1,102.4L253.5,102.4L253.5,100.7Z"
   style="fill:rgb(10,167,224);fill-rule:nonzero;"
   id="path112" />
        <rect
   x="262.3"
   y="113.9"
   width="1.6"
   height="1.7"
   style="fill:rgb(10,167,224);fill-rule:nonzero;"
   id="rect114" />
        <rect
   x="28"
   y="43.9"
   width="5.2"
   height="5.201"
   style="fill:rgb(10,167,224);fill-rule:nonzero;"
   id="rect116" />
        <rect
   x="17.5"
   y="39.5"
   width="5.2"
   height="5.201"
   style="fill:rgb(10,167,224);fill-rule:nonzero;"
   id="rect118" />
        <rect
   x="13.1"
   y="48.201"
   width="5.199"
   height="5.199"
   style="fill:rgb(10,167,224);fill-rule:nonzero;"
   id="rect120" />
        <rect
   x="1.799"
   y="46.5"
   width="5.201"
   height="5.201"
   style="fill:rgb(10,167,224);fill-rule:nonzero;"
   id="rect122" />
        <rect
   x="2.6"
   y="58.701"
   width="5.199"
   height="5.199"
   style="fill:rgb(10,167,224);fill-rule:nonzero;"
   id="rect124" />
        <rect
   x="19.2"
   y="57"
   width="5.199"
   height="5.2"
   style="fill:rgb(10,167,224);fill-rule:nonzero;"
   id="rect126" />
        <rect
   x="18.399"
   y="69.2"
   width="5.201"
   height="5.2"
   style="fill:rgb(10,167,224);fill-rule:nonzero;"
   id="rect128" />
        <rect
   x="8.799"
   y="67.501"
   width="5.201"
   height="5.199"
   style="fill:rgb(10,167,224);fill-rule:nonzero;"
   id="rect130" />
        <rect
   x="0"
   y="71.001"
   width="5.2"
   height="5.199"
   style="fill:rgb(10,167,224);fill-rule:nonzero;"
   id="rect132" />
        <rect
   x="3.5"
   y="81.501"
   width="5.2"
   height="5.199"
   style="fill:rgb(10,167,224);fill-rule:nonzero;"
   id="rect134" />
        <rect
   x="13.1"
   y="78.9"
   width="5.199"
   height="5.201"
   style="fill:rgb(10,167,224);fill-rule:nonzero;"
   id="rect136" />
        <rect
   x="23.6"
   y="84.101"
   width="5.299"
   height="5.2"
   style="fill:rgb(10,167,224);fill-rule:nonzero;"
   id="rect138" />
        <rect
   x="14"
   y="92.001"
   width="5.2"
   height="5.199"
   style="fill:rgb(10,167,224);fill-rule:nonzero;"
   id="rect140" />
        <rect
   x="25.399"
   y="96.301"
   width="5.201"
   height="5.199"
   style="fill:rgb(10,167,224);fill-rule:nonzero;"
   id="rect142" />
        <rect
   x="34.1"
   y="107.7"
   width="3.5"
   height="3.5"
   style="fill:rgb(10,167,224);fill-rule:nonzero;"
   id="rect144" />
        <rect
   x="37.6"
   y="96.301"
   width="3.5"
   height="3.5"
   style="fill:rgb(10,167,224);fill-rule:nonzero;"
   id="rect146" />
        <rect
   x="169.8"
   y="10.601"
   width="5.2"
   height="5.199"
   style="fill:rgb(16,20,22);fill-rule:nonzero;"
   id="rect148" />
        <rect
   x="185.5"
   y="5.3"
   width="5.2"
   height="5.2"
   style="fill:rgb(16,20,22);fill-rule:nonzero;"
   id="rect150" />
        <rect
   x="175"
   y="5.3"
   width="5.2"
   height="5.2"
   style="fill:rgb(16,20,22);fill-rule:nonzero;"
   id="rect152" />
        <rect
   x="190.8"
   y="10.601"
   width="19.2"
   height="5.199"
   style="fill:rgb(16,20,22);fill-rule:nonzero;"
   id="rect154" />
        <rect
   x="180.2"
   y="0.101"
   width="5.2"
   height="5.199"
   style="fill:rgb(16,20,22);fill-rule:nonzero;"
   id="rect156" />
        <path
   d="M164.5,42.101L169.8,42.101L169.8,15.8L164.5,15.8L164.5,42.101Z"
   style="fill:rgb(16,20,22);fill-rule:nonzero;"
   id="path158" />
        <rect
   x="169.8"
   y="42.101"
   width="5.2"
   height="5.199"
   style="fill:rgb(16,20,22);fill-rule:nonzero;"
   id="rect160" />
        <rect
   x="175"
   y="47.3"
   width="5.2"
   height="5.2"
   style="fill:rgb(16,20,22);fill-rule:nonzero;"
   id="rect162" />
        <rect
   x="289.6"
   y="28.101"
   width="5.2"
   height="5.199"
   style="fill:rgb(16,20,22);fill-rule:nonzero;"
   id="rect164" />
        <path
   d="M300.1,22.8L294.9,22.8L294.9,28.101L300.1,28.101L300.1,22.8L305.4,22.8L305.4,17.601L300.1,17.601L300.1,22.8Z"
   style="fill:rgb(16,20,22);fill-rule:nonzero;"
   id="path166" />
        <rect
   x="305.4"
   y="5.3"
   width="5.2"
   height="12.2"
   style="fill:rgb(16,20,22);fill-rule:nonzero;"
   id="rect168" />
        <path
   d="M294.6,0.101L294.6,5.3L289.6,5.3L289.6,10.601L284.4,10.601L284.4,15.8L289.6,15.8L289.6,10.601L294.9,10.601L294.9,5.3L305.4,5.3L305.4,0.101L294.6,0.101Z"
   style="fill:rgb(16,20,22);fill-rule:nonzero;"
   id="path170" />
        <rect
   x="210"
   y="5.3"
   width="5.2"
   height="5.2"
   style="fill:rgb(16,20,22);fill-rule:nonzero;"
   id="rect172" />
        <rect
   x="215.2"
   y="0.101"
   width="5.2"
   height="5.199"
   style="fill:rgb(16,20,22);fill-rule:nonzero;"
   id="rect174" />
        <rect
   x="220.5"
   y="5.3"
   width="5.2"
   height="5.2"
   style="fill:rgb(16,20,22);fill-rule:nonzero;"
   id="rect176" />
        <rect
   x="225.8"
   y="10.601"
   width="5.2"
   height="5.199"
   style="fill:rgb(16,20,22);fill-rule:nonzero;"
   id="rect178" />
        <path
   d="M282.6,56.101L287,56.101L287,64.9L282.6,64.9L282.6,56.101ZM180.2,63.101L201.2,63.101L201.2,80.501L219.5,80.501L219.5,70.101L226.5,70.101L226.5,80.501L244.9,80.501L244.9,70.101L263.3,70.101L263.3,80.501L282.5,80.501L282.5,70.101L292.2,70.101L292.2,50.8L282.6,50.8L282.6,38.601L289.6,38.601L289.6,33.4L276.5,33.4L276.5,75.301L268.6,75.301L268.6,64.9L239.7,64.9L239.7,75.301L231.8,75.301L231.8,64.9L214.4,64.9L214.4,75.301L206.5,75.301L206.5,57.9L185.5,57.9L185.5,52.701L180.3,52.701L180.3,63.101L180.2,63.101Z"
   style="fill:rgb(16,20,22);fill-rule:nonzero;"
   id="path180" />
        <path
   d="M284.4,15.8L231,15.8L231,42.101L236.2,42.101L236.2,21.101L284.4,21.101L284.4,15.8Z"
   style="fill:rgb(16,20,22);fill-rule:nonzero;"
   id="path182" />
        <path
   d="M226.6,46.5L222.2,46.5L222.2,51.701L217.9,51.701L217.9,57L222.3,57L222.3,51.701L226.6,51.701L226.6,46.5L231,46.5L231,42.101L226.6,42.101L226.6,46.5Z"
   style="fill:rgb(16,20,22);fill-rule:nonzero;"
   id="path184" />
        <rect
   x="243.2"
   y="23.701"
   width="4.4"
   height="13.099"
   style="fill:rgb(16,20,22);fill-rule:nonzero;"
   id="rect186" />
        <rect
   x="252"
   y="23.701"
   width="4.4"
   height="13.099"
   style="fill:rgb(16,20,22);fill-rule:nonzero;"
   id="rect188" />
        <rect
   x="259.9"
   y="23.701"
   width="4.4"
   height="13.099"
   style="fill:rgb(16,20,22);fill-rule:nonzero;"
   id="rect190" />
        <path
   d="M155.8,15.8L155.8,43.8L161,43.8L161,15.8L155.8,15.8Z"
   style="fill:rgb(16,20,22);fill-rule:nonzero;"
   id="path192" />
        <rect
   x="150.5"
   y="10.601"
   width="5.2"
   height="5.199"
   style="fill-rule:nonzero;"
   id="rect194" />
        <rect
   x="140"
   y="5.3"
   width="10.5"
   height="5.2"
   style="fill:rgb(16,20,22);fill-rule:nonzero;"
   id="rect196" />
        <rect
   x="93.6"
   y="0.101"
   width="46.4"
   height="5.199"
   style="fill:rgb(16,20,22);fill-rule:nonzero;"
   id="rect198" />
        <path
   d="M38.5,63.101L33.299,63.101L33.299,56.101L38.5,56.101L38.5,63.101ZM128.6,52.601L99.799,52.601L99.799,57.8L112,57.8L112,72.7L105,72.7L105,63.101L89.299,63.101L89.299,72.7L82.299,72.7L82.299,63.101L50.7,63.101L50.7,72.7L43.7,72.7L43.7,32.5L28.899,32.5L28.899,37.701L38.5,37.701L38.5,50.8L28,50.8L28,68.301L38.5,68.301L38.5,78.001L56,78.001L56,68.4L77,68.4L77,78.001L94.5,78.001L94.5,68.4L99.7,68.4L99.7,78.001L117.2,78.001L117.2,57.8L128.6,57.8L128.6,52.601L133.8,52.601L133.8,47.4L128.6,47.4L128.6,52.601Z"
   style="fill:rgb(16,20,22);fill-rule:nonzero;"
   id="path200" />
        <path
   d="M150.5,49.101L144.4,49.101L144.4,36.8L139.1,36.8L139.1,42.101L133.9,42.101L133.9,47.3L139.1,47.3L139.1,54.3L155.8,54.3L155.8,43.8L150.5,43.8L150.5,49.101Z"
   style="fill:rgb(16,20,22);fill-rule:nonzero;"
   id="path202" />
        <path
   d="M83.1,10.601L77.899,10.601L77.899,15.8L83.1,15.8L83.1,10.601L93.6,10.601L93.6,5.3L83.1,5.3L83.1,10.601Z"
   style="fill:rgb(16,20,22);fill-rule:nonzero;"
   id="path204" />
        <rect
   x="28"
   y="10.601"
   width="5.2"
   height="5.199"
   style="fill-rule:nonzero;"
   id="rect206" />
        <rect
   x="18.399"
   y="5.3"
   width="9.601"
   height="5.2"
   style="fill:rgb(16,20,22);fill-rule:nonzero;"
   id="rect208" />
        <path
   d="M18.399,10.601L13.1,10.601L13.1,18.5L18.399,18.5L18.399,10.601Z"
   style="fill:rgb(16,20,22);fill-rule:nonzero;"
   id="path210" />
        <path
   d="M28.899,32.5L28.899,27.201L23.6,27.201L23.6,18.5L18.399,18.5L18.399,27.201L23.6,27.201L23.6,32.5L28.899,32.5Z"
   style="fill:rgb(16,20,22);fill-rule:nonzero;"
   id="path212" />
        <path
   d="M72.6,21.101L72.6,45.601L77.899,45.601L77.899,15.8L33.2,15.8L33.2,21.101L72.6,21.101Z"
   style="fill:rgb(16,20,22);fill-rule:nonzero;"
   id="path214" />
        <rect
   x="77.899"
   y="45.601"
   width="6.101"
   height="5.199"
   style="fill:rgb(16,20,22);fill-rule:nonzero;"
   id="rect216" />
        <rect
   x="84"
   y="39.5"
   width="5.2"
   height="6.101"
   style="fill:rgb(16,20,22);fill-rule:nonzero;"
   id="rect218" />
        <rect
   x="94.5"
   y="39.5"
   width="5.2"
   height="13.101"
   style="fill:rgb(16,20,22);fill-rule:nonzero;"
   id="rect220" />
        <rect
   x="89.2"
   y="34.201"
   width="5.199"
   height="5.199"
   style="fill:rgb(16,20,22);fill-rule:nonzero;"
   id="rect222" />
    </g>
</svg>
