<?xml version="1.0" encoding="UTF-8" standalone="no"?>
<svg
   width="100%"
   height="100%"
   viewBox="0 0 913 1159"
   version="1.1"
   xml:space="preserve"
   style="fill-rule:evenodd;clip-rule:evenodd;stroke-linejoin:round;stroke-miterlimit:2;"
   id="svg16"
   xmlns="http://www.w3.org/2000/svg"
   xmlns:svg="http://www.w3.org/2000/svg"><defs
   id="defs20" />
    <g
   transform="matrix(4.16667,0,0,4.16667,0,0)"
   id="g14">
        <rect
   x="99.212"
   y="39.891"
   width="19.843"
   height="19.842"
   style="fill:rgb(35,31,32);fill-rule:nonzero;"
   id="rect2" />
        <rect
   x="59.527"
   y="79.576"
   width="19.843"
   height="19.842"
   style="fill:rgb(35,31,32);fill-rule:nonzero;"
   id="rect4" />
        <rect
   x="99.212"
   y="79.576"
   width="19.843"
   height="19.842"
   style="fill:rgb(35,31,32);fill-rule:nonzero;"
   id="rect6" />
        <rect
   x="138.897"
   y="79.576"
   width="19.843"
   height="19.842"
   style="fill:rgb(35,31,32);fill-rule:nonzero;"
   id="rect8" />
        <path
   d="M158.74,119.26L59.527,119.26L59.527,158.945L79.37,158.945L79.37,139.102L138.897,139.102L138.897,158.945L158.74,158.945L158.74,119.26Z"
   style="fill:white;fill-rule:nonzero;"
   id="path10" />
        <path
   d="M138.897,158.945L138.897,139.102L79.37,139.102L79.37,158.945L59.527,158.945L59.527,119.26L158.74,119.26L158.74,158.945L138.897,158.945ZM59.527,79.576L79.37,79.576L79.37,99.418L59.527,99.418L59.527,79.576ZM119.055,39.891L119.055,59.733L99.212,59.733L99.212,39.891L119.055,39.891ZM99.212,79.576L119.055,79.576L119.055,99.418L99.212,99.418L99.212,79.576ZM158.74,99.418L138.897,99.418L138.897,79.576L158.74,79.576L158.74,99.418ZM178.583,139.102L198.425,139.102L198.425,119.26L218.268,119.26L218.268,99.418L178.583,99.418L178.583,59.733L158.74,59.733L158.74,39.891L138.897,39.891L138.897,20.048L119.055,20.048L119.055,0.205L99.212,0.205L99.212,20.048L79.37,20.048L79.37,39.891L59.527,39.891L59.527,59.733L39.685,59.733L39.685,99.418L0,99.418L0,119.26L19.842,119.26L19.842,139.102L39.685,139.102L39.685,178.788L19.842,178.788L19.842,168.866L0,168.866L0,208.552L19.842,208.552L19.842,198.63L59.527,198.63L59.527,238.315L39.685,238.315L39.685,278L59.527,278L59.527,258.158L79.37,258.158L79.37,238.315L99.212,238.315L99.212,218.473L119.055,218.473L119.055,238.315L138.897,238.315L138.897,258.158L158.74,258.158L158.74,278L178.583,278L178.583,238.315L158.74,238.315L158.74,198.63L198.425,198.63L198.425,208.552L218.268,208.552L218.268,168.866L198.425,168.866L198.425,178.788L178.583,178.788L178.583,139.102Z"
   style="fill:rgb(255,231,43);fill-rule:nonzero;"
   id="body" />
    </g>
</svg>
