<?xml version="1.0" encoding="UTF-8" standalone="no"?>
<!-- Created with Inkscape (http://www.inkscape.org/) -->

<svg
   width="40mm"
   height="21mm"
   viewBox="0 0 40 21"
   version="1.1"
   id="svg626"
   xmlns="http://www.w3.org/2000/svg"
   xmlns:svg="http://www.w3.org/2000/svg">
  <defs
     id="defs623" />
  <g
     id="layer1">
    <polygon
       class="st0"
       points="35,15.75 35,10.5 25.38,10.5 25.38,18.38 30.62,18.38 30.62,27.12 35.88,27.12 35.88,32.38 50.75,32.38 50.75,56 40.25,56 40.25,63 50.75,63 50.75,72.62 57.75,72.62 57.75,63 89.25,63 89.25,72.62 96.25,72.62 96.25,63 112,63 112,72.62 119,72.62 119,52.5 135.62,52.5 135.62,47.25 140.88,47.25 140.88,42 146.12,42 146.12,36.75 151.38,36.75 151.38,49 157.5,49 157.5,43.75 162.75,43.75 162.75,15.75 157.5,15.75 157.5,10.5 147,10.5 147,5.25 100.62,5.25 100.62,10.5 90.12,10.5 90.12,15.75 84.88,15.75 84.88,21 40.25,21 40.25,15.75 "
       id="body"
       style="fill:#00a6de"
       transform="matrix(0.27048959,0,0,0.27048959,-5.4422505,-3.1857736e-6)" />
    <polyline
       points="162.75,43.75 168,43.75 168,36.02 168,15.75 162.75,15.75 "
       id="polyline128"
       transform="matrix(0.27048959,0,0,0.27048959,-5.4422505,-3.1857736e-6)" />
    <rect
       x="37.159866"
       y="2.8401375"
       width="1.4200704"
       height="1.4200704"
       id="rect130"
       style="stroke-width:0.270489" />
    <rect
       x="34.319714"
       y="1.4200687"
       width="2.8401408"
       height="1.4200704"
       id="rect132"
       style="stroke-width:0.270489" />
    <rect
       x="21.774412"
       y="0"
       width="12.545307"
       height="1.4200704"
       id="rect134"
       style="stroke-width:0.270489" />
    <rect
       x="18.934275"
       y="1.4200687"
       width="2.8401408"
       height="1.4200704"
       id="rect136"
       style="stroke-width:0.270489" />
    <rect
       x="17.516903"
       y="2.8401375"
       width="1.4200704"
       height="1.4200704"
       id="rect138"
       style="stroke-width:0.270489" />
    <rect
       x="5.4449582"
       y="4.2602062"
       width="12.069245"
       height="1.4200704"
       id="rect140"
       style="stroke-width:0.270489" />
    <rect
       x="4.0248818"
       y="2.8401375"
       width="1.4200704"
       height="1.4200704"
       id="rect142"
       style="stroke-width:0.270489" />
    <rect
       x="1.4227754"
       y="1.4200687"
       width="2.6021099"
       height="1.4200704"
       id="rect144"
       style="stroke-width:0.270489" />
    <polyline
       points="20.12,18.38 25.38,18.38 25.38,16.2 25.38,10.5 20.12,10.5 "
       id="polyline146"
       transform="matrix(0.27048959,0,0,0.27048959,-5.4422505,-3.1857736e-6)" />
    <rect
       x="1.4227754"
       y="4.9715939"
       width="1.4200704"
       height="2.3667841"
       id="rect148"
       style="stroke-width:0.270489" />
    <rect
       x="2.8401377"
       y="7.3356767"
       width="1.4200704"
       height="1.4200704"
       id="rect150"
       style="stroke-width:0.270489" />
    <rect
       x="4.2629128"
       y="8.7584515"
       width="4.0248852"
       height="1.4200704"
       id="rect152"
       style="stroke-width:0.270489" />
    <rect
       x="6.865027"
       y="10.175815"
       width="1.4200704"
       height="9.4671364"
       id="rect154"
       style="stroke-width:0.270489" />
    <rect
       x="6.865027"
       y="19.642956"
       width="4.7335682"
       height="1.4200704"
       id="rect156"
       style="stroke-width:0.270489" />
    <rect
       x="10.17852"
       y="17.04085"
       width="1.4200704"
       height="2.6021099"
       id="rect158"
       style="stroke-width:0.270489" />
    <rect
       x="11.125234"
       y="17.04085"
       width="7.5737085"
       height="1.4200704"
       id="rect160"
       style="stroke-width:0.270489" />
    <rect
       x="17.278872"
       y="17.04085"
       width="1.4200704"
       height="2.6021099"
       id="rect162"
       style="stroke-width:0.270489" />
    <rect
       x="20.592375"
       y="17.04085"
       width="1.4200704"
       height="2.6021099"
       id="rect164"
       style="stroke-width:0.270489" />
    <rect
       x="23.432505"
       y="17.04085"
       width="1.4200704"
       height="2.6021099"
       id="rect166"
       style="stroke-width:0.270489" />
    <rect
       x="26.746006"
       y="14.200696"
       width="1.4200704"
       height="5.4422507"
       id="rect168"
       style="stroke-width:0.270489" />
    <rect
       x="23.432505"
       y="19.642956"
       width="4.7335682"
       height="1.4200704"
       id="rect170"
       style="stroke-width:0.270489" />
    <rect
       x="17.278872"
       y="19.642956"
       width="4.7335682"
       height="1.4200704"
       id="rect172"
       style="stroke-width:0.270489" />
    <rect
       x="20.592375"
       y="17.04085"
       width="3.7868543"
       height="1.4200704"
       id="rect174"
       style="stroke-width:0.270489" />
    <rect
       x="23.432505"
       y="14.200696"
       width="7.811739"
       height="1.4200704"
       id="rect176"
       style="stroke-width:0.270489" />
    <rect
       x="31.241545"
       y="12.780635"
       width="1.4200704"
       height="1.4200704"
       id="rect178"
       style="stroke-width:0.270489" />
    <rect
       x="32.664318"
       y="11.36055"
       width="1.4200704"
       height="1.4200704"
       id="rect180"
       style="stroke-width:0.270489" />
    <rect
       x="34.08168"
       y="9.9404898"
       width="1.4200704"
       height="4.7335682"
       id="rect182"
       style="stroke-width:0.270489" />
    <rect
       x="35.504456"
       y="13.253991"
       width="3.0781717"
       height="1.4200704"
       id="rect184"
       style="stroke-width:0.270489" />
    <rect
       x="37.159866"
       y="11.833906"
       width="1.4200704"
       height="1.4200704"
       id="rect186"
       style="stroke-width:0.270489" />
    <polygon
       class="st4"
       points="128.62,28.88 133.88,28.88 139.12,28.88 139.12,23.62 133.88,23.62 133.88,18.38 128.62,18.38 128.62,23.62 "
       id="polygon188"
       style="fill:#ffffff"
       transform="matrix(0.27048959,0,0,0.27048959,-5.4422505,-3.1857736e-6)" />
    <rect
       x="30.770895"
       y="4.9715939"
       width="1.4200704"
       height="1.4200704"
       id="rect190"
       style="stroke-width:0.270489" />
    <polygon
       class="st4"
       points="104.12,28.88 109.38,28.88 114.62,28.88 114.62,23.62 109.38,23.62 109.38,18.38 104.12,18.38 104.12,23.62 "
       id="polygon192"
       style="fill:#ffffff"
       transform="matrix(0.27048959,0,0,0.27048959,-5.4422505,-3.1857736e-6)" />
    <rect
       x="24.1439"
       y="4.9715939"
       width="1.4200704"
       height="1.4200704"
       id="rect194"
       style="stroke-width:0.270489" />
    <g
       id="g208"
       transform="matrix(0.27048959,0,0,0.27048959,-5.4422505,-3.1857736e-6)">
      <rect
         x="119"
         y="32.759998"
         width="5.25"
         height="5.25"
         id="rect196" />
      <rect
         x="120.75"
         y="38.009998"
         width="1.75"
         height="1.75"
         id="rect198" />
      <rect
         x="118.12"
         y="39.759998"
         width="2.6199999"
         height="4.3800001"
         id="rect200" />
      <rect
         x="115.5"
         y="44.139999"
         width="2.6199999"
         height="2.24"
         id="rect202" />
      <rect
         x="122.5"
         y="39.759998"
         width="2.6199999"
         height="4.3800001"
         id="rect204" />
      <rect
         x="125.12"
         y="44.139999"
         width="2.6199999"
         height="2.24"
         id="rect206" />
    </g>
    <rect
       x="5.4449582"
       y="13.727347"
       width="1.4200704"
       height="1.4200704"
       id="rect210"
       style="stroke-width:0.270489" />
    <rect
       x="5.4449582"
       y="17.04085"
       width="1.4200704"
       height="1.4200704"
       id="rect212"
       style="stroke-width:0.270489" />
    <rect
       x="4.0248818"
       y="13.727347"
       width="1.4200704"
       height="4.7335682"
       id="rect214"
       style="stroke-width:0.270489" />
    <rect
       x="22.012444"
       y="10.651877"
       width="1.4200704"
       height="3.5488234"
       id="rect294"
       style="stroke-width:0.270489" />
    <rect
       x="16.094128"
       y="4.7335625"
       width="1.4200704"
       height="7.5737085"
       id="rect296"
       style="stroke-width:0.270489" />
    <rect
       x="17.516903"
       y="12.307279"
       width="1.6553962"
       height="1.4200704"
       id="rect298"
       style="stroke-width:0.270489" />
    <rect
       x="19.172306"
       y="10.651877"
       width="1.4200704"
       height="1.6553962"
       id="rect300"
       style="stroke-width:0.270489" />
    <rect
       x="20.592375"
       y="9.2291012"
       width="1.4200704"
       height="1.4200704"
       id="rect302"
       style="stroke-width:0.270489" />
  </g>
</svg>
