<?xml version="1.0" encoding="UTF-8" standalone="no"?>
<svg
   width="100%"
   height="100%"
   viewBox="0 0 2525 2400"
   version="1.1"
   xml:space="preserve"
   style="fill-rule:evenodd;clip-rule:evenodd;stroke-linejoin:round;stroke-miterlimit:2;"
   id="svg114"
   sodipodi:docname="friends.svg"
   inkscape:version="1.1.2 (b8e25be833, 2022-02-05)"
   xmlns:inkscape="http://www.inkscape.org/namespaces/inkscape"
   xmlns:sodipodi="http://sodipodi.sourceforge.net/DTD/sodipodi-0.dtd"
   xmlns="http://www.w3.org/2000/svg"
   xmlns:svg="http://www.w3.org/2000/svg"><defs
   id="defs118" /><sodipodi:namedview
   id="namedview116"
   pagecolor="#ffffff"
   bordercolor="#666666"
   borderopacity="1.0"
   inkscape:pageshadow="2"
   inkscape:pageopacity="0.0"
   inkscape:pagecheckerboard="0"
   showgrid="false"
   inkscape:zoom="0.29958333"
   inkscape:cx="1263.4214"
   inkscape:cy="1198.331"
   inkscape:window-width="2256"
   inkscape:window-height="1398"
   inkscape:window-x="-11"
   inkscape:window-y="-11"
   inkscape:window-maximized="1"
   inkscape:current-layer="svg114" />
    <g
   transform="matrix(4.16667,0,0,4.16667,0,0)"
   id="g112">
        
        
        
        <path
   id="right_skin"
   style="fill:rgb(152,100,66);fill-rule:nonzero;"
   d="m 317.48,357.732 h -9.921 v 19.843 h 9.921 z M 436.535,238.677 h 39.686 v 19.843 h -39.686 z m 138.89798,19.84299 h 19.842 v 19.842 h -19.842 z m -9.92096,19.84201 h 19.842 v 19.843 h -19.842 z M 416.69299,179.14999 H 496.063 v 59.527 h -79.37001 z" />
        <path
   d="M496.063,159.307L496.063,139.464L416.693,139.464L416.693,179.15L515.905,179.15L515.905,159.307L496.063,159.307Z"
   style="fill:rgb(0,79,147);fill-rule:nonzero;"
   id="hat" />
        <path
   id="right_hair"
   style="fill:#231f20;fill-rule:nonzero"
   d="m 496.06299,179.14999 h 19.842 V 218.835 h -19.842 z m -99.21198,-19.84298 h 19.842 v 59.528 h -19.842 z" />
        <path
   d="M565.512,218.835L565.512,278.362L575.433,278.362L575.433,258.52L595.275,258.52L595.275,278.331L605.197,278.331L605.197,218.835L565.512,218.835Z"
   style="fill:rgb(35,31,32);fill-rule:nonzero;"
   id="path14" />
        <path
   d="M406.771,397.418L406.771,456.945L367.087,456.945L367.087,496.63L426.614,496.63L426.614,476.788L446.457,476.788L446.457,437.102L486.142,437.102L486.142,496.63L466.299,496.63L466.299,516.473L446.457,516.473L446.457,556.158L486.142,556.158L486.142,536.315L505.984,536.315L505.984,516.473L525.827,516.473L525.827,397.418L406.771,397.418Z"
   style="fill:rgb(255,207,39);fill-rule:nonzero;"
   id="right_pants" />
        <path
   d="M565.512,278.362L545.669,278.362L545.669,258.52L386.929,258.52L386.929,278.362L367.087,278.362L367.087,298.205L347.244,298.205L347.244,318.047L327.401,318.047L327.401,337.89L307.559,337.89L307.559,357.732L347.244,357.732L347.244,337.89L367.087,337.89L367.087,318.047L386.929,318.047L386.929,298.205L406.771,298.205L406.771,397.418L525.827,397.418L525.827,298.205L545.669,298.205L545.669,318.047L565.512,318.047L565.512,337.89L585.354,337.89L585.354,318.047L605.197,318.047L605.197,298.205L565.512,298.205L565.512,278.362Z"
   style="fill:rgb(243,113,35);fill-rule:nonzero;"
   id="right_shirt" />
        <rect
   x="585.354"
   y="278.349"
   width="19.843"
   height="19.843"
   style="fill:rgb(243,113,35);fill-rule:nonzero;"
   id="rect20" />
        <path
   d="M188.504,159.307L188.504,139.464L168.661,139.464L168.661,119.622L128.977,119.622L128.977,139.464L109.134,139.464L109.134,159.307L89.291,159.307L89.291,198.992L109.134,198.992L109.134,179.15L188.504,179.15L188.504,198.992L208.347,198.992L208.347,159.307L188.504,159.307Z"
   style="fill:rgb(35,31,32);fill-rule:nonzero;"
   id="left_hair" />
        <rect
   x="0"
   y="377.575"
   width="39.685"
   height="39.685"
   style="fill:rgb(35,31,32);fill-rule:nonzero;"
   id="rect24" />
        
        <path
   d="M69.448,456.945L29.763,456.945L29.763,516.473L49.606,516.473L49.606,496.63L69.448,496.63L69.448,456.945Z"
   style="fill:rgb(35,31,32);fill-rule:nonzero;"
   id="path28" />
        <path
   d="M148.819,516.473L109.134,516.473L109.134,576L128.977,576L128.977,556.158L148.819,556.158L148.819,516.473Z"
   style="fill:rgb(35,31,32);fill-rule:nonzero;"
   id="path30" />
        <path
   id="left_pants"
   style="fill:rgb(5,180,141);fill-rule:nonzero;"
   d="m 208.347,456.945 h -39.686 v 39.685 h -19.842 v 59.528 h 19.842 v -19.843 h 19.843 v -19.842 h 19.843 z m -79.37,0 H 69.448 v 39.685 h 39.686 v -19.842 h 19.843 z" />
        <path
   d="M287.717,337.89L287.717,318.047L267.874,318.047L267.874,298.205L248.031,298.205L248.031,278.362L228.189,278.362L228.189,258.52L69.448,258.52L69.448,278.362L49.606,278.362L49.606,298.205L29.763,298.205L29.763,318.047L9.921,318.047L9.921,357.732L29.763,357.732L29.763,337.89L49.606,337.89L49.606,318.047L69.448,318.047L69.448,298.205L89.291,298.205L89.291,456.945L208.347,456.945L208.347,298.205L228.189,298.205L228.189,318.047L248.031,318.047L248.031,337.89L267.874,337.89L267.874,357.732L307.559,357.732L307.559,337.89L287.717,337.89Z"
   style="fill:rgb(0,170,229);fill-rule:nonzero;"
   id="left_shirt" />
        <path
   d="M535.748,79.938L396.851,79.938L396.851,109.701L367.087,79.938L228.189,79.938L198.425,109.701L198.425,79.938L39.685,79.938L39.685,0.567L535.748,0.567L535.748,79.938Z"
   style="fill:rgb(255,207,39);fill-rule:nonzero;"
   id="bubble" />
        
        
        
        <path
   id="left_skin"
   style="fill:rgb(218,179,144);fill-rule:nonzero;"
   d="m 307.559,357.732 h -9.921 v 19.843 h 9.921 z m -297.6380005,-1e-5 H 29.762999 V 377.575 H 9.9209995 Z M 109.134,179.15 v 69.448 h 19.843 v 9.922 h 39.684 v -9.922 h 19.843 V 179.15 Z" />
        <path
   d="M426.47,536.387L426.47,576L446.276,576L446.276,536.387L426.47,536.387Z"
   style="fill:rgb(30,172,228);fill-rule:nonzero;"
   id="path46" />
        <path
   d="M347.244,476.967L347.244,516.581L367.051,516.581L367.051,476.967L347.244,476.967Z"
   style="fill:rgb(30,172,228);fill-rule:nonzero;"
   id="path48" />
        <rect
   x="168.661"
   y="198.992"
   width="9.922"
   height="9.922"
   style="fill:rgb(106,196,159);fill-rule:nonzero;"
   id="rect50" />
        <rect
   x="158.74"
   y="198.992"
   width="9.921"
   height="9.922"
   style="fill:rgb(106,196,159);fill-rule:nonzero;"
   id="rect52" />
        <rect
   x="119.055"
   y="198.992"
   width="9.922"
   height="9.922"
   style="fill:white;fill-rule:nonzero;"
   id="rect54" />
        <rect
   x="128.977"
   y="198.992"
   width="9.92"
   height="9.922"
   style="fill:rgb(35,31,32);fill-rule:nonzero;"
   id="rect56" />
        <rect
   x="158.74"
   y="198.992"
   width="9.921"
   height="9.922"
   style="fill:white;fill-rule:nonzero;"
   id="rect58" />
        <rect
   x="168.661"
   y="198.992"
   width="9.922"
   height="9.922"
   style="fill:rgb(35,31,32);fill-rule:nonzero;"
   id="rect60" />
        <rect
   x="426.614"
   y="536.315"
   width="19.491"
   height="39.685"
   style="fill:rgb(35,31,32);fill-rule:nonzero;"
   id="rect62" />
        <rect
   x="347.244"
   y="476.788"
   width="19.491"
   height="39.685"
   style="fill:rgb(35,31,32);fill-rule:nonzero;"
   id="rect64" />
        <rect
   x="446.457"
   y="218.835"
   width="19.842"
   height="9.921"
   style="fill:rgb(0,79,147);fill-rule:nonzero;"
   id="right_lips" />
        <rect
   x="138.897"
   y="228.756"
   width="19.843"
   height="9.921"
   style="fill:rgb(240,75,84);fill-rule:nonzero;"
   id="left_lips" />
        <rect
   x="29.763"
   y="357.732"
   width="9.922"
   height="29.764"
   style="fill:rgb(35,31,32);fill-rule:nonzero;"
   id="rect70" />
        <rect
   x="0"
   y="357.732"
   width="9.921"
   height="39.686"
   style="fill:rgb(35,31,32);fill-rule:nonzero;"
   id="rect72" />
        <rect
   x="436.535"
   y="189.071"
   width="9.922"
   height="9.921"
   style="fill:rgb(35,31,32);fill-rule:nonzero;"
   id="rect74" />
        <rect
   x="476.221"
   y="189.071"
   width="9.921"
   height="9.921"
   style="fill:rgb(35,31,32);fill-rule:nonzero;"
   id="rect76" />
        <rect
   x="466.299"
   y="189.071"
   width="9.922"
   height="9.921"
   style="fill:white;fill-rule:nonzero;"
   id="rect78" />
        <rect
   x="426.614"
   y="189.071"
   width="9.921"
   height="9.921"
   style="fill:white;fill-rule:nonzero;"
   id="rect80" />
        
        <path
   d="M81.849,51.409L86.498,51.409L86.498,56.059L81.849,56.059L81.849,51.409ZM81.849,26.609L86.498,26.609L86.498,31.259L81.849,31.259L81.849,26.609ZM75.648,45.21L80.298,45.21L80.298,49.859L75.648,49.859L75.648,45.21ZM75.648,32.809L80.298,32.809L80.298,37.46L75.648,37.46L75.648,32.809ZM69.448,39.009L74.099,39.009L74.099,43.659L69.448,43.659L69.448,39.009Z"
   style="fill:white;fill-rule:nonzero;"
   id="path84" />
        <path
   d="M94.248,57.609L98.898,57.609L98.898,62.259L94.248,62.259L94.248,57.609ZM94.248,45.21L98.898,45.21L98.898,49.859L94.248,49.859L94.248,45.21ZM94.248,39.009L98.898,39.009L98.898,43.659L94.248,43.659L94.248,39.009ZM94.248,32.809L98.898,32.809L98.898,37.46L94.248,37.46L94.248,32.809ZM94.248,26.609L98.898,26.609L98.898,31.259L94.248,31.259L94.248,26.609ZM94.248,20.409L98.898,20.409L98.898,25.059L94.248,25.059L94.248,20.409Z"
   style="fill:white;fill-rule:nonzero;"
   id="path86" />
        <path
   d="M119.048,57.609L123.698,57.609L123.698,62.259L119.048,62.259L119.048,57.609ZM119.048,20.409L123.698,20.409L123.698,25.059L119.048,25.059L119.048,20.409ZM112.848,57.609L117.498,57.609L117.498,62.259L112.848,62.259L112.848,57.609ZM112.848,20.409L117.498,20.409L117.498,25.059L112.848,25.059L112.848,20.409ZM106.648,57.609L111.298,57.609L111.298,62.259L106.648,62.259L106.648,57.609ZM106.648,51.409L111.298,51.409L111.298,56.059L106.648,56.059L106.648,51.409ZM106.648,45.21L111.298,45.21L111.298,49.859L106.648,49.859L106.648,45.21ZM106.648,39.009L111.298,39.009L111.298,43.659L106.648,43.659L106.648,39.009ZM106.648,32.809L111.298,32.809L111.298,37.46L106.648,37.46L106.648,32.809ZM106.648,26.609L111.298,26.609L111.298,31.259L106.648,31.259L106.648,26.609ZM106.648,20.409L111.298,20.409L111.298,25.059L106.648,25.059L106.648,20.409Z"
   style="fill:white;fill-rule:nonzero;"
   id="path88" />
        <path
   d="M156.248,54.509L160.897,54.509L160.897,59.159L156.248,59.159L156.248,54.509ZM156.248,23.509L160.897,23.509L160.897,28.159L156.248,28.159L156.248,23.509ZM150.048,57.609L154.698,57.609L154.698,62.259L150.048,62.259L150.048,57.609ZM150.048,20.409L154.698,20.409L154.698,25.059L150.048,25.059L150.048,20.409ZM143.848,57.609L148.498,57.609L148.498,62.259L143.848,62.259L143.848,57.609ZM143.848,20.409L148.498,20.409L148.498,25.059L143.848,25.059L143.848,20.409ZM137.648,57.609L142.297,57.609L142.297,62.259L137.648,62.259L137.648,57.609ZM137.648,20.409L142.297,20.409L142.297,25.059L137.648,25.059L137.648,20.409ZM131.448,54.509L136.098,54.509L136.098,59.159L131.448,59.159L131.448,54.509ZM131.448,48.309L136.098,48.309L136.098,52.96L131.448,52.96L131.448,48.309ZM131.448,42.109L136.098,42.109L136.098,46.759L131.448,46.759L131.448,42.109ZM131.448,35.909L136.098,35.909L136.098,40.559L131.448,40.559L131.448,35.909ZM131.448,29.71L136.098,29.71L136.098,34.359L131.448,34.359L131.448,29.71ZM131.448,23.509L136.098,23.509L136.098,28.159L131.448,28.159L131.448,23.509Z"
   style="fill:white;fill-rule:nonzero;"
   id="path90" />
        <path
   d="M193.447,54.509L198.098,54.509L198.098,59.159L193.447,59.159L193.447,54.509ZM193.447,48.309L198.098,48.309L198.098,52.96L193.447,52.96L193.447,48.309ZM193.447,42.109L198.098,42.109L198.098,46.759L193.447,46.759L193.447,42.109ZM193.447,35.909L198.098,35.909L198.098,40.559L193.447,40.559L193.447,35.909ZM193.447,29.71L198.098,29.71L198.098,34.359L193.447,34.359L193.447,29.71ZM193.447,23.509L198.098,23.509L198.098,28.159L193.447,28.159L193.447,23.509ZM187.247,57.609L191.897,57.609L191.897,62.259L187.247,62.259L187.247,57.609ZM187.247,20.409L191.897,20.409L191.897,25.059L187.247,25.059L187.247,20.409ZM181.048,57.609L185.697,57.609L185.697,62.259L181.048,62.259L181.048,57.609ZM181.048,20.409L185.697,20.409L185.697,25.059L181.048,25.059L181.048,20.409ZM174.848,57.609L179.497,57.609L179.497,62.259L174.848,62.259L174.848,57.609ZM174.848,20.409L179.497,20.409L179.497,25.059L174.848,25.059L174.848,20.409ZM168.647,54.509L173.298,54.509L173.298,59.159L168.647,59.159L168.647,54.509ZM168.647,48.309L173.298,48.309L173.298,52.96L168.647,52.96L168.647,48.309ZM168.647,42.109L173.298,42.109L173.298,46.759L168.647,46.759L168.647,42.109ZM168.647,35.909L173.298,35.909L173.298,40.559L168.647,40.559L168.647,35.909ZM168.647,29.71L173.298,29.71L173.298,34.359L168.647,34.359L168.647,29.71ZM168.647,23.509L173.298,23.509L173.298,28.159L168.647,28.159L168.647,23.509Z"
   style="fill:white;fill-rule:nonzero;"
   id="path92" />
        <path
   d="M230.647,54.509L235.298,54.509L235.298,59.159L230.647,59.159L230.647,54.509ZM230.647,48.309L235.298,48.309L235.298,52.96L230.647,52.96L230.647,48.309ZM230.647,42.109L235.298,42.109L235.298,46.759L230.647,46.759L230.647,42.109ZM230.647,35.909L235.298,35.909L235.298,40.559L230.647,40.559L230.647,35.909ZM230.647,29.71L235.298,29.71L235.298,34.359L230.647,34.359L230.647,29.71ZM230.647,23.509L235.298,23.509L235.298,28.159L230.647,28.159L230.647,23.509ZM224.447,57.609L229.098,57.609L229.098,62.259L224.447,62.259L224.447,57.609ZM224.447,20.409L229.098,20.409L229.098,25.059L224.447,25.059L224.447,20.409ZM218.248,57.609L222.897,57.609L222.897,62.259L218.248,62.259L218.248,57.609ZM218.248,20.409L222.897,20.409L222.897,25.059L218.248,25.059L218.248,20.409ZM212.048,57.609L216.697,57.609L216.697,62.259L212.048,62.259L212.048,57.609ZM212.048,20.409L216.697,20.409L216.697,25.059L212.048,25.059L212.048,20.409ZM205.848,57.609L210.498,57.609L210.498,62.259L205.848,62.259L205.848,57.609ZM205.848,51.409L210.498,51.409L210.498,56.059L205.848,56.059L205.848,51.409ZM205.848,45.21L210.498,45.21L210.498,49.859L205.848,49.859L205.848,45.21ZM205.848,39.009L210.498,39.009L210.498,43.659L205.848,43.659L205.848,39.009ZM205.848,32.809L210.498,32.809L210.498,37.46L205.848,37.46L205.848,32.809ZM205.848,26.609L210.498,26.609L210.498,31.259L205.848,31.259L205.848,26.609ZM205.848,20.409L210.498,20.409L210.498,25.059L205.848,25.059L205.848,20.409Z"
   style="fill:white;fill-rule:nonzero;"
   id="path94" />
        <path
   d="M267.848,57.609L272.498,57.609L272.498,62.259L267.848,62.259L267.848,57.609ZM267.848,51.409L272.498,51.409L272.498,56.059L267.848,56.059L267.848,51.409ZM267.848,45.21L272.498,45.21L272.498,49.859L267.848,49.859L267.848,45.21ZM267.848,39.009L272.498,39.009L272.498,43.659L267.848,43.659L267.848,39.009ZM267.848,32.809L272.498,32.809L272.498,37.46L267.848,37.46L267.848,32.809ZM267.848,26.609L272.498,26.609L272.498,31.259L267.848,31.259L267.848,26.609ZM261.647,42.109L266.298,42.109L266.298,46.759L261.647,46.759L261.647,42.109ZM261.647,21.96L266.298,21.96L266.298,26.609L261.647,26.609L261.647,21.96ZM255.448,42.109L260.097,42.109L260.097,46.759L255.448,46.759L255.448,42.109ZM255.448,20.409L260.097,20.409L260.097,25.059L255.448,25.059L255.448,20.409ZM249.248,42.109L253.897,42.109L253.897,46.759L249.248,46.759L249.248,42.109ZM249.248,21.96L253.897,21.96L253.897,26.609L249.248,26.609L249.248,21.96ZM243.048,57.609L247.698,57.609L247.698,62.259L243.048,62.259L243.048,57.609ZM243.048,51.409L247.698,51.409L247.698,56.059L243.048,56.059L243.048,51.409ZM243.048,45.21L247.698,45.21L247.698,49.859L243.048,49.859L243.048,45.21ZM243.048,39.009L247.698,39.009L247.698,43.659L243.048,43.659L243.048,39.009ZM243.048,32.809L247.698,32.809L247.698,37.46L243.048,37.46L243.048,32.809ZM243.048,26.609L247.698,26.609L247.698,31.259L243.048,31.259L243.048,26.609Z"
   style="fill:white;fill-rule:nonzero;"
   id="path96" />
        <path
   d="M305.048,20.409L309.698,20.409L309.698,25.059L305.048,25.059L305.048,20.409ZM298.848,20.409L303.498,20.409L303.498,25.059L298.848,25.059L298.848,20.409ZM292.648,57.609L297.298,57.609L297.298,62.259L292.648,62.259L292.648,57.609ZM292.648,51.409L297.298,51.409L297.298,56.059L292.648,56.059L292.648,51.409ZM292.648,45.21L297.298,45.21L297.298,49.859L292.648,49.859L292.648,45.21ZM292.648,39.009L297.298,39.009L297.298,43.659L292.648,43.659L292.648,39.009ZM292.648,32.809L297.298,32.809L297.298,37.46L292.648,37.46L292.648,32.809ZM292.648,26.609L297.298,26.609L297.298,31.259L292.648,31.259L292.648,26.609ZM292.648,20.409L297.298,20.409L297.298,25.059L292.648,25.059L292.648,20.409ZM286.448,20.409L291.098,20.409L291.098,25.059L286.448,25.059L286.448,20.409ZM280.248,20.409L284.898,20.409L284.898,25.059L280.248,25.059L280.248,20.409Z"
   style="fill:white;fill-rule:nonzero;"
   id="path98" />
        <path
   d="M342.248,57.609L346.898,57.609L346.898,62.259L342.248,62.259L342.248,57.609ZM342.248,51.409L346.898,51.409L346.898,56.059L342.248,56.059L342.248,51.409ZM342.248,45.21L346.898,45.21L346.898,49.859L342.248,49.859L342.248,45.21ZM342.248,39.009L346.898,39.009L346.898,43.659L342.248,43.659L342.248,39.009ZM342.248,32.809L346.898,32.809L346.898,37.46L342.248,37.46L342.248,32.809ZM342.248,26.609L346.898,26.609L346.898,31.259L342.248,31.259L342.248,26.609ZM336.048,42.109L340.698,42.109L340.698,46.759L336.048,46.759L336.048,42.109ZM336.048,21.96L340.698,21.96L340.698,26.609L336.048,26.609L336.048,21.96ZM329.849,42.109L334.498,42.109L334.498,46.759L329.849,46.759L329.849,42.109ZM329.849,20.409L334.498,20.409L334.498,25.059L329.849,25.059L329.849,20.409ZM323.648,42.109L328.298,42.109L328.298,46.759L323.648,46.759L323.648,42.109ZM323.648,21.96L328.298,21.96L328.298,26.609L323.648,26.609L323.648,21.96ZM317.448,57.609L322.099,57.609L322.099,62.259L317.448,62.259L317.448,57.609ZM317.448,51.409L322.099,51.409L322.099,56.059L317.448,56.059L317.448,51.409ZM317.448,45.21L322.099,45.21L322.099,49.859L317.448,49.859L317.448,45.21ZM317.448,39.009L322.099,39.009L322.099,43.659L317.448,43.659L317.448,39.009ZM317.448,32.809L322.099,32.809L322.099,37.46L317.448,37.46L317.448,32.809ZM317.448,26.609L322.099,26.609L322.099,31.259L317.448,31.259L317.448,26.609Z"
   style="fill:white;fill-rule:nonzero;"
   id="path100" />
        <path
   d="M379.448,54.509L384.099,54.509L384.099,59.159L379.448,59.159L379.448,54.509ZM379.448,23.509L384.099,23.509L384.099,28.159L379.448,28.159L379.448,23.509ZM373.248,57.609L377.898,57.609L377.898,62.259L373.248,62.259L373.248,57.609ZM373.248,20.409L377.898,20.409L377.898,25.059L373.248,25.059L373.248,20.409ZM367.049,57.609L371.698,57.609L371.698,62.259L367.049,62.259L367.049,57.609ZM367.049,20.409L371.698,20.409L371.698,25.059L367.049,25.059L367.049,20.409ZM360.849,57.609L365.498,57.609L365.498,62.259L360.849,62.259L360.849,57.609ZM360.849,20.409L365.498,20.409L365.498,25.059L360.849,25.059L360.849,20.409ZM354.648,54.509L359.299,54.509L359.299,59.159L354.648,59.159L354.648,54.509ZM354.648,48.309L359.299,48.309L359.299,52.96L354.648,52.96L354.648,48.309ZM354.648,42.109L359.299,42.109L359.299,46.759L354.648,46.759L354.648,42.109ZM354.648,35.909L359.299,35.909L359.299,40.559L354.648,40.559L354.648,35.909ZM354.648,29.71L359.299,29.71L359.299,34.359L354.648,34.359L354.648,29.71ZM354.648,23.509L359.299,23.509L359.299,28.159L354.648,28.159L354.648,23.509Z"
   style="fill:white;fill-rule:nonzero;"
   id="path102" />
        <path
   d="M419.749,26.609L424.399,26.609L424.399,31.259L419.749,31.259L419.749,26.609ZM413.549,32.809L418.199,32.809L418.199,37.46L413.549,37.46L413.549,32.809ZM407.349,39.009L411.999,39.009L411.999,43.659L407.349,43.659L407.349,39.009ZM401.149,45.21L405.799,45.21L405.799,49.859L401.149,49.859L401.149,45.21ZM394.949,51.409L399.599,51.409L399.599,56.059L394.949,56.059L394.949,51.409ZM388.749,57.609L393.399,57.609L393.399,62.259L388.749,62.259L388.749,57.609Z"
   style="fill:white;fill-rule:nonzero;"
   id="path104" />
        <path
   d="M453.848,26.609L458.498,26.609L458.498,31.259L453.848,31.259L453.848,26.609ZM447.647,32.809L452.298,32.809L452.298,37.46L447.647,37.46L447.647,32.809ZM441.447,39.009L446.098,39.009L446.098,43.659L441.447,43.659L441.447,39.009ZM435.248,45.21L439.897,45.21L439.897,49.859L435.248,49.859L435.248,45.21ZM429.048,51.409L433.697,51.409L433.697,56.059L429.048,56.059L429.048,51.409ZM422.848,57.609L427.498,57.609L427.498,62.259L422.848,62.259L422.848,57.609Z"
   style="fill:white;fill-rule:nonzero;"
   id="path106" />
        <path
   d="M478.647,57.609L483.297,57.609L483.297,62.259L478.647,62.259L478.647,57.609ZM478.647,51.409L483.297,51.409L483.297,56.059L478.647,56.059L478.647,51.409ZM478.647,45.21L483.297,45.21L483.297,49.859L478.647,49.859L478.647,45.21ZM478.647,39.009L483.297,39.009L483.297,43.659L478.647,43.659L478.647,39.009ZM478.647,32.809L483.297,32.809L483.297,37.46L478.647,37.46L478.647,32.809ZM478.647,26.609L483.297,26.609L483.297,31.259L478.647,31.259L478.647,26.609ZM478.647,20.409L483.297,20.409L483.297,25.059L478.647,25.059L478.647,20.409ZM472.447,57.609L477.097,57.609L477.097,62.259L472.447,62.259L472.447,57.609ZM472.447,20.409L477.097,20.409L477.097,25.059L472.447,25.059L472.447,20.409ZM466.247,57.609L470.897,57.609L470.897,62.259L466.247,62.259L466.247,57.609ZM466.247,20.409L470.897,20.409L470.897,25.059L466.247,25.059L466.247,20.409Z"
   style="fill:white;fill-rule:nonzero;"
   id="path108" />
        <path
   d="M503.447,39.009L508.097,39.009L508.097,43.659L503.447,43.659L503.447,39.009ZM497.247,45.21L501.896,45.21L501.896,49.859L497.247,49.859L497.247,45.21ZM497.247,32.809L501.896,32.809L501.896,37.46L497.247,37.46L497.247,32.809ZM491.047,51.409L495.697,51.409L495.697,56.059L491.047,56.059L491.047,51.409ZM491.047,26.609L495.697,26.609L495.697,31.259L491.047,31.259L491.047,26.609Z"
   style="fill:white;fill-rule:nonzero;"
   id="path110" />
    </g>
</svg>
