<?xml version="1.0" encoding="UTF-8" standalone="no"?>
<svg
   width="100%"
   height="100%"
   viewBox="0 0 2234 746"
   version="1.1"
   xml:space="preserve"
   style="fill-rule:evenodd;clip-rule:evenodd;stroke-linejoin:round;stroke-miterlimit:2;"
   id="svg18"
   xmlns="http://www.w3.org/2000/svg"
   xmlns:svg="http://www.w3.org/2000/svg"><defs
   id="defs22" />
    <g
   transform="matrix(4.16667,0,0,4.16667,0,0)"
   id="g16">
        
        <path
   id="glass"
   style="fill:rgb(197,206,212);fill-rule:nonzero;"
   d="M 496.063,119.472 V 40.102 H 317.48 v 79.37 h 19.843 v 19.842 h 19.842 v 19.842 h 99.213 v -19.842 h 19.842 v -19.842 z m -277.796,0 V 40.102 H 39.684 v 79.37 h 19.843 v 19.842 h 19.842 v 19.842 h 99.213 v -19.842 h 19.843 v -19.842 z" />
        <path
   d="M 297.638,0.417 V 40.103 H 238.11 V 0.417 H 0 v 59.527 h 19.842 v 79.37 h 19.843 v 19.843 H 59.528 V 179 h 138.897 v -19.843 h 19.843 V 139.314 H 238.11 V 99.629 h 19.843 V 79.788 h 19.842 v 19.841 h 19.843 v 39.685 h 19.842 v 19.843 h 19.843 V 179 h 138.898 v -19.843 h 19.842 v -19.843 h 19.842 v -79.37 h 19.843 V 0.417 Z m 19.842,39.686 h 178.583 v 79.369 h -19.842 v 19.842 h -19.843 v 19.843 H 357.165 V 139.314 H 337.323 V 119.472 H 317.48 Z m -277.795,0 h 178.583 v 79.369 h -19.843 v 19.842 h -19.843 v 19.843 H 79.37 V 139.314 H 59.528 V 119.472 H 39.685 Z"
   style="fill:#231f20;fill-rule:nonzero"
   id="frame" />
        <path
   d="M109.134,99.63L109.134,69.866L79.37,69.866L79.37,99.63L109.134,99.63Z"
   style="fill:rgb(0,170,229);fill-rule:nonzero;"
   id="path8" />
        <path
   d="M138.897,99.63L138.897,69.866L109.134,69.866L109.134,99.63L138.897,99.63Z"
   style="fill:white;fill-rule:nonzero;"
   id="path10" />
        <path
   d="M386.93,99.63L386.93,69.866L357.165,69.866L357.165,99.63L386.93,99.63Z"
   style="fill:rgb(0,170,229);fill-rule:nonzero;"
   id="path12" />
        <path
   d="M416.693,99.63L416.693,69.866L386.929,69.866L386.929,99.63L416.693,99.63Z"
   style="fill:white;fill-rule:nonzero;"
   id="path14" />
    </g>
</svg>
