<?xml version="1.0" encoding="UTF-8" standalone="no"?>
<svg
   width="100%"
   height="100%"
   viewBox="0 0 1200 1534"
   version="1.1"
   xml:space="preserve"
   style="fill-rule:evenodd;clip-rule:evenodd;stroke-linejoin:round;stroke-miterlimit:2;"
   id="svg148"
   xmlns="http://www.w3.org/2000/svg"
   xmlns:svg="http://www.w3.org/2000/svg"><defs
   id="defs152" />
    <g
   transform="matrix(4.16667,0,0,4.16667,0,0)"
   id="g146">
        
        
        <path
   id="keyboard"
   style="fill:#ffcf27;fill-rule:nonzero"
   d="M 39.685001,100.08 H 218.26799 v 29.81 H 39.685001 Z m 39.685002,19.888 H 228.189 v 29.81 H 79.370003 Z M 39.685001,129.89 H 188.504 v 9.966 H 39.685001 Z" />
        <rect
   x="59.527"
   y="0.913"
   width="148.82"
   height="9.922"
   style="fill:rgb(35,31,32);fill-rule:nonzero;"
   id="rect8" />
        <rect
   x="49.606"
   y="10.897"
   width="9.921"
   height="89.183"
   style="fill:rgb(35,31,32);fill-rule:nonzero;"
   id="rect10" />
        <rect
   x="59.749"
   y="89.913"
   width="148.598"
   height="10.213"
   style="fill:rgb(35,31,32);fill-rule:nonzero;"
   id="rect12" />
        <rect
   x="208.281"
   y="10.881"
   width="9.987"
   height="89.245"
   style="fill:rgb(35,31,32);fill-rule:nonzero;"
   id="rect14" />
        <rect
   x="59.527"
   y="10.835"
   width="148.82"
   height="79.37"
   style="fill:rgb(0,170,229);fill-rule:nonzero;"
   id="rect16" />
        <rect
   x="39.685"
   y="100.126"
   width="9.921"
   height="19.787"
   style="fill:rgb(35,31,32);fill-rule:nonzero;"
   id="rect18" />
        <rect
   x="59.749"
   y="109.996"
   width="9.917"
   height="9.917"
   style="fill:rgb(35,31,32);fill-rule:nonzero;"
   id="rect20" />
        <rect
   x="79.578"
   y="109.996"
   width="9.917"
   height="9.917"
   style="fill:rgb(35,31,32);fill-rule:nonzero;"
   id="rect22" />
        <rect
   x="99.684"
   y="109.996"
   width="9.27"
   height="10.167"
   style="fill:rgb(35,31,32);fill-rule:nonzero;"
   id="rect24" />
        <rect
   x="119.135"
   y="109.996"
   width="9.915"
   height="9.917"
   style="fill:rgb(35,31,32);fill-rule:nonzero;"
   id="rect26" />
        <rect
   x="138.899"
   y="109.996"
   width="9.916"
   height="9.917"
   style="fill:rgb(35,31,32);fill-rule:nonzero;"
   id="rect28" />
        <rect
   x="158.74"
   y="110.047"
   width="9.921"
   height="9.921"
   style="fill:rgb(35,31,32);fill-rule:nonzero;"
   id="rect30" />
        <rect
   x="178.587"
   y="110.052"
   width="9.917"
   height="9.916"
   style="fill:rgb(35,31,32);fill-rule:nonzero;"
   id="rect32" />
        <rect
   x="29.798"
   y="119.913"
   width="9.887"
   height="19.833"
   style="fill:rgb(35,31,32);fill-rule:nonzero;"
   id="rect34" />
        <rect
   x="49.606"
   y="129.89"
   width="9.921"
   height="9.92"
   style="fill:rgb(35,31,32);fill-rule:nonzero;"
   id="rect36" />
        <rect
   x="69.448"
   y="129.89"
   width="9.922"
   height="9.92"
   style="fill:rgb(35,31,32);fill-rule:nonzero;"
   id="rect38" />
        <rect
   x="89.291"
   y="129.89"
   width="89.292"
   height="9.92"
   style="fill:rgb(35,31,32);fill-rule:nonzero;"
   id="rect40" />
        <rect
   x="188.504"
   y="129.89"
   width="9.456"
   height="9.92"
   style="fill:rgb(35,31,32);fill-rule:nonzero;"
   id="rect42" />
        <rect
   x="189.077"
   y="129.89"
   width="9.348"
   height="9.92"
   style="fill:rgb(35,31,32);fill-rule:nonzero;"
   id="rect44" />
        <rect
   x="218.268"
   y="100.08"
   width="9.917"
   height="19.833"
   style="fill:rgb(35,31,32);fill-rule:nonzero;"
   id="rect46" />
        <rect
   x="228.189"
   y="119.913"
   width="9.916"
   height="39.504"
   style="fill:rgb(35,31,32);fill-rule:nonzero;"
   id="rect48" />
        <rect
   x="79.37"
   y="149.913"
   width="148.819"
   height="9.74"
   style="fill:rgb(35,31,32);fill-rule:nonzero;"
   id="rect50" />
        <rect
   x="79.378"
   y="149.739"
   width="9.916"
   height="9.916"
   style="fill:rgb(35,31,32);fill-rule:nonzero;"
   id="rect52" />
        <rect
   x="59.527"
   y="139.81"
   width="9.921"
   height="59.528"
   style="fill:rgb(35,31,32);fill-rule:nonzero;"
   id="rect54" />
        <rect
   x="39.685"
   y="139.81"
   width="9.921"
   height="59.528"
   style="fill:rgb(35,31,32);fill-rule:nonzero;"
   id="rect56" />
        <rect
   x="19.842"
   y="139.81"
   width="9.921"
   height="59.528"
   style="fill:rgb(35,31,32);fill-rule:nonzero;"
   id="rect58" />
        <rect
   x="0"
   y="169.575"
   width="9.921"
   height="69.448"
   style="fill:rgb(35,31,32);fill-rule:nonzero;"
   id="rect60" />
        <rect
   x="9.921"
   y="239.023"
   width="9.921"
   height="29.764"
   style="fill:rgb(35,31,32);fill-rule:nonzero;"
   id="rect62" />
        <rect
   x="19.842"
   y="268.787"
   width="9.921"
   height="49.606"
   style="fill:rgb(35,31,32);fill-rule:nonzero;"
   id="rect64" />
        <rect
   x="79.37"
   y="278.708"
   width="9.921"
   height="39.685"
   style="fill:rgb(35,31,32);fill-rule:nonzero;"
   id="rect66" />
        <rect
   x="29.763"
   y="308.472"
   width="49.607"
   height="9.921"
   style="fill:rgb(35,31,32);fill-rule:nonzero;"
   id="rect68" />
        <rect
   x="89.291"
   y="258.866"
   width="9.921"
   height="19.842"
   style="fill:rgb(35,31,32);fill-rule:nonzero;"
   id="rect70" />
        <rect
   x="99.212"
   y="239.023"
   width="9.922"
   height="19.843"
   style="fill:rgb(35,31,32);fill-rule:nonzero;"
   id="rect72" />
        <rect
   x="109.134"
   y="219.181"
   width="9.921"
   height="19.842"
   style="fill:rgb(35,31,32);fill-rule:nonzero;"
   id="rect74" />
        <rect
   x="99.212"
   y="209.26"
   width="9.922"
   height="9.921"
   style="fill:rgb(35,31,32);fill-rule:nonzero;"
   id="rect76" />
        <rect
   x="89.291"
   y="219.181"
   width="9.921"
   height="9.921"
   style="fill:rgb(35,31,32);fill-rule:nonzero;"
   id="rect78" />
        <rect
   x="79.37"
   y="139.81"
   width="9.921"
   height="99.213"
   style="fill:rgb(35,31,32);fill-rule:nonzero;"
   id="rect80" />
        <rect
   x="158.74"
   y="169.575"
   width="9.921"
   height="9.921"
   style="fill:rgb(35,31,32);fill-rule:nonzero;"
   id="rect82" />
        <rect
   x="168.661"
   y="179.496"
   width="9.922"
   height="9.921"
   style="fill:rgb(35,31,32);fill-rule:nonzero;"
   id="rect84" />
        <rect
   x="148.819"
   y="179.496"
   width="9.921"
   height="19.842"
   style="fill:rgb(35,31,32);fill-rule:nonzero;"
   id="rect86" />
        <rect
   x="178.583"
   y="189.417"
   width="9.921"
   height="49.606"
   style="fill:rgb(35,31,32);fill-rule:nonzero;"
   id="rect88" />
        <rect
   x="198.425"
   y="199.338"
   width="9.922"
   height="39.685"
   style="fill:rgb(35,31,32);fill-rule:nonzero;"
   id="rect90" />
        <rect
   x="218.268"
   y="199.338"
   width="9.921"
   height="39.685"
   style="fill:rgb(35,31,32);fill-rule:nonzero;"
   id="rect92" />
        <rect
   x="188.504"
   y="199.338"
   width="49.606"
   height="9.922"
   style="fill:rgb(35,31,32);fill-rule:nonzero;"
   id="rect94" />
        <rect
   x="238.11"
   y="209.26"
   width="9.921"
   height="39.685"
   style="fill:rgb(35,31,32);fill-rule:nonzero;"
   id="rect96" />
        <rect
   x="248.031"
   y="248.945"
   width="9.922"
   height="49.606"
   style="fill:rgb(35,31,32);fill-rule:nonzero;"
   id="rect98" />
        <rect
   x="257.953"
   y="298.551"
   width="9.921"
   height="9.921"
   style="fill:rgb(35,31,32);fill-rule:nonzero;"
   id="rect100" />
        <rect
   x="267.874"
   y="308.472"
   width="9.921"
   height="9.921"
   style="fill:rgb(35,31,32);fill-rule:nonzero;"
   id="rect102" />
        <rect
   x="277.795"
   y="318.393"
   width="9.922"
   height="9.921"
   style="fill:rgb(35,31,32);fill-rule:nonzero;"
   id="rect104" />
        <rect
   x="267.874"
   y="328.314"
   width="9.921"
   height="9.922"
   style="fill:rgb(35,31,32);fill-rule:nonzero;"
   id="rect106" />
        <rect
   x="257.953"
   y="338.236"
   width="9.921"
   height="9.921"
   style="fill:rgb(35,31,32);fill-rule:nonzero;"
   id="rect108" />
        <rect
   x="248.031"
   y="348.157"
   width="9.922"
   height="9.921"
   style="fill:rgb(35,31,32);fill-rule:nonzero;"
   id="rect110" />
        <rect
   x="218.268"
   y="358.078"
   width="29.763"
   height="9.922"
   style="fill:rgb(35,31,32);fill-rule:nonzero;"
   id="rect112" />
        <rect
   x="208.347"
   y="348.157"
   width="9.921"
   height="9.921"
   style="fill:rgb(35,31,32);fill-rule:nonzero;"
   id="rect114" />
        <rect
   x="198.425"
   y="328.314"
   width="9.922"
   height="19.843"
   style="fill:rgb(35,31,32);fill-rule:nonzero;"
   id="rect116" />
        <rect
   x="188.504"
   y="318.393"
   width="9.921"
   height="9.921"
   style="fill:rgb(35,31,32);fill-rule:nonzero;"
   id="rect118" />
        <rect
   x="168.661"
   y="308.472"
   width="19.843"
   height="9.921"
   style="fill:rgb(35,31,32);fill-rule:nonzero;"
   id="rect120" />
        <rect
   x="158.74"
   y="298.551"
   width="9.921"
   height="9.921"
   style="fill:rgb(35,31,32);fill-rule:nonzero;"
   id="rect122" />
        <rect
   x="148.819"
   y="278.708"
   width="9.921"
   height="29.764"
   style="fill:rgb(35,31,32);fill-rule:nonzero;"
   id="rect124" />
        <rect
   x="138.897"
   y="258.866"
   width="9.922"
   height="19.842"
   style="fill:rgb(35,31,32);fill-rule:nonzero;"
   id="rect126" />
        <rect
   x="128.977"
   y="239.023"
   width="9.92"
   height="19.843"
   style="fill:rgb(35,31,32);fill-rule:nonzero;"
   id="rect128" />
        <rect
   x="138.897"
   y="229.102"
   width="9.922"
   height="9.921"
   style="fill:rgb(35,31,32);fill-rule:nonzero;"
   id="rect130" />
        <rect
   x="148.819"
   y="239.023"
   width="9.921"
   height="9.922"
   style="fill:rgb(35,31,32);fill-rule:nonzero;"
   id="rect132" />
        <rect
   x="158.74"
   y="199.338"
   width="9.921"
   height="59.528"
   style="fill:rgb(35,31,32);fill-rule:nonzero;"
   id="rect134" />
        <rect
   x="208.347"
   y="129.89"
   width="9.347"
   height="9.92"
   style="fill:rgb(35,31,32);fill-rule:nonzero;"
   id="rect136" />
        <rect
   x="198.43"
   y="110.047"
   width="9.917"
   height="9.916"
   style="fill:rgb(35,31,32);fill-rule:nonzero;"
   id="rect138" />
        <rect
   x="9.921"
   y="169.575"
   width="9.921"
   height="9.921"
   style="fill:rgb(35,31,32);fill-rule:nonzero;"
   id="rect140" />
        <path
   d="M99.212,219.181L99.212,229.102L89.291,229.102L89.291,239.023L79.37,239.023L79.37,139.81L69.448,139.81L69.448,199.338L59.527,199.338L59.527,139.81L49.606,139.81L49.606,199.338L39.685,199.338L39.685,139.81L29.763,139.81L29.763,199.338L19.842,199.338L19.842,179.496L9.921,179.496L9.921,239.023L19.842,239.023L19.842,268.787L29.763,268.787L29.763,308.472L79.37,308.472L79.37,278.708L89.291,278.708L89.291,258.866L99.212,258.866L99.212,239.023L109.134,239.023L109.134,219.181L99.212,219.181Z"
   style="fill:white;fill-rule:nonzero;"
   id="path142" />
        <path
   d="M267.874,318.393L267.874,308.472L257.953,308.472L257.953,298.551L248.031,298.551L248.031,248.944L238.11,248.944L238.11,209.26L228.189,209.26L228.189,239.023L218.268,239.023L218.268,209.26L208.347,209.26L208.347,239.023L198.425,239.023L198.425,209.26L188.504,209.26L188.504,239.023L178.583,239.023L178.583,189.417L168.661,189.417L168.661,179.496L158.74,179.496L158.74,199.338L168.661,199.338L168.661,258.866L158.74,258.866L158.74,248.944L148.819,248.944L148.819,239.023L138.897,239.023L138.897,258.866L148.819,258.866L148.819,278.708L158.74,278.708L158.74,298.551L168.661,298.551L168.661,308.472L188.504,308.472L188.504,318.393L198.425,318.393L198.425,328.314L208.347,328.314L208.347,348.157L218.268,348.157L218.268,358.078L248.031,358.078L248.031,348.157L257.953,348.157L257.953,338.236L267.874,338.236L267.874,328.314L277.795,328.314L277.795,318.393L267.874,318.393Z"
   style="fill:white;fill-rule:nonzero;"
   id="path144" />
    </g>
</svg>
