<?xml version="1.0" encoding="UTF-8" standalone="no"?>
<!-- Generator: Adobe Illustrator 23.0.6, SVG Export Plug-In . SVG Version: 6.00 Build 0)  -->

<svg
   version="1.1"
   id="Ebene_1"
   x="0px"
   y="0px"
   viewBox="0 0 297.6 575.4"
   style="enable-background:new 0 0 297.6 575.4;"
   xml:space="preserve"
   xmlns="http://www.w3.org/2000/svg"
   xmlns:svg="http://www.w3.org/2000/svg"><defs
   id="defs83" />
<style
   type="text/css"
   id="style2">
	.st0{fill:#00A6DE;}
	.st1{fill:#00B48D;}
	.st2{fill:#FFFFFF;}
	.st3{fill:#00498C;}
	.st4{fill:#1D1D1B;}
</style>
<polygon
   class="st0"
   points="79.4,0 79.4,29.8 19.8,29.8 19.8,545.7 79.4,545.7 79.4,575.4 238.1,575.4 238.1,545.7 297.6,545.7   297.6,29.8 238.1,29.8 238.1,0 "
   id="body" />
<path
   d="M59.5,575.4h19.8v-29.8H59.5V575.4z M0,545.7h19.8V29.8H0V545.7z M59.5,29.8h19.8V0H59.5V29.8z"
   id="path6" />
<g
   id="g14">
	<path
   d="M104.2,476.3V104.1H54.6v372.2H104.2z"
   id="path8" />
	<path
   class="st1"
   d="M54.6,476.2V104H39.7v372.2H54.6z M54.6,476.2v15h49.6v-15H54.6z M104.2,104v372.2h14.9V104H104.2z M104.2,104   V89.3H54.6V104H104.2z"
   id="lips" />
	<path
   class="st2"
   d="M64.5,282.7v-24.8h-9.9v24.8H64.5z M104.2,282.7v-24.8h-9.9v24.8H104.2z M64.5,246.8v-24.8h-9.9v24.8H64.5z    M104.2,246.8v-24.8h-9.9v24.8H104.2z M64.5,210.8V186h-9.9v24.8H64.5z M104.2,210.8V186h-9.9v24.8H104.2z M64.5,174.8V150h-9.9   v24.8H64.5z M104.2,174.8V150h-9.9v24.8H104.2z M64.5,138.9v-24.8h-9.9v24.8H64.5z M104.2,138.9v-24.8h-9.9v24.8H104.2z"
   id="path12" />
</g>
<g
   id="g28">
	<polygon
   class="st2"
   points="168.7,94.3 168.7,173.6 188.5,173.6 188.5,188.5 228.2,188.5 228.2,173.6 248,173.6 248,94.3  "
   id="polygon16" />
	<path
   d="M228.2,173.6v14.9h-39.7v-14.9h-19.8V94.3h19.8V79.4h39.7v14.9H248v79.4L228.2,173.6z M258,183.5l0-99.2h-19.8V69.4h-59.5   v14.9h-19.8v99.2h19.8v14.9h59.5v-14.9L258,183.5z"
   id="path18" />
	
	<rect
   x="193.5"
   y="133.9"
   width="29.8"
   height="29.8"
   id="rect22" />
	<rect
   x="208.3"
   y="143.9"
   class="st2"
   width="9.9"
   height="9.9"
   id="rect24" />
	<rect
   x="188.5"
   y="79.4"
   class="st2"
   width="39.7"
   height="19.8"
   id="rect26" />
</g>
<g
   id="g42">
	<polygon
   class="st2"
   points="168.7,253 168.7,332.4 188.5,332.4 188.5,347.3 228.2,347.3 228.2,332.4 248,332.4 248,253  "
   id="polygon30" />
	<path
   d="M228.2,332.4v14.9h-39.7v-14.9h-19.8V253h19.8v-14.9h39.7V253H248v79.4L228.2,332.4z M258,342.3l0-99.2h-19.8v-14.9h-59.5   v14.9h-19.8v99.2h19.8v14.9h59.5v-14.9L258,342.3z"
   id="path32" />
	
	<rect
   x="193.5"
   y="276.3"
   width="29.8"
   height="46.2"
   id="rect36" />
	<rect
   x="208.3"
   y="287.7"
   class="st2"
   width="9.9"
   height="9.9"
   id="rect38" />
	<rect
   x="188.5"
   y="238.1"
   class="st2"
   width="39.7"
   height="19.8"
   id="rect40" />
</g>
<g
   id="g56">
	<polygon
   class="st2"
   points="168.7,411.7 168.7,491.1 188.5,491.1 188.5,506 228.2,506 228.2,491.1 248,491.1 248,411.7  "
   id="polygon44" />
	<path
   d="M228.2,491.1V506h-39.7v-14.9h-19.8v-79.4h19.8v-14.9h39.7v14.9H248v79.4L228.2,491.1z M258,501l0-99.2h-19.8v-14.9h-59.5   v14.9h-19.8V501h19.8v14.9h59.5V501L258,501z"
   id="path46" />
	<rect
   x="193.5"
   y="421.7"
   class="st4"
   width="29.8"
   height="29.8"
   id="rect48" />
	
	<rect
   x="208.3"
   y="426.6"
   class="st2"
   width="9.9"
   height="9.9"
   id="rect52" />
	<rect
   x="188.5"
   y="396.9"
   class="st2"
   width="39.7"
   height="19.8"
   id="rect54" />
</g>
<rect
   x="54.6"
   y="293.9"
   class="st2"
   width="9.9"
   height="24.8"
   id="rect58" />
<rect
   x="94.3"
   y="293.9"
   class="st2"
   width="9.9"
   height="24.8"
   id="rect60" />
<rect
   x="54.6"
   y="329.8"
   class="st2"
   width="9.9"
   height="24.8"
   id="rect62" />
<rect
   x="94.3"
   y="329.8"
   class="st2"
   width="9.9"
   height="24.8"
   id="rect64" />
<rect
   x="54.6"
   y="365.8"
   class="st2"
   width="9.9"
   height="24.8"
   id="rect66" />
<rect
   x="54.6"
   y="401.8"
   class="st2"
   width="9.9"
   height="24.8"
   id="rect68" />
<rect
   x="54.6"
   y="437.8"
   class="st2"
   width="9.9"
   height="24.8"
   id="rect70" />
<rect
   x="94.3"
   y="365.8"
   class="st2"
   width="9.9"
   height="24.8"
   id="rect72" />
<rect
   x="94.3"
   y="401.8"
   class="st2"
   width="9.9"
   height="24.8"
   id="rect74" />
<rect
   x="94.3"
   y="437.8"
   class="st2"
   width="9.9"
   height="24.8"
   id="rect76" />
<path
   id="eyes"
   style="fill:#00498c"
   class="st3"
   d="m 193.5,307.60001 h 29.8 v 14.9 h -29.8 z m 0,143.79998 h 29.8 v 29.8 h -29.8 z m 0,-188.5 h 29.8 v 14.9 H 193.5 Z M 193.5,104.2 h 29.8 V 134 h -29.8 z" />
</svg>
