<?xml version="1.0" encoding="UTF-8" standalone="no"?>
<svg
   width="100%"
   height="100%"
   viewBox="0 0 1242 2317"
   version="1.1"
   xml:space="preserve"
   style="fill-rule:evenodd;clip-rule:evenodd;stroke-linejoin:round;stroke-miterlimit:2;"
   id="svg24"
   xmlns="http://www.w3.org/2000/svg"
   xmlns:svg="http://www.w3.org/2000/svg"><defs
   id="defs28" />
    <g
   transform="matrix(4.16667,0,0,4.16667,0,0)"
   id="g22">
        <path
   d="M59.527,30.174L79.37,30.174L79.37,0.409L59.527,0.409L59.527,30.174ZM0,526.236L19.841,526.236L19.841,30.174L0,30.174L0,526.236ZM59.527,556L79.37,556L79.37,526.236L59.527,526.236L59.527,556Z"
   style="fill:rgb(35,31,32);fill-rule:nonzero;"
   id="path2" />
        <path
   d="M79.37,0.41L79.37,30.174L19.842,30.174L19.842,526.236L79.37,526.236L79.37,556L238.11,556L238.11,526.236L297.638,526.236L297.638,30.174L238.11,30.174L238.11,0.41L79.37,0.41Z"
   style="fill:rgb(0,170,229);fill-rule:nonzero;"
   id="body" />
        <path
   d="M198.426,69.859L178.582,69.859L178.582,54.977L138.897,54.977L138.897,69.859L119.055,69.859L119.055,218.678L138.897,218.678L138.897,233.559L178.582,233.559L178.582,218.678L198.426,218.678L198.426,69.859Z"
   style="fill:white;fill-rule:nonzero;"
   id="path6" />
        <path
   d="M208.347,228.598L208.347,59.938L188.503,59.938L188.503,45.056L128.977,45.056L128.977,59.938L109.133,59.938L109.133,228.598L128.977,228.598L128.977,243.48L188.503,243.48L188.503,228.598L208.347,228.598ZM198.426,218.678L178.582,218.678L178.582,233.559L138.897,233.559L138.897,218.678L119.054,218.678L119.054,69.859L138.897,69.859L138.897,54.977L178.582,54.977L178.582,69.859L198.426,69.859L198.426,218.678Z"
   style="fill:rgb(35,31,32);fill-rule:nonzero;"
   id="path8" />
        <rect
   x="143.858"
   y="79.781"
   width="29.764"
   height="119.054"
   style="fill:rgb(5,180,141);fill-rule:nonzero;"
   id="eye" />
        <rect
   x="143.858"
   y="129.386"
   width="29.764"
   height="29.764"
   style="fill:rgb(35,31,32);fill-rule:nonzero;"
   id="rect12" />
        <rect
   x="158.74"
   y="134.347"
   width="9.921"
   height="9.921"
   style="fill:white;fill-rule:nonzero;"
   id="rect14" />
        <path
   d="M252.992,421.692L64.487,421.692L64.487,471.298L252.992,471.298L252.992,421.692ZM64.487,342.693L252.992,342.693L252.992,293.087L64.487,293.087L64.487,342.693Z"
   style="fill:rgb(35,31,32);fill-rule:nonzero;"
   id="path16" />
        <path
   d="M267.874,421.692L252.992,421.692L252.992,471.298L267.874,471.298L267.874,421.692ZM252.992,471.298L64.487,471.298L64.487,486.18L252.992,486.18L252.992,471.298ZM64.487,421.692L49.606,421.692L49.606,471.298L64.487,471.298L64.487,421.692ZM64.487,421.692L252.992,421.692L252.992,406.81L64.487,406.81L64.487,421.692ZM252.992,342.693L267.874,342.693L267.874,293.087L252.992,293.087L252.992,342.693ZM252.992,342.693L64.487,342.693L64.487,357.575L252.992,357.575L252.992,342.693ZM64.487,293.087L49.606,293.087L49.606,342.693L64.487,342.693L64.487,293.087ZM64.487,293.087L252.992,293.087L252.992,278.205L64.487,278.205L64.487,293.087Z"
   style="fill:rgb(243,113,35);fill-rule:nonzero;"
   id="lips" />
        <path
   d="M243.071,461.377L218.268,461.377L218.268,471.298L243.071,471.298L243.071,461.377ZM218.268,431.613L243.071,431.613L243.071,421.692L218.268,421.692L218.268,431.613ZM218.268,342.693L243.071,342.693L243.071,332.772L218.268,332.772L218.268,342.693ZM218.268,303.008L243.071,303.008L243.071,293.087L218.268,293.087L218.268,303.008ZM182.303,471.298L207.106,471.298L207.106,461.377L182.303,461.377L182.303,471.298ZM182.303,431.613L207.106,431.613L207.106,421.692L182.303,421.692L182.303,431.613ZM182.303,342.693L207.106,342.693L207.106,332.772L182.303,332.772L182.303,342.693ZM182.303,303.008L207.106,303.008L207.106,293.087L182.303,293.087L182.303,303.008ZM146.339,471.298L171.142,471.298L171.142,461.377L146.339,461.377L146.339,471.298ZM146.339,431.613L171.142,431.613L171.142,421.692L146.339,421.692L146.339,431.613ZM146.339,342.693L171.142,342.693L171.142,332.772L146.339,332.772L146.339,342.693ZM146.339,303.008L171.142,303.008L171.142,293.087L146.339,293.087L146.339,303.008ZM110.374,471.298L135.177,471.298L135.177,461.377L110.374,461.377L110.374,471.298ZM110.374,431.613L135.177,431.613L135.177,421.692L110.374,421.692L110.374,431.613ZM110.374,342.693L135.177,342.693L135.177,332.772L110.374,332.772L110.374,342.693ZM110.374,303.008L135.177,303.008L135.177,293.087L110.374,293.087L110.374,303.008ZM74.409,471.298L99.211,471.298L99.211,461.377L74.409,461.377L74.409,471.298ZM74.409,431.613L99.211,431.613L99.211,421.692L74.409,421.692L74.409,431.613ZM74.409,342.693L99.211,342.693L99.211,332.772L74.409,332.772L74.409,342.693ZM74.409,303.008L99.211,303.008L99.211,293.087L74.409,293.087L74.409,303.008Z"
   style="fill:white;fill-rule:nonzero;"
   id="path20" />
    </g>
</svg>
