<?xml version="1.0" encoding="UTF-8" standalone="no"?>
<svg
   width="100%"
   height="100%"
   viewBox="0 0 1655 1988"
   version="1.1"
   xml:space="preserve"
   style="fill-rule:evenodd;clip-rule:evenodd;stroke-linejoin:round;stroke-miterlimit:2;"
   id="svg168"
   xmlns="http://www.w3.org/2000/svg"
   xmlns:svg="http://www.w3.org/2000/svg"><defs
   id="defs172" />
    <g
   transform="matrix(4.16667,0,0,4.16667,0,0)"
   id="g166">
        
        
        
        
        
        
        
        
        
        
        
        
        
        
        
        
        
        
        
        
        
        
        
        
        
        
        
        
        
        
        
        
        
        
        
        <path
   id="body"
   style="fill:rgb(5,180,141);fill-rule:nonzero;"
   d="m 178.583,397.63 h 39.685 V 377.788 H 178.583 Z M 377.008,119.835 V 99.993 H 357.165 V 80.15 H 337.323 V 60.308 H 317.48 V 40.465 H 297.638 V 20.623 H 277.795 V 0.78 H 238.11 V 0.785 L 238.107,0.78 h -19.839 v 19.843 h 19.842 v 19.842 h 19.843 v 19.843 h 19.842 V 80.15 h 19.843 V 99.993 H 277.795 V 80.15 H 257.953 V 60.308 H 238.11 V 40.465 H 218.268 V 20.623 H 178.583 V 40.465 H 158.74 V 60.308 H 138.897 V 80.15 H 119.055 V 99.993 H 99.212 V 80.15 h 19.843 V 60.308 h 19.842 V 40.465 H 158.74 V 20.623 h 19.843 V 0.78 H 119.055 V 20.623 H 99.212 V 40.465 H 79.37 V 60.308 H 59.527 V 80.15 H 39.685 V 99.993 H 19.842 v 19.842 H 0 v 99.213 h 19.842 v 19.842 h 39.685 v 39.685 H 79.37 v 19.843 h 39.685 v 39.685 h 19.842 V 318.26 h 19.843 v 19.843 h 19.843 v 19.842 h 39.685 V 338.103 H 238.11 V 318.26 h 19.843 v 19.843 h 19.842 v -39.685 h 39.685 v -19.843 h 19.843 V 238.89 h 39.685 v -19.842 h 19.843 V 119.835 Z M 238.11,338.103 h 19.843 v 19.842 H 238.11 Z m 0,39.68499 h 19.843 v 19.842 H 238.11 Z m 19.843,-19.84298 h 19.842 v 19.843 h -19.842 z m -39.68499,0 H 238.11 v 19.843 h -19.84199 z m 138.897,19.84298 h 19.843 v 19.842 h -19.843 z M 337.323,397.63 h 19.842 v 19.84301 h -19.842 z m -19.84299,19.84299 h 19.843 v 19.842 h -19.843 z m -297.638011,-39.685 h 19.843 v 19.842 h -19.843 z M 39.685001,397.63 H 59.527 v 19.84301 H 39.685001 Z M 59.527,417.47299 h 19.843001 v 19.842 H 59.527 Z M 79.370003,437.315 h 19.841999 v 19.843 H 79.370003 Z m 218.267997,0 h 19.842 v 19.843 h -19.842 z m -19.84299,19.84299 h 19.843 v 19.843 h -19.843 z m -39.68501,0 h 19.843 v 19.843 H 238.11 Z m -59.527,1e-5 v 19.843 h 39.685 v -19.843 z m -39.686,-1e-5 h 19.843 v 19.843 h -19.843 z m -39.685002,0 H 119.055 v 19.843 H 99.211998 Z M 119.055,437.315 h 19.842 v 19.843 h -19.842 z m 39.68501,0 h 19.843 v 19.843 h -19.843 z m 59.528,0 H 238.11 v 19.843 h -19.84199 z m 39.68499,0 h 19.842 v 19.843 h -19.842 z m 19.84201,-19.84201 h 19.843 v 19.842 h -19.843 z M 257.953,397.63 h 19.842 v 19.84301 h -19.842 z m -19.843,19.84299 h 19.843 v 19.842 H 238.11 Z M 218.26801,397.63 H 238.11 v 19.84301 h -19.84199 z m -1e-5,19.843 h -39.685 v 19.842 h 39.685 z M 158.74001,397.63 h 19.843 v 19.84301 h -19.843 z M 99.211998,417.47299 H 119.055 v 19.842 H 99.211998 Z m 39.685002,0 h 19.843 v 19.842 H 138.897 Z M 119.055,397.63 h 19.842 v 19.84301 h -19.842 z m 19.842,-19.84201 h 19.843 v 19.842 h -19.843 z m 19.84301,-19.84298 h 19.843 v 19.843 h -19.843 z m -39.68501,0 h 19.842 v 19.843 H 119.055 Z M 138.897,338.103 h 19.843 v 19.842 h -19.843 z" />
        <rect
   x="228.189"
   y="149.599"
   width="9.921"
   height="9.921"
   style="fill:rgb(35,31,32);fill-rule:nonzero;"
   id="rect74" />
        <rect
   x="89.291"
   y="149.599"
   width="9.921"
   height="9.921"
   style="fill:rgb(35,31,32);fill-rule:nonzero;"
   id="rect76" />
        <rect
   x="238.11"
   y="139.678"
   width="59.528"
   height="9.921"
   style="fill:rgb(35,31,32);fill-rule:nonzero;"
   id="rect78" />
        <rect
   x="99.212"
   y="139.678"
   width="59.528"
   height="9.921"
   style="fill:rgb(35,31,32);fill-rule:nonzero;"
   id="rect80" />
        <rect
   x="297.638"
   y="149.599"
   width="9.921"
   height="9.921"
   style="fill:rgb(35,31,32);fill-rule:nonzero;"
   id="rect82" />
        <rect
   x="158.74"
   y="149.599"
   width="9.921"
   height="9.921"
   style="fill:rgb(35,31,32);fill-rule:nonzero;"
   id="rect84" />
        <path
   d="M297.638,179.363L238.11,179.363L238.11,194.245L228.189,194.245L228.189,204.166L238.11,204.166L238.11,219.048L297.638,219.048L297.638,204.166L307.559,204.166L307.559,194.245L297.638,194.245L297.638,179.363Z"
   style="fill:rgb(35,31,32);fill-rule:nonzero;"
   id="path86" />
        <path
   d="M158.74,179.363L99.212,179.363L99.212,194.245L89.291,194.245L89.291,204.166L99.212,204.166L99.212,219.048L158.74,219.048L158.74,204.166L168.661,204.166L168.661,194.245L158.74,194.245L158.74,179.363Z"
   style="fill:rgb(35,31,32);fill-rule:nonzero;"
   id="path88" />
        <path
   d="M218.268,0.78L178.583,0.78L178.583,20.266L158.74,20.266L158.74,40.108L178.583,40.108L178.583,20.623L218.268,20.623L218.268,0.78Z"
   style="fill:white;fill-rule:nonzero;"
   id="path90" />
        <path
   d="M218.268,278.575L218.268,258.733L178.583,258.733L178.583,278.575L218.268,278.575Z"
   style="fill:white;fill-rule:nonzero;"
   id="path92" />
        <rect
   x="218.268"
   y="20.623"
   width="19.842"
   height="19.842"
   style="fill:white;fill-rule:nonzero;"
   id="rect94" />
        <rect
   x="138.897"
   y="40.108"
   width="19.843"
   height="19.843"
   style="fill:white;fill-rule:nonzero;"
   id="rect96" />
        <rect
   x="119.055"
   y="59.951"
   width="19.842"
   height="19.842"
   style="fill:white;fill-rule:nonzero;"
   id="rect98" />
        <rect
   x="99.212"
   y="79.793"
   width="19.843"
   height="19.843"
   style="fill:white;fill-rule:nonzero;"
   id="rect100" />
        <rect
   x="238.11"
   y="40.465"
   width="19.843"
   height="19.843"
   style="fill:white;fill-rule:nonzero;"
   id="rect102" />
        <rect
   x="257.953"
   y="60.308"
   width="19.842"
   height="19.842"
   style="fill:white;fill-rule:nonzero;"
   id="rect104" />
        <rect
   x="277.795"
   y="80.15"
   width="19.843"
   height="19.843"
   style="fill:white;fill-rule:nonzero;"
   id="rect106" />
        <rect
   x="238.11"
   y="318.26"
   width="19.843"
   height="19.843"
   style="fill:white;fill-rule:nonzero;"
   id="rect108" />
        <rect
   x="238.11"
   y="357.945"
   width="19.843"
   height="19.843"
   style="fill:white;fill-rule:nonzero;"
   id="rect110" />
        <path
   d="M178.583,377.788L218.268,377.788L218.268,357.945L178.583,357.945L178.583,377.788Z"
   style="fill:white;fill-rule:nonzero;"
   id="path112" />
        <path
   d="M178.583,437.315L178.583,457.158L218.268,457.158L218.268,437.315L178.583,437.315Z"
   style="fill:white;fill-rule:nonzero;"
   id="path114" />
        <path
   d="M218.268,397.63L178.583,397.63L178.583,417.473L218.268,417.473L218.268,397.63Z"
   style="fill:white;fill-rule:nonzero;"
   id="path116" />
        <rect
   x="238.11"
   y="397.63"
   width="19.843"
   height="19.843"
   style="fill:white;fill-rule:nonzero;"
   id="rect118" />
        <rect
   x="238.11"
   y="437.315"
   width="19.843"
   height="19.843"
   style="fill:white;fill-rule:nonzero;"
   id="rect120" />
        <rect
   x="138.897"
   y="318.26"
   width="19.843"
   height="19.843"
   style="fill:white;fill-rule:nonzero;"
   id="rect122" />
        <rect
   x="138.897"
   y="357.945"
   width="19.843"
   height="19.843"
   style="fill:white;fill-rule:nonzero;"
   id="rect124" />
        <rect
   x="138.897"
   y="397.63"
   width="19.843"
   height="19.843"
   style="fill:white;fill-rule:nonzero;"
   id="rect126" />
        <rect
   x="138.897"
   y="437.315"
   width="19.843"
   height="19.843"
   style="fill:white;fill-rule:nonzero;"
   id="rect128" />
        <rect
   x="218.268"
   y="338.103"
   width="19.842"
   height="19.842"
   style="fill:white;fill-rule:nonzero;"
   id="rect130" />
        <rect
   x="218.268"
   y="377.788"
   width="19.842"
   height="19.842"
   style="fill:white;fill-rule:nonzero;"
   id="rect132" />
        <rect
   x="218.268"
   y="417.473"
   width="19.842"
   height="19.842"
   style="fill:white;fill-rule:nonzero;"
   id="rect134" />
        <rect
   x="218.268"
   y="457.158"
   width="19.839"
   height="19.843"
   style="fill:white;fill-rule:nonzero;"
   id="rect136" />
        <rect
   x="257.953"
   y="457.158"
   width="19.842"
   height="19.843"
   style="fill:white;fill-rule:nonzero;"
   id="rect138" />
        <rect
   x="257.953"
   y="417.473"
   width="19.842"
   height="19.842"
   style="fill:white;fill-rule:nonzero;"
   id="rect140" />
        <rect
   x="257.953"
   y="377.788"
   width="19.842"
   height="19.842"
   style="fill:white;fill-rule:nonzero;"
   id="rect142" />
        <rect
   x="257.953"
   y="338.103"
   width="19.842"
   height="19.842"
   style="fill:white;fill-rule:nonzero;"
   id="rect144" />
        <rect
   x="158.74"
   y="338.103"
   width="19.843"
   height="19.842"
   style="fill:white;fill-rule:nonzero;"
   id="rect146" />
        <rect
   x="158.74"
   y="377.788"
   width="19.843"
   height="19.842"
   style="fill:white;fill-rule:nonzero;"
   id="rect148" />
        <rect
   x="158.74"
   y="417.473"
   width="19.843"
   height="19.842"
   style="fill:white;fill-rule:nonzero;"
   id="rect150" />
        <rect
   x="158.74"
   y="457.158"
   width="19.843"
   height="19.843"
   style="fill:white;fill-rule:nonzero;"
   id="rect152" />
        <rect
   x="119.055"
   y="457.158"
   width="19.84"
   height="19.843"
   style="fill:white;fill-rule:nonzero;"
   id="rect154" />
        <rect
   x="119.055"
   y="417.473"
   width="19.842"
   height="19.842"
   style="fill:white;fill-rule:nonzero;"
   id="rect156" />
        <rect
   x="119.055"
   y="377.788"
   width="19.842"
   height="19.842"
   style="fill:white;fill-rule:nonzero;"
   id="rect158" />
        <rect
   x="119.055"
   y="338.103"
   width="19.842"
   height="19.842"
   style="fill:white;fill-rule:nonzero;"
   id="rect160" />
        <rect
   x="99.212"
   y="437.315"
   width="19.843"
   height="19.843"
   style="fill:white;fill-rule:nonzero;"
   id="rect162" />
        <rect
   x="277.795"
   y="437.315"
   width="19.843"
   height="19.843"
   style="fill:white;fill-rule:nonzero;"
   id="rect164" />
    </g>
</svg>
