<?xml version="1.0" encoding="UTF-8" standalone="no"?>
<svg
   width="100%"
   height="100%"
   viewBox="0 0 1242 2150"
   version="1.1"
   xml:space="preserve"
   style="fill-rule:evenodd;clip-rule:evenodd;stroke-linejoin:round;stroke-miterlimit:2;"
   id="svg58"
   xmlns="http://www.w3.org/2000/svg"
   xmlns:svg="http://www.w3.org/2000/svg"><defs
   id="defs62" />
    <g
   transform="matrix(4.16667,0,0,4.16667,0,0)"
   id="g56">
        <path
   d="M119.055,0.094L119.055,21.094L98,21.094L98,38.594L42,38.594L42,59.622L21,59.622L21,157.594L0,157.594L0,217.094L21,217.094L21,318.594L42,318.594L42,336.094L255.5,336.094L255.5,315.094L276.5,315.094L276.5,217.094L297.638,217.094L297.638,157.594L276.5,157.594L276.5,59.594L259,59.622L259,38.594L199.5,38.594L199.5,21.094L178.583,21.094L178.5,38.594L119.055,38.594L119.055,21.094L178.583,21.094L178.583,0.094L119.055,0.094ZM59.524,357.259L59.524,516L99.212,516L99.212,496.157L119.055,496.157L119.055,516L178.583,516L178.583,496.157L158.737,496.157L158.737,476.312L178.583,476.312L178.583,496.157L198.425,496.157L198.425,516L238.107,516L238.107,357.259L59.524,357.259ZM138.895,456.472L158.737,456.472L158.737,476.312L138.895,476.312L138.895,456.472ZM119.055,476.312L138.895,476.312L138.895,496.155L119.055,496.155L119.055,476.312ZM257.953,516L277.795,516L277.795,377.099L257.953,377.099L257.953,516ZM19.842,516L39.685,516L39.685,377.099L19.842,377.099L19.842,516Z"
   style="fill:rgb(243,113,35);fill-rule:nonzero;"
   id="body" />
        <rect
   x="199.5"
   y="168.094"
   width="38.5"
   height="38.5"
   style="fill:white;fill-rule:nonzero;"
   id="rect4" />
        <rect
   x="59.5"
   y="168.094"
   width="38.5"
   height="38.5"
   style="fill:white;fill-rule:nonzero;"
   id="rect6" />
        <rect
   x="59.526"
   y="157.594"
   width="38.474"
   height="10.5"
   style="fill:rgb(35,31,32);fill-rule:nonzero;"
   id="rect8" />
        <rect
   x="59.5"
   y="206.594"
   width="38.5"
   height="9.921"
   style="fill:rgb(35,31,32);fill-rule:nonzero;"
   id="rect10" />
        <rect
   x="49"
   y="168.094"
   width="10.526"
   height="38.5"
   style="fill:rgb(35,31,32);fill-rule:nonzero;"
   id="rect12" />
        <rect
   x="98"
   y="168.094"
   width="10.5"
   height="38.5"
   style="fill:rgb(35,31,32);fill-rule:nonzero;"
   id="rect14" />
        <rect
   x="199.5"
   y="157.594"
   width="38.5"
   height="10.5"
   style="fill:rgb(35,31,32);fill-rule:nonzero;"
   id="rect16" />
        <rect
   x="189"
   y="168.094"
   width="10.5"
   height="38.5"
   style="fill:rgb(35,31,32);fill-rule:nonzero;"
   id="rect18" />
        <rect
   x="238"
   y="168.094"
   width="10.5"
   height="38.5"
   style="fill:rgb(35,31,32);fill-rule:nonzero;"
   id="rect20" />
        <rect
   x="199.5"
   y="206.594"
   width="38.5"
   height="10.5"
   style="fill:rgb(35,31,32);fill-rule:nonzero;"
   id="rect22" />
        <path
   d="M77,297.594L77,266.094L66.5,266.094L66.5,297.594L77,297.594Z"
   style="fill:rgb(35,31,32);fill-rule:nonzero;"
   id="path24" />
        <path
   d="M192.5,297.594L171.5,297.594L171.5,266.094L192.5,266.094L192.5,297.594ZM161,297.594L140,297.594L140,266.094L161,266.094L161,297.594ZM129.5,297.594L108.5,297.594L108.5,266.094L129.5,266.094L129.5,297.594ZM203,297.594L203,266.094L224,266.094L224,255.594L77,255.594L77,266.094L94.5,266.094L94.5,297.594L77,297.594L77,308.094L224,308.094L224,297.594L203,297.594Z"
   style="fill:rgb(35,31,32);fill-rule:nonzero;"
   id="path26" />
        <rect
   x="224"
   y="266.094"
   width="10.5"
   height="31.279"
   style="fill:rgb(35,31,32);fill-rule:nonzero;"
   id="rect28" />
        <rect
   x="213.5"
   y="189.094"
   width="10.871"
   height="10.5"
   style="fill:rgb(35,31,32);fill-rule:nonzero;"
   id="rect30" />
        <rect
   x="73.128"
   y="189.094"
   width="10.872"
   height="10.5"
   style="fill:rgb(35,31,32);fill-rule:nonzero;"
   id="rect32" />
        <rect
   x="138.897"
   y="456.471"
   width="19.842"
   height="19.843"
   style="fill:white;fill-rule:nonzero;"
   id="rect34" />
        <rect
   x="158.739"
   y="476.314"
   width="19.843"
   height="19.843"
   style="fill:white;fill-rule:nonzero;"
   id="rect36" />
        <rect
   x="119.054"
   y="476.314"
   width="19.843"
   height="19.843"
   style="fill:white;fill-rule:nonzero;"
   id="rect38" />
        <rect
   x="99.211"
   y="496.157"
   width="19.843"
   height="19.843"
   style="fill:white;fill-rule:nonzero;"
   id="rect40" />
        <rect
   x="178.582"
   y="496.157"
   width="19.843"
   height="19.843"
   style="fill:white;fill-rule:nonzero;"
   id="rect42" />
        <rect
   x="119.054"
   y="21.094"
   width="59.528"
   height="17.5"
   style="fill:white;fill-rule:nonzero;"
   id="rect44" />
        <rect
   x="77"
   y="266.094"
   width="21"
   height="31.5"
   style="fill:white;fill-rule:nonzero;"
   id="rect46" />
        <rect
   x="108.5"
   y="266.094"
   width="21"
   height="31.5"
   style="fill:white;fill-rule:nonzero;"
   id="rect48" />
        <rect
   x="140"
   y="266.094"
   width="21"
   height="31.5"
   style="fill:white;fill-rule:nonzero;"
   id="rect50" />
        <rect
   x="171.5"
   y="266.094"
   width="21"
   height="31.5"
   style="fill:white;fill-rule:nonzero;"
   id="rect52" />
        <rect
   x="203"
   y="266.094"
   width="21"
   height="31.5"
   style="fill:white;fill-rule:nonzero;"
   id="rect54" />
    </g>
</svg>
