<?xml version="1.0" encoding="UTF-8" standalone="no"?>
<svg
   width="100%"
   height="100%"
   viewBox="0 0 1409 1450"
   version="1.1"
   xml:space="preserve"
   style="fill-rule:evenodd;clip-rule:evenodd;stroke-linejoin:round;stroke-miterlimit:2;"
   id="svg10"
   xmlns="http://www.w3.org/2000/svg"
   xmlns:svg="http://www.w3.org/2000/svg"><defs
   id="defs14" />
    <g
   transform="matrix(4.16667,0,0,4.16667,0,0)"
   id="g8">
        <path
   d="M39.686,0.756L39.686,20.599L19.842,20.599L19.842,40.442L0,40.442L0,80.127L19.842,80.127L19.842,99.969L69.449,99.969L69.449,159.496L89.292,159.496L89.292,179.339L119.055,179.339L119.055,199.182L19.842,199.182L19.842,209.102L9.921,209.102L9.921,228.946L19.842,228.946L19.842,238.867L119.055,238.867L119.055,338.08L128.977,338.08L128.977,348L153.78,348L153.78,338.08L163.701,338.08L163.701,318.236L183.544,318.236L183.544,338.08L193.465,338.08L193.465,348L218.268,348L218.268,338.08L228.189,338.08L228.189,179.339L238.111,179.339L238.111,159.496L257.953,159.496L257.953,99.969L317.481,99.969L317.481,80.127L337.323,80.127L337.323,40.442L317.481,40.442L317.481,20.599L297.639,20.599L297.639,0.756L39.686,0.756Z"
   style="fill:rgb(255,207,39);fill-rule:nonzero;"
   id="body" />
        <path
   d="M243.072,40.442L228.19,40.442L228.19,70.206L243.072,70.206L243.072,40.442ZM198.425,70.206L198.425,40.442L183.543,40.442L183.543,55.324L153.779,55.324L153.779,40.442L138.898,40.442L138.898,70.206L198.425,70.206ZM138.898,70.206L109.134,70.206L109.134,129.732L124.017,129.732L124.017,85.088L138.898,85.088L138.898,70.206ZM188.504,80.127L153.779,80.127L153.779,95.009L163.702,95.009L163.702,109.89L178.584,109.89L178.584,95.009L188.504,95.009L188.504,80.127ZM138.898,129.732L124.017,129.732L124.017,144.614L138.898,144.614L138.898,129.732ZM198.425,144.615L213.307,144.615L213.307,129.734L198.425,129.734L198.425,144.615ZM213.307,85.088L213.307,129.732L228.19,129.732L228.19,70.206L198.425,70.206L198.425,85.088L213.307,85.088ZM198.425,144.615L138.897,144.615L138.897,159.497L198.425,159.497L198.425,144.615ZM109.134,40.442L94.252,40.442L94.252,70.206L109.134,70.206L109.134,40.442ZM109.134,40.442L138.898,40.442L138.898,25.56L109.134,25.56L109.134,40.442ZM198.425,40.442L228.19,40.442L228.19,25.56L198.425,25.56L198.425,40.442ZM158.741,238.866L119.056,238.866L119.056,298.395L138.898,298.395L138.898,278.551L158.741,278.551L158.741,238.866Z"
   style="fill:rgb(35,31,32);fill-rule:nonzero;"
   id="path4" />
        <path
   d="M312.52,70.206L312.52,55.323L297.638,55.323L297.638,40.442L282.756,40.442L282.756,55.323L267.875,55.323L267.875,70.206L282.756,70.206L282.756,85.088L297.638,85.088L297.638,70.206L312.52,70.206ZM198.426,70.206L228.19,70.206L228.19,40.442L198.426,40.442L198.426,70.206ZM163.701,134.693L178.584,134.693L178.584,119.811L163.701,119.811L163.701,134.693ZM109.134,70.206L138.898,70.206L138.898,40.442L109.134,40.442L109.134,70.206ZM54.567,70.206L69.449,70.206L69.449,55.323L54.567,55.323L54.567,40.442L39.685,40.442L39.685,55.323L24.803,55.323L24.803,70.206L39.685,70.206L39.685,85.088L54.567,85.088L54.567,70.206Z"
   style="fill:white;fill-rule:nonzero;"
   id="path6" />
    </g>
</svg>
