<?xml version="1.0" encoding="UTF-8" standalone="no"?>
<svg
   width="100%"
   height="100%"
   viewBox="0 0 1409 1450"
   version="1.1"
   xml:space="preserve"
   style="fill-rule:evenodd;clip-rule:evenodd;stroke-linejoin:round;stroke-miterlimit:2;"
   id="svg10"
   xmlns="http://www.w3.org/2000/svg"
   xmlns:svg="http://www.w3.org/2000/svg"><defs
   id="defs14" />
    <g
   transform="matrix(4.16667,0,0,4.16667,0,0)"
   id="g8">
        <path
   d="M39.686,0.756L39.686,20.599L19.842,20.599L19.842,40.442L0,40.442L0,80.127L19.842,80.127L19.842,99.969L79.371,99.969L79.371,159.496L99.212,159.496L99.212,179.339L109.135,179.339L109.135,338.08L119.055,338.08L119.055,348L143.859,348L143.859,338.08L153.78,338.08L153.78,318.236L173.622,318.236L173.622,338.08L183.544,338.08L183.544,348L208.347,348L208.347,338.08L218.268,338.08L218.268,238.867L317.481,238.867L317.481,228.946L327.402,228.946L327.402,209.102L317.481,209.102L317.481,199.182L218.268,199.182L218.268,179.339L248.032,179.339L248.032,159.496L267.875,159.496L267.875,99.969L317.481,99.969L317.481,80.127L337.323,80.127L337.323,40.442L317.481,40.442L317.481,20.599L297.639,20.599L297.639,0.756L39.686,0.756Z"
   style="fill:rgb(5,180,141);fill-rule:nonzero;"
   id="body" />
        <path
   d="M94.252,40.442L109.134,40.442L109.134,70.206L94.252,70.206L94.252,40.442ZM138.898,70.206L138.898,40.442L153.779,40.442L153.779,55.324L183.543,55.324L183.543,40.442L198.425,40.442L198.425,70.206L138.898,70.206ZM198.425,70.206L228.19,70.206L228.19,129.732L213.307,129.732L213.307,85.088L198.425,85.088L198.425,70.206ZM148.819,80.127L183.543,80.127L183.543,95.009L173.623,95.009L173.623,109.89L158.741,109.89L158.741,95.009L148.819,95.009L148.819,80.127ZM198.425,129.732L213.307,129.732L213.307,144.614L198.425,144.614L198.425,129.732ZM138.898,144.615L124.017,144.615L124.017,129.734L138.898,129.734L138.898,144.615ZM124.017,85.088L124.017,129.732L109.134,129.732L109.134,70.206L138.898,70.206L138.898,85.088L124.017,85.088ZM138.898,144.615L198.426,144.615L198.426,159.497L138.898,159.497L138.898,144.615ZM228.19,40.442L243.072,40.442L243.072,70.206L228.19,70.206L228.19,40.442ZM228.19,40.442L198.425,40.442L198.425,25.56L228.19,25.56L228.19,40.442ZM138.898,40.442L109.134,40.442L109.134,25.56L138.898,25.56L138.898,40.442ZM178.584,238.866L218.268,238.866L218.268,298.395L198.425,298.395L198.425,278.551L178.584,278.551L178.584,238.866Z"
   style="fill:rgb(35,31,32);fill-rule:nonzero;"
   id="path4" />
        <path
   d="M24.803,70.206L24.803,55.323L39.685,55.323L39.685,40.442L54.567,40.442L54.567,55.323L69.449,55.323L69.449,70.206L54.567,70.206L54.567,85.088L39.685,85.088L39.685,70.206L24.803,70.206ZM138.897,70.206L109.134,70.206L109.134,40.442L138.897,40.442L138.897,70.206ZM173.623,134.693L158.741,134.693L158.741,119.811L173.623,119.811L173.623,134.693ZM228.19,70.206L198.425,70.206L198.425,40.442L228.19,40.442L228.19,70.206ZM282.756,70.206L267.875,70.206L267.875,55.323L282.756,55.323L282.756,40.442L297.639,40.442L297.639,55.323L312.521,55.323L312.521,70.206L297.639,70.206L297.639,85.088L282.756,85.088L282.756,70.206Z"
   style="fill:white;fill-rule:nonzero;"
   id="path6" />
    </g>
</svg>
