<?xml version="1.0" encoding="UTF-8" standalone="no"?>
<svg
   width="100%"
   height="100%"
   viewBox="0 0 1325 1988"
   version="1.1"
   xml:space="preserve"
   style="fill-rule:evenodd;clip-rule:evenodd;stroke-linejoin:round;stroke-miterlimit:2;"
   id="svg10"
   xmlns="http://www.w3.org/2000/svg"
   xmlns:svg="http://www.w3.org/2000/svg"><defs
   id="defs14" />
    <g
   transform="matrix(4.16667,0,0,4.16667,0,0)"
   id="g8">
        <path
   d="M297.639,80.15L297.639,60.308L277.796,60.308L277.796,40.466L257.954,40.466L257.954,20.622L238.11,20.622L238.11,0.78L79.37,0.78L79.37,20.622L59.528,20.622L59.528,40.466L39.684,40.466L39.684,60.308L19.842,60.308L19.842,80.15L0,80.15L0,377.789L19.842,377.789L19.842,397.631L39.684,397.631L39.684,417.473L79.37,417.473L79.37,457.159L99.212,457.159L99.212,477.001L218.268,477.001L218.268,457.159L238.11,457.159L238.11,417.473L277.796,417.473L277.796,397.631L297.639,397.631L297.639,377.789L317.48,377.789L317.48,80.15L297.639,80.15Z"
   style="fill:rgb(248,150,44);fill-rule:nonzero;"
   id="head" />
        <path
   d="M297.639,219.047L297.639,139.677L178.583,139.677L178.583,159.519L138.898,159.519L138.898,139.677L19.842,139.677L19.842,219.047L39.684,219.047L39.684,238.889L59.527,238.889L59.527,258.732L119.055,258.732L119.055,298.417L79.37,298.417L79.37,377.787L238.11,377.787L238.11,298.417L198.426,298.417L198.426,258.732L257.953,258.732L257.953,238.889L277.797,238.889L277.797,219.047L297.639,219.047ZM178.583,278.574L138.898,278.574L138.898,258.732L178.583,258.732L178.583,278.574Z"
   style="fill:white;fill-rule:nonzero;"
   id="mask" />
        <path
   d="M277.796,189.283L277.796,179.363L208.347,179.363L208.347,189.283L188.505,189.283L188.505,209.125L198.426,209.125L198.426,219.047L248.032,219.047L248.032,209.125L257.953,209.125L257.953,199.204L267.875,199.204L267.875,189.283L277.796,189.283ZM188.505,338.102L178.583,338.102L178.583,328.181L138.897,328.181L138.897,338.102L128.976,338.102L128.976,357.944L138.897,357.944L138.897,367.865L178.583,367.865L178.583,357.944L188.505,357.944L188.505,338.102ZM119.056,209.125L128.976,209.125L128.976,189.283L109.135,189.283L109.135,179.363L39.685,179.363L39.685,189.283L49.606,189.283L49.606,199.204L59.527,199.204L59.527,209.125L69.448,209.125L69.448,219.047L119.056,219.047L119.056,209.125Z"
   style="fill:rgb(35,31,32);fill-rule:nonzero;"
   id="path6" />
    </g>
</svg>
